<?xml version="1.0" encoding="utf-8" standalone="no"?>
<!DOCTYPE svg PUBLIC "-//W3C//DTD SVG 1.1//EN"
  "http://www.w3.org/Graphics/SVG/1.1/DTD/svg11.dtd">
<svg xmlns:xlink="http://www.w3.org/1999/xlink" width="1080pt" height="432pt" viewBox="0 0 1080 432" xmlns="http://www.w3.org/2000/svg" version="1.1">
 <metadata>
  <rdf:RDF xmlns:dc="http://purl.org/dc/elements/1.1/" xmlns:cc="http://creativecommons.org/ns#" xmlns:rdf="http://www.w3.org/1999/02/22-rdf-syntax-ns#">
   <cc:Work>
    <dc:type rdf:resource="http://purl.org/dc/dcmitype/StillImage"/>
    <dc:date>2025-11-24T09:12:22.657613</dc:date>
    <dc:format>image/svg+xml</dc:format>
    <dc:creator>
     <cc:Agent>
      <dc:title>Matplotlib v3.10.0, https://matplotlib.org/</dc:title>
     </cc:Agent>
    </dc:creator>
   </cc:Work>
  </rdf:RDF>
 </metadata>
 <defs>
  <style type="text/css">*{stroke-linejoin: round; stroke-linecap: butt}</style>
 </defs>
 <g id="figure_1">
  <g id="patch_1">
   <path d="M 0 432 
L 1080 432 
L 1080 0 
L 0 0 
z
" style="fill: #ffffff"/>
  </g>
  <g id="axes_1">
   <g id="patch_2">
    <path d="M 108.298066 372.562089 
L 1052.783139 372.562089 
L 1052.783139 32.020693 
L 108.298066 32.020693 
z
" style="fill: #ffffff"/>
   </g>
   <g id="matplotlib.axis_1">
    <g id="xtick_1">
     <g id="line2d_1">
      <path d="M 151.229205 372.562089 
L 151.229205 32.020693 
" clip-path="url(#pf5fe18ae7f)" style="fill: none; stroke: #b0b0b0; stroke-width: 0.8; stroke-linecap: square"/>
     </g>
     <g id="line2d_2">
      <defs>
       <path id="m649d727575" d="M 0 0 
L 0 3.5 
" style="stroke: #000000; stroke-width: 0.8"/>
      </defs>
      <g>
       <use xlink:href="#m649d727575" x="151.229205" y="372.562089" style="stroke: #000000; stroke-width: 0.8"/>
      </g>
     </g>
     <g id="text_1">
      <!-- $\mathdefault{0.0}$ -->
      <g transform="translate(139.381392 393.399086) scale(0.2 -0.2)">
       <defs>
        <path id="CMR17-30" d="M 2688 2038 
C 2688 2430 2682 3099 2413 3613 
C 2176 4063 1798 4224 1466 4224 
C 1158 4224 768 4082 525 3620 
C 269 3137 243 2539 243 2038 
C 243 1671 250 1112 448 623 
C 723 -39 1216 -128 1466 -128 
C 1760 -128 2208 -7 2470 604 
C 2662 1048 2688 1568 2688 2038 
z
M 1466 -26 
C 1056 -26 813 328 723 816 
C 653 1196 653 1749 653 2109 
C 653 2604 653 3015 736 3407 
C 858 3954 1216 4121 1466 4121 
C 1728 4121 2067 3947 2189 3420 
C 2272 3054 2278 2623 2278 2109 
C 2278 1691 2278 1176 2202 797 
C 2067 96 1690 -26 1466 -26 
z
" transform="scale(0.015625)"/>
        <path id="CMMI12-3a" d="M 1178 307 
C 1178 492 1024 620 870 620 
C 685 620 557 467 557 313 
C 557 128 710 0 864 0 
C 1050 0 1178 153 1178 307 
z
" transform="scale(0.015625)"/>
       </defs>
       <use xlink:href="#CMR17-30" transform="scale(0.996264)"/>
       <use xlink:href="#CMMI12-3a" transform="translate(45.690477 0) scale(0.996264)"/>
       <use xlink:href="#CMR17-30" transform="translate(72.787654 0) scale(0.996264)"/>
      </g>
     </g>
    </g>
    <g id="xtick_2">
     <g id="line2d_3">
      <path d="M 280.022625 372.562089 
L 280.022625 32.020693 
" clip-path="url(#pf5fe18ae7f)" style="fill: none; stroke: #b0b0b0; stroke-width: 0.8; stroke-linecap: square"/>
     </g>
     <g id="line2d_4">
      <g>
       <use xlink:href="#m649d727575" x="280.022625" y="372.562089" style="stroke: #000000; stroke-width: 0.8"/>
      </g>
     </g>
     <g id="text_2">
      <!-- $\mathdefault{2.5}$ -->
      <g transform="translate(268.174811 393.399086) scale(0.2 -0.2)">
       <defs>
        <path id="CMR17-32" d="M 2669 990 
L 2554 990 
C 2490 537 2438 460 2413 422 
C 2381 371 1920 371 1830 371 
L 602 371 
C 832 620 1280 1073 1824 1596 
C 2214 1966 2669 2400 2669 3033 
C 2669 3788 2067 4224 1395 4224 
C 691 4224 262 3603 262 3027 
C 262 2777 448 2745 525 2745 
C 589 2745 781 2783 781 3007 
C 781 3206 614 3264 525 3264 
C 486 3264 448 3257 422 3244 
C 544 3788 915 4057 1306 4057 
C 1862 4057 2227 3616 2227 3033 
C 2227 2477 1901 1998 1536 1583 
L 262 147 
L 262 0 
L 2515 0 
L 2669 990 
z
" transform="scale(0.015625)"/>
        <path id="CMR17-35" d="M 730 3750 
C 794 3724 1056 3641 1325 3641 
C 1920 3641 2246 3961 2432 4140 
C 2432 4191 2432 4224 2394 4224 
C 2387 4224 2374 4224 2323 4198 
C 2099 4102 1837 4032 1517 4032 
C 1325 4032 1037 4055 723 4191 
C 653 4224 640 4224 634 4224 
C 602 4224 595 4217 595 4090 
L 595 2231 
C 595 2113 595 2080 659 2080 
C 691 2080 704 2093 736 2139 
C 941 2435 1222 2560 1542 2560 
C 1766 2560 2246 2415 2246 1293 
C 2246 1087 2246 716 2054 422 
C 1894 159 1645 25 1370 25 
C 947 25 518 319 403 812 
C 429 806 480 793 506 793 
C 589 793 749 838 749 1036 
C 749 1209 627 1280 506 1280 
C 358 1280 262 1190 262 1011 
C 262 454 704 -128 1382 -128 
C 2042 -128 2669 441 2669 1267 
C 2669 2054 2170 2662 1549 2662 
C 1222 2662 947 2540 730 2304 
L 730 3750 
z
" transform="scale(0.015625)"/>
       </defs>
       <use xlink:href="#CMR17-32" transform="scale(0.996264)"/>
       <use xlink:href="#CMMI12-3a" transform="translate(45.690477 0) scale(0.996264)"/>
       <use xlink:href="#CMR17-35" transform="translate(72.787654 0) scale(0.996264)"/>
      </g>
     </g>
    </g>
    <g id="xtick_3">
     <g id="line2d_5">
      <path d="M 408.816044 372.562089 
L 408.816044 32.020693 
" clip-path="url(#pf5fe18ae7f)" style="fill: none; stroke: #b0b0b0; stroke-width: 0.8; stroke-linecap: square"/>
     </g>
     <g id="line2d_6">
      <g>
       <use xlink:href="#m649d727575" x="408.816044" y="372.562089" style="stroke: #000000; stroke-width: 0.8"/>
      </g>
     </g>
     <g id="text_3">
      <!-- $\mathdefault{5.0}$ -->
      <g transform="translate(396.968231 393.399086) scale(0.2 -0.2)">
       <use xlink:href="#CMR17-35" transform="scale(0.996264)"/>
       <use xlink:href="#CMMI12-3a" transform="translate(45.690477 0) scale(0.996264)"/>
       <use xlink:href="#CMR17-30" transform="translate(72.787654 0) scale(0.996264)"/>
      </g>
     </g>
    </g>
    <g id="xtick_4">
     <g id="line2d_7">
      <path d="M 537.609463 372.562089 
L 537.609463 32.020693 
" clip-path="url(#pf5fe18ae7f)" style="fill: none; stroke: #b0b0b0; stroke-width: 0.8; stroke-linecap: square"/>
     </g>
     <g id="line2d_8">
      <g>
       <use xlink:href="#m649d727575" x="537.609463" y="372.562089" style="stroke: #000000; stroke-width: 0.8"/>
      </g>
     </g>
     <g id="text_4">
      <!-- $\mathdefault{7.5}$ -->
      <g transform="translate(525.76165 393.399086) scale(0.2 -0.2)">
       <defs>
        <path id="CMR17-37" d="M 2886 3955 
L 2886 4096 
L 1382 4096 
C 634 4096 621 4166 595 4288 
L 480 4288 
L 294 3104 
L 410 3104 
C 429 3226 474 3552 550 3673 
C 589 3724 1062 3724 1171 3724 
L 2579 3724 
L 1869 2670 
C 1395 1961 1069 1003 1069 166 
C 1069 89 1069 -128 1299 -128 
C 1530 -128 1530 89 1530 172 
L 1530 466 
C 1530 1514 1709 2204 2003 2644 
L 2886 3955 
z
" transform="scale(0.015625)"/>
       </defs>
       <use xlink:href="#CMR17-37" transform="scale(0.996264)"/>
       <use xlink:href="#CMMI12-3a" transform="translate(45.690477 0) scale(0.996264)"/>
       <use xlink:href="#CMR17-35" transform="translate(72.787654 0) scale(0.996264)"/>
      </g>
     </g>
    </g>
    <g id="xtick_5">
     <g id="line2d_9">
      <path d="M 666.402882 372.562089 
L 666.402882 32.020693 
" clip-path="url(#pf5fe18ae7f)" style="fill: none; stroke: #b0b0b0; stroke-width: 0.8; stroke-linecap: square"/>
     </g>
     <g id="line2d_10">
      <g>
       <use xlink:href="#m649d727575" x="666.402882" y="372.562089" style="stroke: #000000; stroke-width: 0.8"/>
      </g>
     </g>
     <g id="text_5">
      <!-- $\mathdefault{10.0}$ -->
      <g transform="translate(649.986021 393.399086) scale(0.2 -0.2)">
       <defs>
        <path id="CMR17-31" d="M 1702 4083 
C 1702 4217 1696 4224 1606 4224 
C 1357 3927 979 3833 621 3820 
C 602 3820 570 3820 563 3808 
C 557 3795 557 3782 557 3648 
C 755 3648 1088 3686 1344 3839 
L 1344 467 
C 1344 243 1331 166 781 166 
L 589 166 
L 589 0 
C 896 6 1216 12 1523 12 
C 1830 12 2150 6 2458 0 
L 2458 166 
L 2266 166 
C 1715 166 1702 236 1702 467 
L 1702 4083 
z
" transform="scale(0.015625)"/>
       </defs>
       <use xlink:href="#CMR17-31" transform="scale(0.996264)"/>
       <use xlink:href="#CMR17-30" transform="translate(45.690477 0) scale(0.996264)"/>
       <use xlink:href="#CMMI12-3a" transform="translate(91.380954 0) scale(0.996264)"/>
       <use xlink:href="#CMR17-30" transform="translate(118.478131 0) scale(0.996264)"/>
      </g>
     </g>
    </g>
    <g id="xtick_6">
     <g id="line2d_11">
      <path d="M 795.196301 372.562089 
L 795.196301 32.020693 
" clip-path="url(#pf5fe18ae7f)" style="fill: none; stroke: #b0b0b0; stroke-width: 0.8; stroke-linecap: square"/>
     </g>
     <g id="line2d_12">
      <g>
       <use xlink:href="#m649d727575" x="795.196301" y="372.562089" style="stroke: #000000; stroke-width: 0.8"/>
      </g>
     </g>
     <g id="text_6">
      <!-- $\mathdefault{12.5}$ -->
      <g transform="translate(778.77944 393.399086) scale(0.2 -0.2)">
       <use xlink:href="#CMR17-31" transform="scale(0.996264)"/>
       <use xlink:href="#CMR17-32" transform="translate(45.690477 0) scale(0.996264)"/>
       <use xlink:href="#CMMI12-3a" transform="translate(91.380954 0) scale(0.996264)"/>
       <use xlink:href="#CMR17-35" transform="translate(118.478131 0) scale(0.996264)"/>
      </g>
     </g>
    </g>
    <g id="xtick_7">
     <g id="line2d_13">
      <path d="M 923.98972 372.562089 
L 923.98972 32.020693 
" clip-path="url(#pf5fe18ae7f)" style="fill: none; stroke: #b0b0b0; stroke-width: 0.8; stroke-linecap: square"/>
     </g>
     <g id="line2d_14">
      <g>
       <use xlink:href="#m649d727575" x="923.98972" y="372.562089" style="stroke: #000000; stroke-width: 0.8"/>
      </g>
     </g>
     <g id="text_7">
      <!-- $\mathdefault{15.0}$ -->
      <g transform="translate(907.572859 393.399086) scale(0.2 -0.2)">
       <use xlink:href="#CMR17-31" transform="scale(0.996264)"/>
       <use xlink:href="#CMR17-35" transform="translate(45.690477 0) scale(0.996264)"/>
       <use xlink:href="#CMMI12-3a" transform="translate(91.380954 0) scale(0.996264)"/>
       <use xlink:href="#CMR17-30" transform="translate(118.478131 0) scale(0.996264)"/>
      </g>
     </g>
    </g>
    <g id="xtick_8">
     <g id="line2d_15">
      <path d="M 1052.783139 372.562089 
L 1052.783139 32.020693 
" clip-path="url(#pf5fe18ae7f)" style="fill: none; stroke: #b0b0b0; stroke-width: 0.8; stroke-linecap: square"/>
     </g>
     <g id="line2d_16">
      <g>
       <use xlink:href="#m649d727575" x="1052.783139" y="372.562089" style="stroke: #000000; stroke-width: 0.8"/>
      </g>
     </g>
     <g id="text_8">
      <!-- $\mathdefault{17.5}$ -->
      <g transform="translate(1036.366278 393.399086) scale(0.2 -0.2)">
       <use xlink:href="#CMR17-31" transform="scale(0.996264)"/>
       <use xlink:href="#CMR17-37" transform="translate(45.690477 0) scale(0.996264)"/>
       <use xlink:href="#CMMI12-3a" transform="translate(91.380954 0) scale(0.996264)"/>
       <use xlink:href="#CMR17-35" transform="translate(118.478131 0) scale(0.996264)"/>
      </g>
     </g>
    </g>
    <g id="text_9">
     <!-- \boldmath$\mathbf{Time\ [ms]}$ -->
     <g transform="translate(532.183391 416.21868) scale(0.2 -0.2)">
      <defs>
       <path id="CMBX12-54" d="M 4608 4358 
L 390 4358 
L 262 2833 
L 531 2833 
C 589 3535 640 4083 1562 4083 
L 2080 4083 
L 2080 275 
L 1114 275 
L 1114 0 
C 1626 12 2285 12 2502 12 
C 2893 12 3379 12 3891 0 
L 3891 275 
L 2925 275 
L 2925 4083 
L 3437 4083 
C 4358 4083 4410 3542 4467 2833 
L 4736 2833 
L 4608 4358 
z
" transform="scale(0.015625)"/>
       <path id="CMBX12-69" d="M 1427 4019 
C 1427 4281 1216 4480 966 4480 
C 704 4480 506 4262 506 4019 
C 506 3775 704 3558 966 3558 
C 1216 3558 1427 3756 1427 4019 
z
M 301 2828 
L 301 2553 
C 678 2553 723 2553 723 2303 
L 723 275 
L 282 275 
L 282 0 
C 429 12 870 12 1043 12 
C 1222 12 1632 12 1786 0 
L 1786 275 
L 1389 275 
L 1389 2880 
L 301 2828 
z
" transform="scale(0.015625)"/>
       <path id="CMBX12-6d" d="M 5402 1958 
C 5402 2547 5152 2880 4435 2880 
C 3789 2880 3488 2444 3386 2240 
C 3283 2783 2848 2880 2438 2880 
C 1824 2880 1491 2483 1357 2176 
L 1350 2176 
L 1350 2880 
L 269 2828 
L 269 2553 
C 666 2553 710 2553 710 2304 
L 710 275 
L 269 275 
L 269 0 
C 416 12 877 12 1056 12 
C 1235 12 1702 12 1850 0 
L 1850 275 
L 1408 275 
L 1408 1638 
C 1408 2336 1926 2668 2330 2668 
C 2566 2668 2707 2528 2707 2028 
L 2707 275 
L 2266 275 
L 2266 0 
C 2413 12 2874 12 3053 12 
C 3232 12 3699 12 3846 0 
L 3846 275 
L 3405 275 
L 3405 1638 
C 3405 2336 3923 2668 4326 2668 
C 4563 2668 4704 2528 4704 2028 
L 4704 275 
L 4262 275 
L 4262 0 
C 4410 12 4870 12 5050 12 
C 5229 12 5696 12 5843 0 
L 5843 275 
L 5402 275 
L 5402 1958 
z
" transform="scale(0.015625)"/>
       <path id="CMBX12-65" d="M 2893 1408 
C 3040 1408 3078 1408 3078 1568 
C 3078 1758 3034 2232 2739 2529 
C 2470 2796 2112 2880 1741 2880 
C 742 2880 198 2232 198 1433 
C 198 523 858 -64 1824 -64 
C 2790 -64 3078 621 3078 731 
C 3078 829 2982 829 2944 829 
C 2842 829 2835 809 2797 725 
C 2630 302 2208 166 1901 166 
C 973 166 966 1043 966 1408 
L 2893 1408 
z
M 966 1593 
C 979 1852 986 2099 1120 2327 
C 1242 2529 1466 2668 1741 2668 
C 2426 2668 2483 1909 2490 1593 
L 966 1593 
z
" transform="scale(0.015625)"/>
       <path id="CMBX12-5b" d="M 1837 -1600 
L 1837 -1248 
L 1171 -1248 
L 1171 4447 
L 1837 4447 
L 1837 4800 
L 819 4800 
L 819 -1600 
L 1837 -1600 
z
" transform="scale(0.015625)"/>
       <path id="CMBX12-73" d="M 2413 2713 
C 2413 2835 2413 2880 2317 2880 
C 2278 2880 2266 2880 2170 2822 
C 2144 2803 2074 2758 2042 2739 
C 1862 2841 1626 2880 1395 2880 
C 1203 2880 243 2880 243 2046 
C 243 1372 1037 1231 1235 1199 
C 1408 1167 1619 1128 1645 1128 
C 1901 1071 2157 910 2157 641 
C 2157 147 1574 147 1440 147 
C 1114 147 710 249 531 872 
C 493 1000 486 1006 378 1006 
C 243 1006 243 987 243 840 
L 243 102 
C 243 -20 243 -64 339 -64 
C 384 -64 397 -64 525 38 
L 691 160 
C 979 -64 1325 -64 1440 -64 
C 1792 -64 2592 12 2592 865 
C 2592 1173 2426 1385 2298 1500 
C 2035 1719 1818 1757 1472 1821 
C 1062 1892 678 1962 678 2270 
C 678 2687 1248 2687 1382 2687 
C 2093 2687 2131 2238 2144 2078 
C 2150 1995 2202 1995 2278 1995 
C 2413 1995 2413 2014 2413 2161 
L 2413 2713 
z
" transform="scale(0.015625)"/>
       <path id="CMBX12-5d" d="M 1171 4800 
L 154 4800 
L 154 4447 
L 819 4447 
L 819 -1248 
L 154 -1248 
L 154 -1600 
L 1171 -1600 
L 1171 4800 
z
" transform="scale(0.015625)"/>
      </defs>
      <use xlink:href="#CMBX12-54" transform="scale(0.996264)"/>
      <use xlink:href="#CMBX12-69" transform="translate(77.94837 0) scale(0.996264)"/>
      <use xlink:href="#CMBX12-6d" transform="translate(109.081621 0) scale(0.996264)"/>
      <use xlink:href="#CMBX12-65" transform="translate(202.481372 0) scale(0.996264)"/>
      <use xlink:href="#CMBX12-5b" transform="translate(283.696605 0) scale(0.996264)"/>
      <use xlink:href="#CMBX12-6d" transform="translate(314.829856 0) scale(0.996264)"/>
      <use xlink:href="#CMBX12-73" transform="translate(408.229607 0) scale(0.996264)"/>
      <use xlink:href="#CMBX12-5d" transform="translate(452.438944 0) scale(0.996264)"/>
     </g>
    </g>
   </g>
   <g id="matplotlib.axis_2">
    <g id="ytick_1">
     <g id="line2d_17">
      <path d="M 108.298066 335.713584 
L 1052.783139 335.713584 
" clip-path="url(#pf5fe18ae7f)" style="fill: none; stroke: #b0b0b0; stroke-width: 0.8; stroke-linecap: square"/>
     </g>
     <g id="line2d_18">
      <defs>
       <path id="ma54eca867d" d="M 0 0 
L -3.5 0 
" style="stroke: #000000; stroke-width: 0.8"/>
      </defs>
      <g>
       <use xlink:href="#ma54eca867d" x="108.298066" y="335.713584" style="stroke: #000000; stroke-width: 0.8"/>
      </g>
     </g>
     <g id="text_10">
      <!-- $\mathdefault{−0.0002}$ -->
      <g transform="translate(34.690666 342.632083) scale(0.2 -0.2)">
       <defs>
        <path id="CMSY10-0" d="M 4218 1472 
C 4326 1472 4442 1472 4442 1600 
C 4442 1728 4326 1728 4218 1728 
L 755 1728 
C 646 1728 531 1728 531 1600 
C 531 1472 646 1472 755 1472 
L 4218 1472 
z
" transform="scale(0.015625)"/>
       </defs>
       <use xlink:href="#CMSY10-0" transform="scale(0.996264)"/>
       <use xlink:href="#CMR17-30" transform="translate(77.487468 0) scale(0.996264)"/>
       <use xlink:href="#CMMI12-3a" transform="translate(123.177945 0) scale(0.996264)"/>
       <use xlink:href="#CMR17-30" transform="translate(150.275122 0) scale(0.996264)"/>
       <use xlink:href="#CMR17-30" transform="translate(195.965599 0) scale(0.996264)"/>
       <use xlink:href="#CMR17-30" transform="translate(241.656076 0) scale(0.996264)"/>
       <use xlink:href="#CMR17-32" transform="translate(287.346553 0) scale(0.996264)"/>
      </g>
     </g>
    </g>
    <g id="ytick_2">
     <g id="line2d_19">
      <path d="M 108.298066 289.821019 
L 1052.783139 289.821019 
" clip-path="url(#pf5fe18ae7f)" style="fill: none; stroke: #b0b0b0; stroke-width: 0.8; stroke-linecap: square"/>
     </g>
     <g id="line2d_20">
      <g>
       <use xlink:href="#ma54eca867d" x="108.298066" y="289.821019" style="stroke: #000000; stroke-width: 0.8"/>
      </g>
     </g>
     <g id="text_11">
      <!-- $\mathdefault{0.0000}$ -->
      <g transform="translate(50.188153 296.739517) scale(0.2 -0.2)">
       <use xlink:href="#CMR17-30" transform="scale(0.996264)"/>
       <use xlink:href="#CMMI12-3a" transform="translate(45.690477 0) scale(0.996264)"/>
       <use xlink:href="#CMR17-30" transform="translate(72.787654 0) scale(0.996264)"/>
       <use xlink:href="#CMR17-30" transform="translate(118.478131 0) scale(0.996264)"/>
       <use xlink:href="#CMR17-30" transform="translate(164.168608 0) scale(0.996264)"/>
       <use xlink:href="#CMR17-30" transform="translate(209.859086 0) scale(0.996264)"/>
      </g>
     </g>
    </g>
    <g id="ytick_3">
     <g id="line2d_21">
      <path d="M 108.298066 243.928453 
L 1052.783139 243.928453 
" clip-path="url(#pf5fe18ae7f)" style="fill: none; stroke: #b0b0b0; stroke-width: 0.8; stroke-linecap: square"/>
     </g>
     <g id="line2d_22">
      <g>
       <use xlink:href="#ma54eca867d" x="108.298066" y="243.928453" style="stroke: #000000; stroke-width: 0.8"/>
      </g>
     </g>
     <g id="text_12">
      <!-- $\mathdefault{0.0002}$ -->
      <g transform="translate(50.188153 250.846952) scale(0.2 -0.2)">
       <use xlink:href="#CMR17-30" transform="scale(0.996264)"/>
       <use xlink:href="#CMMI12-3a" transform="translate(45.690477 0) scale(0.996264)"/>
       <use xlink:href="#CMR17-30" transform="translate(72.787654 0) scale(0.996264)"/>
       <use xlink:href="#CMR17-30" transform="translate(118.478131 0) scale(0.996264)"/>
       <use xlink:href="#CMR17-30" transform="translate(164.168608 0) scale(0.996264)"/>
       <use xlink:href="#CMR17-32" transform="translate(209.859086 0) scale(0.996264)"/>
      </g>
     </g>
    </g>
    <g id="ytick_4">
     <g id="line2d_23">
      <path d="M 108.298066 198.035888 
L 1052.783139 198.035888 
" clip-path="url(#pf5fe18ae7f)" style="fill: none; stroke: #b0b0b0; stroke-width: 0.8; stroke-linecap: square"/>
     </g>
     <g id="line2d_24">
      <g>
       <use xlink:href="#ma54eca867d" x="108.298066" y="198.035888" style="stroke: #000000; stroke-width: 0.8"/>
      </g>
     </g>
     <g id="text_13">
      <!-- $\mathdefault{0.0004}$ -->
      <g transform="translate(50.188153 204.954386) scale(0.2 -0.2)">
       <defs>
        <path id="CMR17-34" d="M 2150 4147 
C 2150 4281 2144 4288 2029 4288 
L 128 1254 
L 128 1088 
L 1779 1088 
L 1779 460 
C 1779 230 1766 166 1318 166 
L 1197 166 
L 1197 0 
C 1402 12 1747 12 1965 12 
C 2182 12 2528 12 2733 0 
L 2733 166 
L 2611 166 
C 2163 166 2150 230 2150 460 
L 2150 1088 
L 2803 1088 
L 2803 1254 
L 2150 1254 
L 2150 4147 
z
M 1798 3723 
L 1798 1254 
L 256 1254 
L 1798 3723 
z
" transform="scale(0.015625)"/>
       </defs>
       <use xlink:href="#CMR17-30" transform="scale(0.996264)"/>
       <use xlink:href="#CMMI12-3a" transform="translate(45.690477 0) scale(0.996264)"/>
       <use xlink:href="#CMR17-30" transform="translate(72.787654 0) scale(0.996264)"/>
       <use xlink:href="#CMR17-30" transform="translate(118.478131 0) scale(0.996264)"/>
       <use xlink:href="#CMR17-30" transform="translate(164.168608 0) scale(0.996264)"/>
       <use xlink:href="#CMR17-34" transform="translate(209.859086 0) scale(0.996264)"/>
      </g>
     </g>
    </g>
    <g id="ytick_5">
     <g id="line2d_25">
      <path d="M 108.298066 152.143322 
L 1052.783139 152.143322 
" clip-path="url(#pf5fe18ae7f)" style="fill: none; stroke: #b0b0b0; stroke-width: 0.8; stroke-linecap: square"/>
     </g>
     <g id="line2d_26">
      <g>
       <use xlink:href="#ma54eca867d" x="108.298066" y="152.143322" style="stroke: #000000; stroke-width: 0.8"/>
      </g>
     </g>
     <g id="text_14">
      <!-- $\mathdefault{0.0006}$ -->
      <g transform="translate(50.188153 159.061821) scale(0.2 -0.2)">
       <defs>
        <path id="CMR17-36" d="M 678 2198 
C 678 3712 1395 4076 1811 4076 
C 1946 4076 2272 4049 2400 3782 
C 2298 3782 2106 3782 2106 3558 
C 2106 3385 2246 3328 2336 3328 
C 2394 3328 2566 3353 2566 3571 
C 2566 3987 2246 4224 1805 4224 
C 1043 4224 243 3411 243 2011 
C 243 257 966 -128 1478 -128 
C 2099 -128 2688 431 2688 1295 
C 2688 2101 2170 2688 1517 2688 
C 1126 2688 838 2430 678 1979 
L 678 2198 
z
M 1478 25 
C 691 25 691 1212 691 1450 
C 691 1914 909 2585 1504 2585 
C 1613 2585 1926 2585 2138 2140 
C 2253 1889 2253 1624 2253 1302 
C 2253 954 2253 696 2118 438 
C 1978 173 1773 25 1478 25 
z
" transform="scale(0.015625)"/>
       </defs>
       <use xlink:href="#CMR17-30" transform="scale(0.996264)"/>
       <use xlink:href="#CMMI12-3a" transform="translate(45.690477 0) scale(0.996264)"/>
       <use xlink:href="#CMR17-30" transform="translate(72.787654 0) scale(0.996264)"/>
       <use xlink:href="#CMR17-30" transform="translate(118.478131 0) scale(0.996264)"/>
       <use xlink:href="#CMR17-30" transform="translate(164.168608 0) scale(0.996264)"/>
       <use xlink:href="#CMR17-36" transform="translate(209.859086 0) scale(0.996264)"/>
      </g>
     </g>
    </g>
    <g id="ytick_6">
     <g id="line2d_27">
      <path d="M 108.298066 106.250757 
L 1052.783139 106.250757 
" clip-path="url(#pf5fe18ae7f)" style="fill: none; stroke: #b0b0b0; stroke-width: 0.8; stroke-linecap: square"/>
     </g>
     <g id="line2d_28">
      <g>
       <use xlink:href="#ma54eca867d" x="108.298066" y="106.250757" style="stroke: #000000; stroke-width: 0.8"/>
      </g>
     </g>
     <g id="text_15">
      <!-- $\mathdefault{0.0008}$ -->
      <g transform="translate(50.188153 113.169255) scale(0.2 -0.2)">
       <defs>
        <path id="CMR17-38" d="M 1741 2289 
C 2144 2494 2554 2803 2554 3298 
C 2554 3884 1990 4224 1472 4224 
C 890 4224 378 3800 378 3215 
C 378 3054 416 2777 666 2533 
C 730 2469 998 2276 1171 2154 
C 883 2006 211 1652 211 945 
C 211 282 838 -128 1459 -128 
C 2144 -128 2720 366 2720 1022 
C 2720 1607 2330 1877 2074 2051 
L 1741 2289 
z
M 902 2855 
C 851 2887 595 3086 595 3388 
C 595 3781 998 4076 1459 4076 
C 1965 4076 2336 3716 2336 3298 
C 2336 2700 1670 2359 1638 2359 
C 1632 2359 1626 2359 1574 2398 
L 902 2855 
z
M 2080 1536 
C 2176 1466 2483 1253 2483 861 
C 2483 385 2010 25 1472 25 
C 890 25 448 443 448 951 
C 448 1459 838 1884 1280 2083 
L 2080 1536 
z
" transform="scale(0.015625)"/>
       </defs>
       <use xlink:href="#CMR17-30" transform="scale(0.996264)"/>
       <use xlink:href="#CMMI12-3a" transform="translate(45.690477 0) scale(0.996264)"/>
       <use xlink:href="#CMR17-30" transform="translate(72.787654 0) scale(0.996264)"/>
       <use xlink:href="#CMR17-30" transform="translate(118.478131 0) scale(0.996264)"/>
       <use xlink:href="#CMR17-30" transform="translate(164.168608 0) scale(0.996264)"/>
       <use xlink:href="#CMR17-38" transform="translate(209.859086 0) scale(0.996264)"/>
      </g>
     </g>
    </g>
    <g id="ytick_7">
     <g id="line2d_29">
      <path d="M 108.298066 60.358191 
L 1052.783139 60.358191 
" clip-path="url(#pf5fe18ae7f)" style="fill: none; stroke: #b0b0b0; stroke-width: 0.8; stroke-linecap: square"/>
     </g>
     <g id="line2d_30">
      <g>
       <use xlink:href="#ma54eca867d" x="108.298066" y="60.358191" style="stroke: #000000; stroke-width: 0.8"/>
      </g>
     </g>
     <g id="text_16">
      <!-- $\mathdefault{0.0010}$ -->
      <g transform="translate(50.188153 67.27669) scale(0.2 -0.2)">
       <use xlink:href="#CMR17-30" transform="scale(0.996264)"/>
       <use xlink:href="#CMMI12-3a" transform="translate(45.690477 0) scale(0.996264)"/>
       <use xlink:href="#CMR17-30" transform="translate(72.787654 0) scale(0.996264)"/>
       <use xlink:href="#CMR17-30" transform="translate(118.478131 0) scale(0.996264)"/>
       <use xlink:href="#CMR17-31" transform="translate(164.168608 0) scale(0.996264)"/>
       <use xlink:href="#CMR17-30" transform="translate(209.859086 0) scale(0.996264)"/>
      </g>
     </g>
    </g>
    <g id="text_17">
     <!-- $\mathbf{Magnetic\ Field\ [mG]}$ -->
     <g transform="translate(25.726022 301.520509) rotate(-90) scale(0.2 -0.2)">
      <defs>
       <path id="CMBX12-4d" d="M 3411 816 
L 1875 4281 
C 1818 4416 1760 4416 1626 4416 
L 262 4416 
L 262 4140 
L 941 4140 
L 941 468 
C 941 326 934 320 768 294 
C 653 281 525 275 410 275 
L 262 275 
L 262 0 
C 410 12 909 12 1088 12 
C 1267 12 1773 12 1920 0 
L 1920 275 
L 1773 275 
C 1600 275 1587 275 1434 294 
C 1248 320 1242 326 1242 468 
L 1242 4063 
L 1248 4063 
L 2989 134 
C 3021 64 3059 0 3168 0 
C 3277 0 3315 64 3347 134 
L 5120 4140 
L 5126 4140 
L 5126 275 
L 4448 275 
L 4448 0 
C 4621 12 5286 12 5504 12 
C 5722 12 6387 12 6560 0 
L 6560 275 
L 5882 275 
L 5882 4140 
L 6560 4140 
L 6560 4416 
L 5197 4416 
C 5062 4416 5005 4416 4947 4281 
L 3411 816 
z
" transform="scale(0.015625)"/>
       <path id="CMBX12-61" d="M 2944 1894 
C 2944 2483 2477 2880 1574 2880 
C 1216 2880 461 2847 461 2310 
C 461 2041 666 1926 838 1926 
C 1030 1926 1216 2060 1216 2303 
C 1216 2425 1171 2540 1062 2611 
C 1274 2668 1427 2668 1549 2668 
C 1984 2668 2246 2425 2246 1900 
L 2246 1644 
C 1235 1644 218 1362 218 648 
C 218 64 960 -64 1402 -64 
C 1894 -64 2208 205 2336 488 
C 2336 250 2336 -26 2982 -26 
L 3309 -26 
C 3443 -26 3494 -26 3494 115 
C 3494 250 3437 250 3347 250 
C 2944 256 2944 359 2944 507 
L 2944 1894 
z
M 2246 867 
C 2246 262 1709 147 1504 147 
C 1190 147 928 359 928 655 
C 928 1240 1619 1439 2246 1472 
L 2246 867 
z
" transform="scale(0.015625)"/>
       <path id="CMBX12-67" d="M 832 1177 
C 1139 1011 1498 1011 1594 1011 
C 2477 1011 2829 1506 2829 1958 
C 2829 2287 2643 2519 2566 2584 
C 2752 2687 2906 2713 3014 2726 
C 2995 2694 2976 2668 2976 2584 
C 2976 2448 3066 2326 3232 2326 
C 3398 2326 3488 2448 3488 2584 
C 3488 2739 3373 2944 3104 2944 
C 2829 2944 2566 2809 2432 2694 
C 2170 2847 1920 2905 1594 2905 
C 710 2905 358 2410 358 1958 
C 358 1758 422 1493 691 1274 
C 582 1151 467 926 467 693 
C 467 416 614 179 749 76 
C 595 38 198 -109 198 -474 
C 198 -852 614 -1280 1792 -1280 
C 2854 -1280 3392 -935 3392 -455 
C 3392 108 3021 294 2861 371 
C 2554 524 2144 524 1581 524 
C 1421 524 1139 524 1107 531 
C 832 576 755 823 755 946 
C 755 998 762 1094 832 1177 
z
M 1594 1216 
C 1037 1216 1037 1661 1037 1958 
C 1037 2255 1037 2700 1594 2700 
C 2150 2700 2150 2255 2150 1958 
C 2150 1661 2150 1216 1594 1216 
z
M 1952 -64 
C 2419 -64 2867 -148 2867 -480 
C 2867 -704 2643 -1076 1798 -1076 
C 954 -1076 723 -717 723 -474 
C 723 -64 1126 -64 1222 -64 
L 1952 -64 
z
" transform="scale(0.015625)"/>
       <path id="CMBX12-6e" d="M 3398 1958 
C 3398 2566 3136 2880 2432 2880 
C 1971 2880 1574 2656 1357 2176 
L 1350 2176 
L 1350 2880 
L 269 2828 
L 269 2553 
C 666 2553 710 2553 710 2304 
L 710 275 
L 269 275 
L 269 0 
C 416 12 877 12 1056 12 
C 1235 12 1702 12 1850 0 
L 1850 275 
L 1408 275 
L 1408 1638 
C 1408 2329 1920 2668 2330 2668 
C 2566 2668 2701 2515 2701 2028 
L 2701 275 
L 2259 275 
L 2259 0 
C 2406 12 2867 12 3046 12 
C 3226 12 3693 12 3840 0 
L 3840 275 
L 3398 275 
L 3398 1958 
z
" transform="scale(0.015625)"/>
       <path id="CMBX12-74" d="M 1350 2540 
L 2272 2540 
L 2272 2816 
L 1350 2816 
L 1350 4032 
L 1082 4032 
C 1075 3401 768 2771 134 2751 
L 134 2540 
L 653 2540 
L 653 761 
C 653 83 1178 -64 1638 -64 
C 2112 -64 2394 294 2394 768 
L 2394 1107 
L 2125 1107 
L 2125 774 
C 2125 352 1933 166 1734 166 
C 1350 166 1350 595 1350 742 
L 1350 2540 
z
" transform="scale(0.015625)"/>
       <path id="CMBX12-63" d="M 2995 724 
C 2995 801 2925 801 2861 801 
C 2758 801 2752 795 2720 718 
C 2675 596 2502 166 1914 166 
C 1011 166 1011 1141 1011 1430 
C 1011 1808 1018 2649 1856 2649 
C 1901 2649 2278 2636 2278 2604 
C 2278 2598 2272 2591 2259 2585 
C 2240 2566 2157 2469 2157 2309 
C 2157 2039 2374 1930 2534 1930 
C 2669 1930 2912 2014 2912 2315 
C 2912 2841 2176 2880 1830 2880 
C 691 2880 243 2136 243 1398 
C 243 525 851 -64 1792 -64 
C 2797 -64 2995 679 2995 724 
z
" transform="scale(0.015625)"/>
       <path id="CMBX12-46" d="M 4032 4383 
L 243 4383 
L 243 4108 
L 922 4108 
L 922 275 
L 243 275 
L 243 0 
C 429 12 1158 12 1395 12 
C 1734 12 2304 12 2618 0 
L 2618 275 
L 1766 275 
L 1766 2048 
L 2118 2048 
C 2733 2048 2784 1765 2784 1296 
L 3053 1296 
L 3053 3080 
L 2784 3080 
C 2784 2607 2733 2323 2118 2323 
L 1766 2323 
L 1766 4108 
L 2682 4108 
C 3699 4108 3859 3636 3949 2853 
L 4218 2853 
L 4032 4383 
z
" transform="scale(0.015625)"/>
       <path id="CMBX12-6c" d="M 1389 4480 
L 282 4428 
L 282 4153 
C 678 4153 723 4153 723 3901 
L 723 275 
L 282 275 
L 282 0 
C 429 12 883 12 1056 12 
C 1229 12 1683 12 1830 0 
L 1830 275 
L 1389 275 
L 1389 4480 
z
" transform="scale(0.015625)"/>
       <path id="CMBX12-64" d="M 2221 4428 
L 2221 4153 
C 2618 4153 2662 4153 2662 3896 
L 2662 2571 
C 2522 2694 2240 2880 1798 2880 
C 890 2880 243 2313 243 1408 
C 243 483 877 -64 1728 -64 
C 2080 -64 2381 57 2630 270 
L 2630 -64 
L 3770 -26 
L 3770 250 
C 3373 250 3328 250 3328 502 
L 3328 4480 
L 2221 4428 
z
M 2630 625 
C 2362 231 2035 147 1805 147 
C 1011 147 1011 968 1011 1395 
C 1011 1699 1011 2022 1152 2268 
C 1350 2630 1728 2668 1875 2668 
C 2138 2668 2419 2552 2630 2268 
L 2630 625 
z
" transform="scale(0.015625)"/>
       <path id="CMR17-5b" d="M 1504 -1600 
L 1504 -1376 
L 902 -1376 
L 902 4575 
L 1504 4575 
L 1504 4800 
L 678 4800 
L 678 -1600 
L 1504 -1600 
z
" transform="scale(0.015625)"/>
       <path id="CMBX12-47" d="M 4794 1472 
L 5293 1472 
L 5293 1747 
C 5139 1734 4454 1734 4250 1734 
C 3859 1734 3437 1734 3046 1747 
L 3046 1472 
L 3949 1472 
L 3949 825 
C 3949 692 3949 515 3693 356 
C 3565 274 3366 211 3098 211 
C 2733 211 2099 299 1702 762 
C 1453 1047 1299 1434 1299 2204 
C 1299 2866 1408 3317 1696 3657 
C 2106 4140 2746 4204 3053 4204 
C 3533 4204 4307 3934 4499 2802 
C 4512 2744 4570 2744 4646 2744 
C 4794 2744 4794 2757 4794 2911 
L 4794 4313 
C 4794 4460 4794 4480 4653 4480 
L 4173 4018 
C 3814 4326 3386 4480 2912 4480 
C 1382 4480 397 3548 397 2197 
C 397 882 1350 -64 2918 -64 
C 3347 -64 3853 32 4115 369 
C 4333 166 4698 12 4717 12 
C 4794 12 4794 76 4794 179 
L 4794 1472 
z
" transform="scale(0.015625)"/>
       <path id="CMR17-5d" d="M 915 4800 
L 90 4800 
L 90 4575 
L 691 4575 
L 691 -1376 
L 90 -1376 
L 90 -1600 
L 915 -1600 
L 915 4800 
z
" transform="scale(0.015625)"/>
      </defs>
      <use xlink:href="#CMBX12-4d" transform="scale(0.996264)"/>
      <use xlink:href="#CMBX12-61" transform="translate(106.314425 0) scale(0.996264)"/>
      <use xlink:href="#CMBX12-67" transform="translate(160.797613 0) scale(0.996264)"/>
      <use xlink:href="#CMBX12-6e" transform="translate(216.837464 0) scale(0.996264)"/>
      <use xlink:href="#CMBX12-65" transform="translate(279.103964 0) scale(0.996264)"/>
      <use xlink:href="#CMBX12-74" transform="translate(330.243232 0) scale(0.996264)"/>
      <use xlink:href="#CMBX12-69" transform="translate(373.829782 0) scale(0.996264)"/>
      <use xlink:href="#CMBX12-63" transform="translate(404.963032 0) scale(0.996264)"/>
      <use xlink:href="#CMBX12-46" transform="translate(484.852199 0) scale(0.996264)"/>
      <use xlink:href="#CMBX12-69" transform="translate(555.30562 0) scale(0.996264)"/>
      <use xlink:href="#CMBX12-65" transform="translate(586.43887 0) scale(0.996264)"/>
      <use xlink:href="#CMBX12-6c" transform="translate(637.578137 0) scale(0.996264)"/>
      <use xlink:href="#CMBX12-64" transform="translate(668.711387 0) scale(0.996264)"/>
      <use xlink:href="#CMR17-5b" transform="translate(761.053854 0) scale(0.996264)"/>
      <use xlink:href="#CMBX12-6d" transform="translate(785.924913 0) scale(0.996264)"/>
      <use xlink:href="#CMBX12-47" transform="translate(879.324664 0) scale(0.996264)"/>
      <use xlink:href="#CMR17-5d" transform="translate(967.420224 0) scale(0.996264)"/>
     </g>
    </g>
   </g>
   <g id="LineCollection_1">
    <path d="M 151.229205 300.146846 
L 151.229205 279.495192 
" clip-path="url(#pf5fe18ae7f)" style="fill: none; stroke: #0000ff; stroke-width: 1.5"/>
    <path d="M 178.926715 290.865343 
L 178.926715 270.213688 
" clip-path="url(#pf5fe18ae7f)" style="fill: none; stroke: #0000ff; stroke-width: 1.5"/>
    <path d="M 206.624224 259.107269 
L 206.624224 238.455615 
" clip-path="url(#pf5fe18ae7f)" style="fill: none; stroke: #0000ff; stroke-width: 1.5"/>
    <path d="M 234.321734 232.785668 
L 234.321734 212.134013 
" clip-path="url(#pf5fe18ae7f)" style="fill: none; stroke: #0000ff; stroke-width: 1.5"/>
    <path d="M 262.019243 216.695577 
L 262.019243 196.043923 
" clip-path="url(#pf5fe18ae7f)" style="fill: none; stroke: #0000ff; stroke-width: 1.5"/>
    <path d="M 289.716753 223.681534 
L 289.716753 203.02988 
" clip-path="url(#pf5fe18ae7f)" style="fill: none; stroke: #0000ff; stroke-width: 1.5"/>
    <path d="M 317.414262 184.863297 
L 317.414262 164.211642 
" clip-path="url(#pf5fe18ae7f)" style="fill: none; stroke: #0000ff; stroke-width: 1.5"/>
    <path d="M 345.111772 172.700418 
L 345.111772 152.048764 
" clip-path="url(#pf5fe18ae7f)" style="fill: none; stroke: #0000ff; stroke-width: 1.5"/>
    <path d="M 372.809281 174.66349 
L 372.809281 154.011835 
" clip-path="url(#pf5fe18ae7f)" style="fill: none; stroke: #0000ff; stroke-width: 1.5"/>
    <path d="M 400.506791 186.924299 
L 400.506791 166.272645 
" clip-path="url(#pf5fe18ae7f)" style="fill: none; stroke: #0000ff; stroke-width: 1.5"/>
    <path d="M 428.2043 185.062301 
L 428.2043 164.410646 
" clip-path="url(#pf5fe18ae7f)" style="fill: none; stroke: #0000ff; stroke-width: 1.5"/>
    <path d="M 455.90181 190.175455 
L 455.90181 169.523801 
" clip-path="url(#pf5fe18ae7f)" style="fill: none; stroke: #0000ff; stroke-width: 1.5"/>
    <path d="M 483.599319 204.071708 
L 483.599319 183.420054 
" clip-path="url(#pf5fe18ae7f)" style="fill: none; stroke: #0000ff; stroke-width: 1.5"/>
    <path d="M 511.296829 166.318715 
L 511.296829 145.66706 
" clip-path="url(#pf5fe18ae7f)" style="fill: none; stroke: #0000ff; stroke-width: 1.5"/>
    <path d="M 538.994338 156.324944 
L 538.994338 135.673289 
" clip-path="url(#pf5fe18ae7f)" style="fill: none; stroke: #0000ff; stroke-width: 1.5"/>
    <path d="M 566.691848 188.93099 
L 566.691848 168.279335 
" clip-path="url(#pf5fe18ae7f)" style="fill: none; stroke: #0000ff; stroke-width: 1.5"/>
    <path d="M 594.389357 179.063957 
L 594.389357 158.412303 
" clip-path="url(#pf5fe18ae7f)" style="fill: none; stroke: #0000ff; stroke-width: 1.5"/>
    <path d="M 622.086867 235.886408 
L 622.086867 215.234753 
" clip-path="url(#pf5fe18ae7f)" style="fill: none; stroke: #0000ff; stroke-width: 1.5"/>
    <path d="M 649.784376 232.256273 
L 649.784376 211.604619 
" clip-path="url(#pf5fe18ae7f)" style="fill: none; stroke: #0000ff; stroke-width: 1.5"/>
    <path d="M 677.481886 255.665312 
L 677.481886 235.013658 
" clip-path="url(#pf5fe18ae7f)" style="fill: none; stroke: #0000ff; stroke-width: 1.5"/>
    <path d="M 705.179395 280.447397 
L 705.179395 259.795743 
" clip-path="url(#pf5fe18ae7f)" style="fill: none; stroke: #0000ff; stroke-width: 1.5"/>
    <path d="M 732.876905 277.017385 
L 732.876905 256.365731 
" clip-path="url(#pf5fe18ae7f)" style="fill: none; stroke: #0000ff; stroke-width: 1.5"/>
    <path d="M 760.574414 291.264384 
L 760.574414 270.61273 
" clip-path="url(#pf5fe18ae7f)" style="fill: none; stroke: #0000ff; stroke-width: 1.5"/>
    <path d="M 788.271924 309.581008 
L 788.271924 288.929354 
" clip-path="url(#pf5fe18ae7f)" style="fill: none; stroke: #0000ff; stroke-width: 1.5"/>
    <path d="M 815.969433 302.709774 
L 815.969433 282.05812 
" clip-path="url(#pf5fe18ae7f)" style="fill: none; stroke: #0000ff; stroke-width: 1.5"/>
    <path d="M 843.666943 323.75852 
L 843.666943 303.106865 
" clip-path="url(#pf5fe18ae7f)" style="fill: none; stroke: #0000ff; stroke-width: 1.5"/>
    <path d="M 871.364452 289.488843 
L 871.364452 268.837189 
" clip-path="url(#pf5fe18ae7f)" style="fill: none; stroke: #0000ff; stroke-width: 1.5"/>
    <path d="M 899.061962 297.437053 
L 899.061962 276.785399 
" clip-path="url(#pf5fe18ae7f)" style="fill: none; stroke: #0000ff; stroke-width: 1.5"/>
    <path d="M 926.759471 288.543464 
L 926.759471 267.89181 
" clip-path="url(#pf5fe18ae7f)" style="fill: none; stroke: #0000ff; stroke-width: 1.5"/>
    <path d="M 954.45698 284.443359 
L 954.45698 263.791704 
" clip-path="url(#pf5fe18ae7f)" style="fill: none; stroke: #0000ff; stroke-width: 1.5"/>
    <path d="M 982.15449 316.39587 
L 982.15449 295.744216 
" clip-path="url(#pf5fe18ae7f)" style="fill: none; stroke: #0000ff; stroke-width: 1.5"/>
    <path d="M 1009.851999 295.178399 
L 1009.851999 274.526744 
" clip-path="url(#pf5fe18ae7f)" style="fill: none; stroke: #0000ff; stroke-width: 1.5"/>
    <path d="M 151.229205 310.728047 
L 151.229205 290.076392 
" clip-path="url(#pf5fe18ae7f)" style="fill: none; stroke: #0000ff; stroke-width: 1.5"/>
   </g>
   <g id="line2d_31">
    <path d="M 151.229205 248.978837 
L 159.902163 248.975111 
L 168.57512 248.592549 
L 177.248078 247.847606 
L 185.921035 246.769215 
L 194.593993 245.397741 
L 203.266951 243.78351 
L 211.939908 241.984991 
L 220.612866 240.066681 
L 229.285823 238.096777 
L 237.958781 236.144712 
L 246.631738 234.278657 
L 255.304696 232.563067 
L 263.977653 231.056358 
L 272.650611 229.808816 
L 281.323568 228.860793 
L 289.996526 228.241269 
L 298.669483 227.966827 
L 307.342441 228.041072 
L 316.015398 228.454533 
L 324.688356 229.185029 
L 333.361313 230.198498 
L 342.034271 231.450263 
L 350.707228 232.886677 
L 359.380186 234.447095 
L 368.053143 236.066103 
L 376.726101 237.675918 
L 385.399058 239.208873 
L 394.072016 240.599905 
L 402.744973 241.788941 
L 411.417931 242.723112 
L 420.090888 243.358701 
L 428.763846 243.662766 
L 437.436803 243.614368 
L 446.109761 243.20537 
L 454.782718 242.440769 
L 463.455676 241.338558 
L 472.128633 239.929108 
L 480.801591 238.254118 
L 489.474549 236.365136 
L 498.147506 234.321737 
L 506.820464 232.189405 
L 515.493421 230.037197 
L 524.166379 227.935281 
L 532.839336 225.952433 
L 541.512294 224.153575 
L 550.185251 222.59746 
L 558.858209 221.334574 
L 567.531166 220.40533 
L 576.204124 219.838632 
L 584.877081 219.650849 
L 593.550039 219.845241 
L 602.222996 220.411849 
L 610.895954 221.327877 
L 619.568911 222.558517 
L 628.241869 224.058216 
L 636.914826 225.772328 
L 645.587784 227.639093 
L 654.260741 229.59186 
L 662.933699 231.561504 
L 671.606656 233.478909 
L 680.279614 235.277463 
L 688.952571 236.895453 
L 697.625529 238.278282 
L 706.298486 239.380426 
L 714.971444 240.167066 
L 723.644401 240.615319 
L 732.317359 240.715048 
L 740.990316 240.469202 
L 749.663274 239.893684 
L 758.336232 239.016746 
L 767.009189 237.877941 
L 775.682147 236.526659 
L 784.355104 235.020309 
L 793.028062 233.422214 
L 801.701019 231.799278 
L 810.373977 230.219539 
L 819.046934 228.74967 
L 827.719892 227.452528 
L 836.392849 226.384846 
L 845.065807 225.595142 
L 853.738764 225.121923 
L 862.411722 224.992259 
L 871.084679 225.220759 
L 879.757637 225.809004 
L 888.430594 226.745452 
L 897.103552 228.005817 
L 905.776509 229.553904 
L 914.449467 231.342882 
L 923.122424 233.316941 
L 931.795382 235.413272 
L 940.468339 237.564302 
L 949.141297 239.700107 
L 957.814254 241.750901 
L 966.487212 243.649536 
L 975.160169 245.333896 
L 983.833127 246.749116 
L 992.506084 247.849542 
L 1001.179042 248.600362 
L 1009.851999 248.978837 
" clip-path="url(#pf5fe18ae7f)" style="fill: none; stroke-dasharray: 7.4,3.2; stroke-dashoffset: 0; stroke: #0000ff; stroke-width: 2"/>
   </g>
   <g id="line2d_32">
    <path d="M 151.229205 289.821019 
L 159.902163 89.578979 
L 168.57512 116.392615 
L 177.248078 328.726465 
L 185.921035 209.027978 
L 194.593993 119.463167 
L 203.266951 323.359535 
L 211.939908 276.324907 
L 220.612866 72.393682 
L 229.285823 206.442848 
L 237.958781 278.785955 
L 246.631738 73.093233 
L 255.304696 140.032378 
L 263.977653 333.879007 
L 272.650611 186.849171 
L 281.323568 132.469361 
L 289.996526 338.078836 
L 298.669483 251.727858 
L 307.342441 69.555307 
L 316.015398 228.080427 
L 324.688356 263.922691 
L 333.361313 60.280653 
L 342.034271 165.378918 
L 350.707228 334.394629 
L 359.380186 165.961382 
L 368.053143 149.058281 
L 376.726101 348.861192 
L 385.399058 225.846146 
L 394.072016 71.350061 
L 402.744973 248.017031 
L 411.417931 245.755694 
L 420.090888 51.634128 
L 428.763846 191.576885 
L 437.436803 330.322709 
L 446.109761 147.16835 
L 454.782718 168.640941 
L 463.455676 355.285139 
L 472.128633 199.553473 
L 480.801591 77.645419 
L 489.474549 265.484862 
L 498.147506 224.93315 
L 506.820464 47.499848 
L 515.493421 217.742076 
L 524.166379 321.877655 
L 532.839336 131.194933 
L 541.512294 190.51582 
L 550.185251 357.082935 
L 558.858209 173.736596 
L 567.531166 88.147099 
L 576.204124 279.808613 
L 584.877081 202.203564 
L 593.550039 48.064649 
L 602.222996 242.993145 
L 610.895954 309.430885 
L 619.568911 118.660726 
L 628.241869 213.894196 
L 636.914826 354.150377 
L 645.587784 149.263537 
L 654.260741 102.409977 
L 662.933699 290.430053 
L 671.606656 178.388734 
L 680.279614 53.349115 
L 688.952571 266.48319 
L 697.625529 293.497138 
L 706.298486 110.057499 
L 714.971444 237.928646 
L 723.644401 346.550728 
L 732.317359 126.952471 
L 740.990316 119.85443 
L 749.663274 296.928365 
L 758.336232 154.354035 
L 767.009189 63.206667 
L 775.682147 287.430106 
L 784.355104 274.715604 
L 793.028062 105.731265 
L 801.701019 261.743678 
L 810.373977 334.5126 
L 819.046934 107.542422 
L 827.719892 139.787548 
L 836.392849 299.035509 
L 845.065807 130.977135 
L 853.738764 77.328683 
L 862.411722 305.144575 
L 871.084679 253.826574 
L 879.757637 105.869636 
L 888.430594 284.467408 
L 897.103552 318.42188 
L 905.776509 91.666824 
L 914.449467 161.428429 
L 923.122424 296.646035 
L 931.795382 109.116231 
L 940.468339 95.255457 
L 949.141297 319.054714 
L 957.814254 231.644431 
L 966.487212 110.494911 
L 975.160169 305.263113 
L 983.833127 298.807979 
L 992.506084 79.8309 
L 1001.179042 183.936643 
L 1009.851999 289.821019 
" clip-path="url(#pf5fe18ae7f)" style="fill: none; stroke-dasharray: 7.4,3.2; stroke-dashoffset: 0; stroke: #008000; stroke-width: 2"/>
   </g>
   <g id="line2d_33">
    <defs>
     <path id="m8d756cb3fb" d="M 0 3.5 
C 0.928211 3.5 1.81853 3.131218 2.474874 2.474874 
C 3.131218 1.81853 3.5 0.928211 3.5 0 
C 3.5 -0.928211 3.131218 -1.81853 2.474874 -2.474874 
C 1.81853 -3.131218 0.928211 -3.5 0 -3.5 
C -0.928211 -3.5 -1.81853 -3.131218 -2.474874 -2.474874 
C -3.131218 -1.81853 -3.5 -0.928211 -3.5 0 
C -3.5 0.928211 -3.131218 1.81853 -2.474874 2.474874 
C -1.81853 3.131218 -0.928211 3.5 0 3.5 
z
" style="stroke: #0000ff"/>
    </defs>
    <g clip-path="url(#pf5fe18ae7f)">
     <use xlink:href="#m8d756cb3fb" x="151.229205" y="289.821019" style="fill: #0000ff; stroke: #0000ff"/>
     <use xlink:href="#m8d756cb3fb" x="178.926715" y="280.539515" style="fill: #0000ff; stroke: #0000ff"/>
     <use xlink:href="#m8d756cb3fb" x="206.624224" y="248.781442" style="fill: #0000ff; stroke: #0000ff"/>
     <use xlink:href="#m8d756cb3fb" x="234.321734" y="222.45984" style="fill: #0000ff; stroke: #0000ff"/>
     <use xlink:href="#m8d756cb3fb" x="262.019243" y="206.36975" style="fill: #0000ff; stroke: #0000ff"/>
     <use xlink:href="#m8d756cb3fb" x="289.716753" y="213.355707" style="fill: #0000ff; stroke: #0000ff"/>
     <use xlink:href="#m8d756cb3fb" x="317.414262" y="174.537469" style="fill: #0000ff; stroke: #0000ff"/>
     <use xlink:href="#m8d756cb3fb" x="345.111772" y="162.374591" style="fill: #0000ff; stroke: #0000ff"/>
     <use xlink:href="#m8d756cb3fb" x="372.809281" y="164.337662" style="fill: #0000ff; stroke: #0000ff"/>
     <use xlink:href="#m8d756cb3fb" x="400.506791" y="176.598472" style="fill: #0000ff; stroke: #0000ff"/>
     <use xlink:href="#m8d756cb3fb" x="428.2043" y="174.736474" style="fill: #0000ff; stroke: #0000ff"/>
     <use xlink:href="#m8d756cb3fb" x="455.90181" y="179.849628" style="fill: #0000ff; stroke: #0000ff"/>
     <use xlink:href="#m8d756cb3fb" x="483.599319" y="193.745881" style="fill: #0000ff; stroke: #0000ff"/>
     <use xlink:href="#m8d756cb3fb" x="511.296829" y="155.992887" style="fill: #0000ff; stroke: #0000ff"/>
     <use xlink:href="#m8d756cb3fb" x="538.994338" y="145.999116" style="fill: #0000ff; stroke: #0000ff"/>
     <use xlink:href="#m8d756cb3fb" x="566.691848" y="178.605163" style="fill: #0000ff; stroke: #0000ff"/>
     <use xlink:href="#m8d756cb3fb" x="594.389357" y="168.73813" style="fill: #0000ff; stroke: #0000ff"/>
     <use xlink:href="#m8d756cb3fb" x="622.086867" y="225.56058" style="fill: #0000ff; stroke: #0000ff"/>
     <use xlink:href="#m8d756cb3fb" x="649.784376" y="221.930446" style="fill: #0000ff; stroke: #0000ff"/>
     <use xlink:href="#m8d756cb3fb" x="677.481886" y="245.339485" style="fill: #0000ff; stroke: #0000ff"/>
     <use xlink:href="#m8d756cb3fb" x="705.179395" y="270.12157" style="fill: #0000ff; stroke: #0000ff"/>
     <use xlink:href="#m8d756cb3fb" x="732.876905" y="266.691558" style="fill: #0000ff; stroke: #0000ff"/>
     <use xlink:href="#m8d756cb3fb" x="760.574414" y="280.938557" style="fill: #0000ff; stroke: #0000ff"/>
     <use xlink:href="#m8d756cb3fb" x="788.271924" y="299.255181" style="fill: #0000ff; stroke: #0000ff"/>
     <use xlink:href="#m8d756cb3fb" x="815.969433" y="292.383947" style="fill: #0000ff; stroke: #0000ff"/>
     <use xlink:href="#m8d756cb3fb" x="843.666943" y="313.432692" style="fill: #0000ff; stroke: #0000ff"/>
     <use xlink:href="#m8d756cb3fb" x="871.364452" y="279.163016" style="fill: #0000ff; stroke: #0000ff"/>
     <use xlink:href="#m8d756cb3fb" x="899.061962" y="287.111226" style="fill: #0000ff; stroke: #0000ff"/>
     <use xlink:href="#m8d756cb3fb" x="926.759471" y="278.217637" style="fill: #0000ff; stroke: #0000ff"/>
     <use xlink:href="#m8d756cb3fb" x="954.45698" y="274.117531" style="fill: #0000ff; stroke: #0000ff"/>
     <use xlink:href="#m8d756cb3fb" x="982.15449" y="306.070043" style="fill: #0000ff; stroke: #0000ff"/>
     <use xlink:href="#m8d756cb3fb" x="1009.851999" y="284.852572" style="fill: #0000ff; stroke: #0000ff"/>
     <use xlink:href="#m8d756cb3fb" x="151.229205" y="300.402219" style="fill: #0000ff; stroke: #0000ff"/>
    </g>
   </g>
   <g id="patch_3">
    <path d="M 108.298066 372.562089 
L 108.298066 32.020693 
" style="fill: none; stroke: #000000; stroke-width: 0.8; stroke-linejoin: miter; stroke-linecap: square"/>
   </g>
   <g id="patch_4">
    <path d="M 1052.783139 372.562089 
L 1052.783139 32.020693 
" style="fill: none; stroke: #000000; stroke-width: 0.8; stroke-linejoin: miter; stroke-linecap: square"/>
   </g>
   <g id="patch_5">
    <path d="M 108.298066 372.562089 
L 1052.783139 372.562089 
" style="fill: none; stroke: #000000; stroke-width: 0.8; stroke-linejoin: miter; stroke-linecap: square"/>
   </g>
   <g id="patch_6">
    <path d="M 108.298066 32.020693 
L 1052.783139 32.020693 
" style="fill: none; stroke: #000000; stroke-width: 0.8; stroke-linejoin: miter; stroke-linecap: square"/>
   </g>
   <g id="text_18">
    <!-- \textbf{AC Line Signal} -->
    <g transform="translate(498.437608 26.020693) scale(0.22 -0.22)">
     <defs>
      <path id="CMBX12-41" d="M 2931 4333 
C 2886 4448 2874 4480 2720 4480 
C 2560 4480 2547 4448 2502 4333 
L 915 429 
C 870 326 870 313 691 294 
C 531 275 506 275 365 275 
L 250 275 
L 250 0 
C 416 12 800 12 986 12 
C 1158 12 1626 12 1773 0 
L 1773 275 
C 1632 275 1389 275 1210 346 
C 1229 404 1229 416 1242 442 
L 1581 1280 
L 3296 1280 
L 3699 275 
L 3098 275 
L 3098 0 
C 3302 12 3923 12 4166 12 
C 4371 12 5024 12 5184 0 
L 5184 275 
L 4576 275 
L 2931 4333 
z
M 2438 3394 
L 3181 1555 
L 1690 1555 
L 2438 3394 
z
" transform="scale(0.015625)"/>
      <path id="CMBX12-43" d="M 4794 4313 
C 4794 4460 4794 4480 4653 4480 
L 4173 4018 
C 3814 4326 3386 4480 2912 4480 
C 1382 4480 397 3548 397 2210 
C 397 896 1350 -64 2918 -64 
C 4058 -64 4794 722 4794 1484 
C 4794 1593 4755 1600 4659 1600 
C 4595 1600 4531 1600 4525 1529 
C 4467 547 3642 211 3066 211 
C 2650 211 2086 327 1728 734 
C 1504 980 1299 1336 1299 2210 
C 1299 2828 1395 3297 1696 3658 
C 2106 4140 2746 4204 3053 4204 
C 3533 4204 4307 3934 4499 2803 
C 4512 2745 4570 2745 4646 2745 
C 4794 2745 4794 2758 4794 2912 
L 4794 4313 
z
" transform="scale(0.015625)"/>
      <path id="CMBX12-4c" d="M 4019 1737 
L 3750 1737 
C 3706 1293 3603 275 2451 275 
L 1766 275 
L 1766 4140 
L 2618 4140 
L 2618 4416 
C 2304 4403 1734 4403 1395 4403 
C 1158 4403 429 4403 243 4416 
L 243 4140 
L 922 4140 
L 922 275 
L 243 275 
L 243 0 
L 3834 0 
L 4019 1737 
z
" transform="scale(0.015625)"/>
      <path id="CMBX12-53" d="M 1626 2828 
C 992 2969 973 3430 973 3520 
C 973 3846 1184 4223 1805 4223 
C 2426 4223 2982 3923 3117 3084 
C 3136 2950 3136 2944 3258 2944 
C 3392 2944 3392 2963 3392 3110 
L 3392 4313 
C 3392 4435 3392 4480 3296 4480 
C 3251 4480 3232 4473 3174 4409 
L 2899 4096 
C 2739 4230 2419 4480 1798 4480 
C 883 4480 397 3904 397 3206 
C 397 2777 627 2476 717 2387 
C 1050 2054 1229 2016 1894 1868 
C 2534 1728 2611 1715 2752 1580 
C 2835 1497 3021 1318 3021 992 
C 3021 716 2886 211 2170 211 
C 1606 211 717 403 666 1337 
C 659 1452 659 1472 531 1472 
C 397 1472 397 1452 397 1305 
L 397 102 
C 397 -20 397 -64 493 -64 
C 538 -64 544 -58 608 0 
C 678 70 736 153 896 313 
C 1267 19 1792 -64 2176 -64 
C 3174 -64 3597 614 3597 1292 
C 3597 1894 3200 2470 2502 2630 
L 1626 2828 
z
" transform="scale(0.015625)"/>
     </defs>
     <use xlink:href="#CMBX12-41" transform="scale(0.996264)"/>
     <use xlink:href="#CMBX12-43" transform="translate(81.52307 0) scale(0.996264)"/>
     <use xlink:href="#CMBX12-4c" transform="translate(199.829421 0) scale(0.996264)"/>
     <use xlink:href="#CMBX12-69" transform="translate(267.169516 0) scale(0.996264)"/>
     <use xlink:href="#CMBX12-6e" transform="translate(298.302767 0) scale(0.996264)"/>
     <use xlink:href="#CMBX12-65" transform="translate(360.569267 0) scale(0.996264)"/>
     <use xlink:href="#CMBX12-53" transform="translate(449.068435 0) scale(0.996264)"/>
     <use xlink:href="#CMBX12-69" transform="translate(511.334935 0) scale(0.996264)"/>
     <use xlink:href="#CMBX12-67" transform="translate(542.468186 0) scale(0.996264)"/>
     <use xlink:href="#CMBX12-6e" transform="translate(598.508036 0) scale(0.996264)"/>
     <use xlink:href="#CMBX12-61" transform="translate(660.774537 0) scale(0.996264)"/>
     <use xlink:href="#CMBX12-6c" transform="translate(715.257725 0) scale(0.996264)"/>
    </g>
   </g>
   <g id="legend_1">
    <g id="patch_7">
     <path d="M 576.489854 73.353446 
L 1040.183139 73.353446 
Q 1043.783139 73.353446 1043.783139 69.753446 
L 1043.783139 44.620693 
Q 1043.783139 41.020693 1040.183139 41.020693 
L 576.489854 41.020693 
Q 572.889854 41.020693 572.889854 44.620693 
L 572.889854 69.753446 
Q 572.889854 73.353446 576.489854 73.353446 
z
" style="fill: #ffffff; opacity: 0.35; stroke: #cccccc; stroke-linejoin: miter"/>
    </g>
    <g id="line2d_34">
     <path d="M 580.089854 55.370258 
L 598.089854 55.370258 
L 616.089854 55.370258 
" style="fill: none; stroke-dasharray: 7.4,3.2; stroke-dashoffset: 0; stroke: #0000ff; stroke-width: 2"/>
     <defs>
      <path id="ma01c2106d2" d="M 0 4 
C 1.060812 4 2.078319 3.578535 2.828427 2.828427 
C 3.578535 2.078319 4 1.060812 4 0 
C 4 -1.060812 3.578535 -2.078319 2.828427 -2.828427 
C 2.078319 -3.578535 1.060812 -4 0 -4 
C -1.060812 -4 -2.078319 -3.578535 -2.828427 -2.828427 
C -3.578535 -2.078319 -4 -1.060812 -4 0 
C -4 1.060812 -3.578535 2.078319 -2.828427 2.828427 
C -2.078319 3.578535 -1.060812 4 0 4 
z
" style="stroke: #0000ff"/>
     </defs>
     <g>
      <use xlink:href="#ma01c2106d2" x="598.089854" y="55.370258" style="fill: #0000ff; stroke: #0000ff"/>
     </g>
    </g>
    <g id="text_19">
     <!-- \boldmath$\mathbf{Permanent\ Magnets\ (new)}:\ A_{180\mathbf{Hz}} = 0.09 \mathbf{mG}$ -->
     <g transform="translate(630.489854 61.670258) scale(0.18 -0.18)">
      <defs>
       <path id="CMBX12-50" d="M 1766 1984 
L 2854 1984 
C 3923 1984 4518 2527 4518 3184 
C 4518 3872 3910 4416 2854 4416 
L 243 4416 
L 243 4140 
L 922 4140 
L 922 275 
L 243 275 
L 243 0 
C 429 12 1114 12 1344 12 
C 1574 12 2259 12 2445 0 
L 2445 275 
L 1766 275 
L 1766 1984 
z
M 2624 4140 
C 3616 4140 3616 3617 3616 3184 
C 3616 2763 3616 2227 2624 2227 
L 1734 2227 
L 1734 4140 
L 2624 4140 
z
" transform="scale(0.015625)"/>
       <path id="CMBX12-72" d="M 1331 1440 
C 1331 1651 1376 2668 2125 2668 
C 2035 2598 1990 2489 1990 2374 
C 1990 2112 2202 2003 2362 2003 
C 2522 2003 2733 2112 2733 2374 
C 2733 2700 2400 2880 2093 2880 
C 1587 2880 1370 2438 1280 2169 
L 1274 2169 
L 1274 2880 
L 224 2828 
L 224 2553 
C 621 2553 666 2553 666 2304 
L 666 275 
L 224 275 
L 224 0 
C 371 12 851 12 1030 12 
C 1216 12 1734 12 1888 0 
L 1888 275 
L 1331 275 
L 1331 1440 
z
" transform="scale(0.015625)"/>
       <path id="CMBX12-28" d="M 2394 -1530 
C 2394 -1505 2394 -1492 2272 -1376 
C 1555 -660 1280 467 1280 1593 
C 1280 2854 1594 3891 2310 4614 
C 2387 4691 2394 4697 2394 4723 
C 2394 4800 2317 4800 2285 4800 
C 2227 4800 2214 4800 2048 4665 
C 1126 3929 691 2752 691 1600 
C 691 422 1133 -724 2042 -1466 
C 2208 -1607 2221 -1607 2285 -1607 
C 2317 -1607 2394 -1607 2394 -1530 
z
" transform="scale(0.015625)"/>
       <path id="CMBX12-77" d="M 4608 2386 
C 4653 2496 4672 2540 5043 2540 
L 5043 2816 
C 4858 2803 4774 2803 4544 2803 
C 4282 2803 4198 2803 3968 2816 
L 3968 2540 
C 4026 2540 4339 2540 4339 2457 
C 4339 2451 4339 2444 4314 2380 
L 3642 712 
L 2906 2540 
L 3270 2540 
L 3270 2816 
C 3117 2803 2739 2803 2566 2803 
C 2240 2803 2227 2803 1907 2816 
L 1907 2540 
L 2285 2540 
C 2304 2489 2336 2406 2362 2348 
C 2381 2309 2445 2155 2445 2123 
C 2445 2111 2426 2066 2419 2046 
L 1933 834 
L 1242 2540 
L 1606 2540 
L 1606 2816 
C 1459 2803 1024 2803 851 2803 
C 646 2803 339 2803 147 2816 
L 147 2540 
L 525 2540 
L 1504 96 
C 1549 -20 1574 -64 1715 -64 
C 1786 -64 1862 -64 1914 64 
L 2592 1764 
L 3270 76 
C 3328 -64 3398 -64 3475 -64 
C 3616 -64 3635 -26 3680 89 
L 4608 2386 
z
" transform="scale(0.015625)"/>
       <path id="CMBX12-29" d="M 2099 1593 
C 2099 2771 1658 3917 749 4659 
C 582 4800 570 4800 506 4800 
C 474 4800 397 4800 397 4723 
C 397 4697 397 4684 518 4569 
C 1235 3853 1510 2726 1510 1600 
C 1510 339 1197 -698 480 -1421 
C 403 -1498 397 -1505 397 -1530 
C 397 -1607 474 -1607 506 -1607 
C 563 -1607 576 -1607 742 -1472 
C 1664 -736 2099 441 2099 1593 
z
" transform="scale(0.015625)"/>
       <path id="CMBX12-3a" d="M 1459 2355 
C 1459 2617 1248 2816 998 2816 
C 749 2816 538 2617 538 2355 
C 538 2092 749 1894 998 1894 
C 1248 1894 1459 2092 1459 2355 
z
M 1459 460 
C 1459 723 1248 921 998 921 
C 749 921 538 723 538 460 
C 538 198 749 0 998 0 
C 1248 0 1459 198 1459 460 
z
" transform="scale(0.015625)"/>
       <path id="CMMIB10-41" d="M 4128 4358 
C 4102 4518 4070 4544 3910 4544 
C 3770 4544 3718 4518 3629 4384 
L 1114 547 
C 1037 424 960 307 493 300 
C 403 300 288 300 288 115 
C 288 64 333 0 410 0 
C 602 0 819 19 1018 19 
C 1254 19 1498 0 1728 0 
C 1773 0 1901 0 1901 185 
C 1901 300 1786 300 1734 300 
C 1683 300 1504 300 1363 372 
L 1952 1280 
L 3680 1280 
L 3827 333 
C 3706 307 3507 300 3411 300 
C 3283 300 3174 300 3174 115 
C 3174 32 3245 0 3315 0 
C 3526 0 4058 19 4269 19 
C 4416 19 4563 12 4710 12 
C 4858 12 5011 0 5158 0 
C 5216 0 5338 0 5338 185 
C 5338 300 5242 300 5082 300 
C 4992 300 4922 300 4832 307 
C 4755 313 4749 320 4730 430 
L 4128 4358 
z
M 3354 3411 
L 3635 1580 
L 2150 1580 
L 3354 3411 
z
" transform="scale(0.015625)"/>
       <path id="CMBX12-31" d="M 2214 4034 
C 2214 4224 2202 4224 1997 4224 
C 1523 3795 813 3795 672 3795 
L 550 3795 
L 550 3520 
L 672 3520 
C 896 3520 1235 3558 1491 3641 
L 1491 275 
L 602 275 
L 602 0 
C 870 12 1542 12 1843 12 
C 2144 12 2822 12 3091 0 
L 3091 275 
L 2214 275 
L 2214 4034 
z
" transform="scale(0.015625)"/>
       <path id="CMBX12-38" d="M 2413 2375 
C 2733 2542 3091 2780 3091 3280 
C 3091 3942 2502 4224 1805 4224 
C 954 4224 499 3736 499 3113 
C 499 2767 672 2381 1146 2131 
C 422 1810 301 1367 301 1033 
C 301 294 941 -64 1786 -64 
C 2733 -64 3290 448 3290 1193 
C 3290 1893 2739 2195 2413 2375 
z
M 1261 3036 
C 1133 3107 954 3255 954 3467 
C 954 3980 1638 3993 1786 3993 
C 2330 3993 2637 3704 2637 3280 
C 2637 3017 2522 2741 2157 2529 
L 1261 3036 
z
M 1408 1977 
L 2291 1469 
C 2502 1347 2778 1193 2778 866 
C 2778 352 2266 192 1805 192 
C 1171 192 813 532 813 1039 
C 813 1508 1101 1803 1408 1977 
z
" transform="scale(0.015625)"/>
       <path id="CMBX12-30" d="M 3309 2060 
C 3309 2677 3309 4224 1798 4224 
C 282 4224 282 2683 282 2060 
C 282 1444 282 -64 1792 -64 
C 3302 -64 3309 1424 3309 2060 
z
M 1798 147 
C 1594 147 1440 230 1312 365 
C 1152 526 1050 628 1050 2137 
C 1050 2587 1050 2998 1101 3331 
C 1190 3967 1651 4012 1792 4012 
C 1997 4012 2394 3916 2483 3376 
C 2541 3049 2541 2529 2541 2137 
C 2541 622 2445 532 2253 339 
C 2125 211 1952 147 1798 147 
z
" transform="scale(0.015625)"/>
       <path id="CMBX12-48" d="M 4704 4140 
L 5382 4140 
L 5382 4416 
C 5197 4403 4512 4403 4282 4403 
C 4051 4403 3366 4403 3181 4416 
L 3181 4140 
L 3859 4140 
L 3859 2432 
L 1766 2432 
L 1766 4140 
L 2445 4140 
L 2445 4416 
C 2259 4403 1574 4403 1344 4403 
C 1114 4403 429 4403 243 4416 
L 243 4140 
L 922 4140 
L 922 275 
L 243 275 
L 243 0 
C 429 12 1114 12 1344 12 
C 1574 12 2259 12 2445 0 
L 2445 275 
L 1766 275 
L 1766 2156 
L 3859 2156 
L 3859 275 
L 3181 275 
L 3181 0 
C 3366 12 4051 12 4282 12 
C 4512 12 5197 12 5382 0 
L 5382 275 
L 4704 275 
L 4704 4140 
z
" transform="scale(0.015625)"/>
       <path id="CMBX12-7a" d="M 2816 2573 
C 2874 2643 2874 2655 2874 2694 
C 2874 2816 2810 2816 2688 2816 
L 371 2816 
L 301 1724 
L 570 1724 
C 608 2326 749 2604 1459 2604 
L 2035 2604 
L 256 255 
C 198 185 198 172 198 128 
C 198 0 256 0 384 0 
L 2784 0 
L 2893 1256 
L 2624 1256 
C 2573 585 2432 230 1626 230 
L 1043 230 
L 2816 2573 
z
" transform="scale(0.015625)"/>
       <path id="CMBX12-3d" d="M 4934 2112 
C 5030 2112 5197 2112 5197 2291 
C 5197 2464 5024 2464 4941 2464 
L 653 2464 
C 570 2464 397 2464 397 2291 
C 397 2112 563 2112 659 2112 
L 4934 2112 
z
M 4941 735 
C 5024 735 5197 735 5197 908 
C 5197 1088 5030 1088 4934 1088 
L 659 1088 
C 563 1088 397 1088 397 908 
C 397 735 570 735 653 735 
L 4941 735 
z
" transform="scale(0.015625)"/>
       <path id="CMMIB10-3a" d="M 1517 499 
C 1517 774 1293 998 1018 998 
C 742 998 518 774 518 499 
C 518 224 742 0 1018 0 
C 1293 0 1517 224 1517 499 
z
" transform="scale(0.015625)"/>
       <path id="CMBX12-39" d="M 2477 1818 
C 2477 1366 2477 192 1478 192 
C 1280 192 1050 238 915 332 
C 1101 371 1235 505 1235 710 
C 1235 940 1062 1088 858 1088 
C 691 1088 480 979 480 697 
C 480 256 832 -64 1491 -64 
C 2304 -64 3290 454 3290 2120 
C 3290 2552 3290 4224 1811 4224 
C 928 4224 301 3710 301 2828 
C 301 1934 915 1452 1683 1452 
C 1952 1452 2272 1548 2477 2005 
L 2477 1818 
z
M 1747 1664 
C 1114 1664 1114 2185 1114 2815 
C 1114 3433 1114 3993 1811 3993 
C 2221 3993 2368 3626 2394 3556 
C 2458 3362 2470 2963 2470 2751 
C 2470 2301 2285 1664 1747 1664 
z
" transform="scale(0.015625)"/>
      </defs>
      <use xlink:href="#CMBX12-50" transform="scale(0.996264)"/>
      <use xlink:href="#CMBX12-65" transform="translate(73.451486 0) scale(0.996264)"/>
      <use xlink:href="#CMBX12-72" transform="translate(124.590753 0) scale(0.996264)"/>
      <use xlink:href="#CMBX12-6d" transform="translate(170.36826 0) scale(0.996264)"/>
      <use xlink:href="#CMBX12-61" transform="translate(263.768011 0) scale(0.996264)"/>
      <use xlink:href="#CMBX12-6e" transform="translate(318.251199 0) scale(0.996264)"/>
      <use xlink:href="#CMBX12-65" transform="translate(380.5177 0) scale(0.996264)"/>
      <use xlink:href="#CMBX12-6e" transform="translate(431.656967 0) scale(0.996264)"/>
      <use xlink:href="#CMBX12-74" transform="translate(490.810143 0) scale(0.996264)"/>
      <use xlink:href="#CMBX12-4d" transform="translate(564.472659 0) scale(0.996264)"/>
      <use xlink:href="#CMBX12-61" transform="translate(670.787084 0) scale(0.996264)"/>
      <use xlink:href="#CMBX12-67" transform="translate(725.270272 0) scale(0.996264)"/>
      <use xlink:href="#CMBX12-6e" transform="translate(781.310123 0) scale(0.996264)"/>
      <use xlink:href="#CMBX12-65" transform="translate(843.576624 0) scale(0.996264)"/>
      <use xlink:href="#CMBX12-74" transform="translate(894.715891 0) scale(0.996264)"/>
      <use xlink:href="#CMBX12-73" transform="translate(938.302441 0) scale(0.996264)"/>
      <use xlink:href="#CMBX12-28" transform="translate(1012.587745 0) scale(0.996264)"/>
      <use xlink:href="#CMBX12-6e" transform="translate(1056.174295 0) scale(0.996264)"/>
      <use xlink:href="#CMBX12-65" transform="translate(1118.440796 0) scale(0.996264)"/>
      <use xlink:href="#CMBX12-77" transform="translate(1169.580063 0) scale(0.996264)"/>
      <use xlink:href="#CMBX12-29" transform="translate(1252.083176 0) scale(0.996264)"/>
      <use xlink:href="#CMBX12-3a" transform="translate(1327.494658 0) scale(0.996264)"/>
      <use xlink:href="#CMMIB10-41" transform="translate(1420.528806 0) scale(0.996264)"/>
      <use xlink:href="#CMBX12-31" transform="translate(1507.147984 -14.943915) scale(0.697382)"/>
      <use xlink:href="#CMBX12-38" transform="translate(1546.375697 -14.943915) scale(0.697382)"/>
      <use xlink:href="#CMBX12-30" transform="translate(1585.60341 -14.943915) scale(0.697382)"/>
      <use xlink:href="#CMBX12-48" transform="translate(1624.831123 -14.943915) scale(0.697382)"/>
      <use xlink:href="#CMBX12-7a" transform="translate(1686.174982 -14.943915) scale(0.697382)"/>
      <use xlink:href="#CMBX12-3d" transform="translate(1753.367134 0) scale(0.996264)"/>
      <use xlink:href="#CMBX12-30" transform="translate(1872.365166 0) scale(0.996264)"/>
      <use xlink:href="#CMMIB10-3a" transform="translate(1928.405017 0) scale(0.996264)"/>
      <use xlink:href="#CMBX12-30" transform="translate(1960.229948 0) scale(0.996264)"/>
      <use xlink:href="#CMBX12-39" transform="translate(2016.269799 0) scale(0.996264)"/>
      <use xlink:href="#CMBX12-6d" transform="translate(2072.309649 0) scale(0.996264)"/>
      <use xlink:href="#CMBX12-47" transform="translate(2165.7094 0) scale(0.996264)"/>
     </g>
    </g>
   </g>
  </g>
 </g>
 <defs>
  <clipPath id="pf5fe18ae7f">
   <rect x="108.298066" y="32.020693" width="944.485073" height="340.541396"/>
  </clipPath>
 </defs>
</svg>
