<?xml version="1.0" encoding="utf-8" standalone="no"?>
<!DOCTYPE svg PUBLIC "-//W3C//DTD SVG 1.1//EN"
  "http://www.w3.org/Graphics/SVG/1.1/DTD/svg11.dtd">
<svg xmlns:xlink="http://www.w3.org/1999/xlink" width="1080pt" height="432pt" viewBox="0 0 1080 432" xmlns="http://www.w3.org/2000/svg" version="1.1">
 <metadata>
  <rdf:RDF xmlns:dc="http://purl.org/dc/elements/1.1/" xmlns:cc="http://creativecommons.org/ns#" xmlns:rdf="http://www.w3.org/1999/02/22-rdf-syntax-ns#">
   <cc:Work>
    <dc:type rdf:resource="http://purl.org/dc/dcmitype/StillImage"/>
    <dc:date>2025-11-21T17:41:32.339368</dc:date>
    <dc:format>image/svg+xml</dc:format>
    <dc:creator>
     <cc:Agent>
      <dc:title>Matplotlib v3.10.0, https://matplotlib.org/</dc:title>
     </cc:Agent>
    </dc:creator>
   </cc:Work>
  </rdf:RDF>
 </metadata>
 <defs>
  <style type="text/css">*{stroke-linejoin: round; stroke-linecap: butt}</style>
 </defs>
 <g id="figure_1">
  <g id="patch_1">
   <path d="M 0 432 
L 1080 432 
L 1080 0 
L 0 0 
z
" style="fill: #ffffff"/>
  </g>
  <g id="axes_1">
   <g id="patch_2">
    <path d="M 135 384.48 
L 972 384.48 
L 972 51.84 
L 135 51.84 
z
" style="fill: #ffffff"/>
   </g>
   <g id="matplotlib.axis_1">
    <g id="xtick_1">
     <g id="line2d_1">
      <path d="M 173.045455 384.48 
L 173.045455 51.84 
" clip-path="url(#p177f0b9dc0)" style="fill: none; stroke: #b0b0b0; stroke-width: 0.8; stroke-linecap: square"/>
     </g>
     <g id="line2d_2">
      <defs>
       <path id="m58e5aa167e" d="M 0 0 
L 0 3.5 
" style="stroke: #000000; stroke-width: 0.8"/>
      </defs>
      <g>
       <use xlink:href="#m58e5aa167e" x="173.045455" y="384.48" style="stroke: #000000; stroke-width: 0.8"/>
      </g>
     </g>
     <g id="text_1">
      <!-- $\mathdefault{0.0}$ -->
      <g transform="translate(161.197641 405.316997) scale(0.2 -0.2)">
       <defs>
        <path id="CMR17-30" d="M 2688 2038 
C 2688 2430 2682 3099 2413 3613 
C 2176 4063 1798 4224 1466 4224 
C 1158 4224 768 4082 525 3620 
C 269 3137 243 2539 243 2038 
C 243 1671 250 1112 448 623 
C 723 -39 1216 -128 1466 -128 
C 1760 -128 2208 -7 2470 604 
C 2662 1048 2688 1568 2688 2038 
z
M 1466 -26 
C 1056 -26 813 328 723 816 
C 653 1196 653 1749 653 2109 
C 653 2604 653 3015 736 3407 
C 858 3954 1216 4121 1466 4121 
C 1728 4121 2067 3947 2189 3420 
C 2272 3054 2278 2623 2278 2109 
C 2278 1691 2278 1176 2202 797 
C 2067 96 1690 -26 1466 -26 
z
" transform="scale(0.015625)"/>
        <path id="CMMI12-3a" d="M 1178 307 
C 1178 492 1024 620 870 620 
C 685 620 557 467 557 313 
C 557 128 710 0 864 0 
C 1050 0 1178 153 1178 307 
z
" transform="scale(0.015625)"/>
       </defs>
       <use xlink:href="#CMR17-30" transform="scale(0.996264)"/>
       <use xlink:href="#CMMI12-3a" transform="translate(45.690477 0) scale(0.996264)"/>
       <use xlink:href="#CMR17-30" transform="translate(72.787654 0) scale(0.996264)"/>
      </g>
     </g>
    </g>
    <g id="xtick_2">
     <g id="line2d_3">
      <path d="M 287.181818 384.48 
L 287.181818 51.84 
" clip-path="url(#p177f0b9dc0)" style="fill: none; stroke: #b0b0b0; stroke-width: 0.8; stroke-linecap: square"/>
     </g>
     <g id="line2d_4">
      <g>
       <use xlink:href="#m58e5aa167e" x="287.181818" y="384.48" style="stroke: #000000; stroke-width: 0.8"/>
      </g>
     </g>
     <g id="text_2">
      <!-- $\mathdefault{2.5}$ -->
      <g transform="translate(275.334005 405.316997) scale(0.2 -0.2)">
       <defs>
        <path id="CMR17-32" d="M 2669 990 
L 2554 990 
C 2490 537 2438 460 2413 422 
C 2381 371 1920 371 1830 371 
L 602 371 
C 832 620 1280 1073 1824 1596 
C 2214 1966 2669 2400 2669 3033 
C 2669 3788 2067 4224 1395 4224 
C 691 4224 262 3603 262 3027 
C 262 2777 448 2745 525 2745 
C 589 2745 781 2783 781 3007 
C 781 3206 614 3264 525 3264 
C 486 3264 448 3257 422 3244 
C 544 3788 915 4057 1306 4057 
C 1862 4057 2227 3616 2227 3033 
C 2227 2477 1901 1998 1536 1583 
L 262 147 
L 262 0 
L 2515 0 
L 2669 990 
z
" transform="scale(0.015625)"/>
        <path id="CMR17-35" d="M 730 3750 
C 794 3724 1056 3641 1325 3641 
C 1920 3641 2246 3961 2432 4140 
C 2432 4191 2432 4224 2394 4224 
C 2387 4224 2374 4224 2323 4198 
C 2099 4102 1837 4032 1517 4032 
C 1325 4032 1037 4055 723 4191 
C 653 4224 640 4224 634 4224 
C 602 4224 595 4217 595 4090 
L 595 2231 
C 595 2113 595 2080 659 2080 
C 691 2080 704 2093 736 2139 
C 941 2435 1222 2560 1542 2560 
C 1766 2560 2246 2415 2246 1293 
C 2246 1087 2246 716 2054 422 
C 1894 159 1645 25 1370 25 
C 947 25 518 319 403 812 
C 429 806 480 793 506 793 
C 589 793 749 838 749 1036 
C 749 1209 627 1280 506 1280 
C 358 1280 262 1190 262 1011 
C 262 454 704 -128 1382 -128 
C 2042 -128 2669 441 2669 1267 
C 2669 2054 2170 2662 1549 2662 
C 1222 2662 947 2540 730 2304 
L 730 3750 
z
" transform="scale(0.015625)"/>
       </defs>
       <use xlink:href="#CMR17-32" transform="scale(0.996264)"/>
       <use xlink:href="#CMMI12-3a" transform="translate(45.690477 0) scale(0.996264)"/>
       <use xlink:href="#CMR17-35" transform="translate(72.787654 0) scale(0.996264)"/>
      </g>
     </g>
    </g>
    <g id="xtick_3">
     <g id="line2d_5">
      <path d="M 401.318182 384.48 
L 401.318182 51.84 
" clip-path="url(#p177f0b9dc0)" style="fill: none; stroke: #b0b0b0; stroke-width: 0.8; stroke-linecap: square"/>
     </g>
     <g id="line2d_6">
      <g>
       <use xlink:href="#m58e5aa167e" x="401.318182" y="384.48" style="stroke: #000000; stroke-width: 0.8"/>
      </g>
     </g>
     <g id="text_3">
      <!-- $\mathdefault{5.0}$ -->
      <g transform="translate(389.470369 405.316997) scale(0.2 -0.2)">
       <use xlink:href="#CMR17-35" transform="scale(0.996264)"/>
       <use xlink:href="#CMMI12-3a" transform="translate(45.690477 0) scale(0.996264)"/>
       <use xlink:href="#CMR17-30" transform="translate(72.787654 0) scale(0.996264)"/>
      </g>
     </g>
    </g>
    <g id="xtick_4">
     <g id="line2d_7">
      <path d="M 515.454545 384.48 
L 515.454545 51.84 
" clip-path="url(#p177f0b9dc0)" style="fill: none; stroke: #b0b0b0; stroke-width: 0.8; stroke-linecap: square"/>
     </g>
     <g id="line2d_8">
      <g>
       <use xlink:href="#m58e5aa167e" x="515.454545" y="384.48" style="stroke: #000000; stroke-width: 0.8"/>
      </g>
     </g>
     <g id="text_4">
      <!-- $\mathdefault{7.5}$ -->
      <g transform="translate(503.606732 405.316997) scale(0.2 -0.2)">
       <defs>
        <path id="CMR17-37" d="M 2886 3955 
L 2886 4096 
L 1382 4096 
C 634 4096 621 4166 595 4288 
L 480 4288 
L 294 3104 
L 410 3104 
C 429 3226 474 3552 550 3673 
C 589 3724 1062 3724 1171 3724 
L 2579 3724 
L 1869 2670 
C 1395 1961 1069 1003 1069 166 
C 1069 89 1069 -128 1299 -128 
C 1530 -128 1530 89 1530 172 
L 1530 466 
C 1530 1514 1709 2204 2003 2644 
L 2886 3955 
z
" transform="scale(0.015625)"/>
       </defs>
       <use xlink:href="#CMR17-37" transform="scale(0.996264)"/>
       <use xlink:href="#CMMI12-3a" transform="translate(45.690477 0) scale(0.996264)"/>
       <use xlink:href="#CMR17-35" transform="translate(72.787654 0) scale(0.996264)"/>
      </g>
     </g>
    </g>
    <g id="xtick_5">
     <g id="line2d_9">
      <path d="M 629.590909 384.48 
L 629.590909 51.84 
" clip-path="url(#p177f0b9dc0)" style="fill: none; stroke: #b0b0b0; stroke-width: 0.8; stroke-linecap: square"/>
     </g>
     <g id="line2d_10">
      <g>
       <use xlink:href="#m58e5aa167e" x="629.590909" y="384.48" style="stroke: #000000; stroke-width: 0.8"/>
      </g>
     </g>
     <g id="text_5">
      <!-- $\mathdefault{10.0}$ -->
      <g transform="translate(613.174048 405.316997) scale(0.2 -0.2)">
       <defs>
        <path id="CMR17-31" d="M 1702 4083 
C 1702 4217 1696 4224 1606 4224 
C 1357 3927 979 3833 621 3820 
C 602 3820 570 3820 563 3808 
C 557 3795 557 3782 557 3648 
C 755 3648 1088 3686 1344 3839 
L 1344 467 
C 1344 243 1331 166 781 166 
L 589 166 
L 589 0 
C 896 6 1216 12 1523 12 
C 1830 12 2150 6 2458 0 
L 2458 166 
L 2266 166 
C 1715 166 1702 236 1702 467 
L 1702 4083 
z
" transform="scale(0.015625)"/>
       </defs>
       <use xlink:href="#CMR17-31" transform="scale(0.996264)"/>
       <use xlink:href="#CMR17-30" transform="translate(45.690477 0) scale(0.996264)"/>
       <use xlink:href="#CMMI12-3a" transform="translate(91.380954 0) scale(0.996264)"/>
       <use xlink:href="#CMR17-30" transform="translate(118.478131 0) scale(0.996264)"/>
      </g>
     </g>
    </g>
    <g id="xtick_6">
     <g id="line2d_11">
      <path d="M 743.727273 384.48 
L 743.727273 51.84 
" clip-path="url(#p177f0b9dc0)" style="fill: none; stroke: #b0b0b0; stroke-width: 0.8; stroke-linecap: square"/>
     </g>
     <g id="line2d_12">
      <g>
       <use xlink:href="#m58e5aa167e" x="743.727273" y="384.48" style="stroke: #000000; stroke-width: 0.8"/>
      </g>
     </g>
     <g id="text_6">
      <!-- $\mathdefault{12.5}$ -->
      <g transform="translate(727.310412 405.316997) scale(0.2 -0.2)">
       <use xlink:href="#CMR17-31" transform="scale(0.996264)"/>
       <use xlink:href="#CMR17-32" transform="translate(45.690477 0) scale(0.996264)"/>
       <use xlink:href="#CMMI12-3a" transform="translate(91.380954 0) scale(0.996264)"/>
       <use xlink:href="#CMR17-35" transform="translate(118.478131 0) scale(0.996264)"/>
      </g>
     </g>
    </g>
    <g id="xtick_7">
     <g id="line2d_13">
      <path d="M 857.863636 384.48 
L 857.863636 51.84 
" clip-path="url(#p177f0b9dc0)" style="fill: none; stroke: #b0b0b0; stroke-width: 0.8; stroke-linecap: square"/>
     </g>
     <g id="line2d_14">
      <g>
       <use xlink:href="#m58e5aa167e" x="857.863636" y="384.48" style="stroke: #000000; stroke-width: 0.8"/>
      </g>
     </g>
     <g id="text_7">
      <!-- $\mathdefault{15.0}$ -->
      <g transform="translate(841.446776 405.316997) scale(0.2 -0.2)">
       <use xlink:href="#CMR17-31" transform="scale(0.996264)"/>
       <use xlink:href="#CMR17-35" transform="translate(45.690477 0) scale(0.996264)"/>
       <use xlink:href="#CMMI12-3a" transform="translate(91.380954 0) scale(0.996264)"/>
       <use xlink:href="#CMR17-30" transform="translate(118.478131 0) scale(0.996264)"/>
      </g>
     </g>
    </g>
    <g id="xtick_8">
     <g id="line2d_15">
      <path d="M 972 384.48 
L 972 51.84 
" clip-path="url(#p177f0b9dc0)" style="fill: none; stroke: #b0b0b0; stroke-width: 0.8; stroke-linecap: square"/>
     </g>
     <g id="line2d_16">
      <g>
       <use xlink:href="#m58e5aa167e" x="972" y="384.48" style="stroke: #000000; stroke-width: 0.8"/>
      </g>
     </g>
     <g id="text_8">
      <!-- $\mathdefault{17.5}$ -->
      <g transform="translate(955.583139 405.316997) scale(0.2 -0.2)">
       <use xlink:href="#CMR17-31" transform="scale(0.996264)"/>
       <use xlink:href="#CMR17-37" transform="translate(45.690477 0) scale(0.996264)"/>
       <use xlink:href="#CMMI12-3a" transform="translate(91.380954 0) scale(0.996264)"/>
       <use xlink:href="#CMR17-35" transform="translate(118.478131 0) scale(0.996264)"/>
      </g>
     </g>
    </g>
    <g id="text_9">
     <!-- \boldmath$\mathbf{Time\ [ms]}$ -->
     <g transform="translate(505.142788 428.136591) scale(0.2 -0.2)">
      <defs>
       <path id="CMBX12-54" d="M 4608 4358 
L 390 4358 
L 262 2833 
L 531 2833 
C 589 3535 640 4083 1562 4083 
L 2080 4083 
L 2080 275 
L 1114 275 
L 1114 0 
C 1626 12 2285 12 2502 12 
C 2893 12 3379 12 3891 0 
L 3891 275 
L 2925 275 
L 2925 4083 
L 3437 4083 
C 4358 4083 4410 3542 4467 2833 
L 4736 2833 
L 4608 4358 
z
" transform="scale(0.015625)"/>
       <path id="CMBX12-69" d="M 1427 4019 
C 1427 4281 1216 4480 966 4480 
C 704 4480 506 4262 506 4019 
C 506 3775 704 3558 966 3558 
C 1216 3558 1427 3756 1427 4019 
z
M 301 2828 
L 301 2553 
C 678 2553 723 2553 723 2303 
L 723 275 
L 282 275 
L 282 0 
C 429 12 870 12 1043 12 
C 1222 12 1632 12 1786 0 
L 1786 275 
L 1389 275 
L 1389 2880 
L 301 2828 
z
" transform="scale(0.015625)"/>
       <path id="CMBX12-6d" d="M 5402 1958 
C 5402 2547 5152 2880 4435 2880 
C 3789 2880 3488 2444 3386 2240 
C 3283 2783 2848 2880 2438 2880 
C 1824 2880 1491 2483 1357 2176 
L 1350 2176 
L 1350 2880 
L 269 2828 
L 269 2553 
C 666 2553 710 2553 710 2304 
L 710 275 
L 269 275 
L 269 0 
C 416 12 877 12 1056 12 
C 1235 12 1702 12 1850 0 
L 1850 275 
L 1408 275 
L 1408 1638 
C 1408 2336 1926 2668 2330 2668 
C 2566 2668 2707 2528 2707 2028 
L 2707 275 
L 2266 275 
L 2266 0 
C 2413 12 2874 12 3053 12 
C 3232 12 3699 12 3846 0 
L 3846 275 
L 3405 275 
L 3405 1638 
C 3405 2336 3923 2668 4326 2668 
C 4563 2668 4704 2528 4704 2028 
L 4704 275 
L 4262 275 
L 4262 0 
C 4410 12 4870 12 5050 12 
C 5229 12 5696 12 5843 0 
L 5843 275 
L 5402 275 
L 5402 1958 
z
" transform="scale(0.015625)"/>
       <path id="CMBX12-65" d="M 2893 1408 
C 3040 1408 3078 1408 3078 1568 
C 3078 1758 3034 2232 2739 2529 
C 2470 2796 2112 2880 1741 2880 
C 742 2880 198 2232 198 1433 
C 198 523 858 -64 1824 -64 
C 2790 -64 3078 621 3078 731 
C 3078 829 2982 829 2944 829 
C 2842 829 2835 809 2797 725 
C 2630 302 2208 166 1901 166 
C 973 166 966 1043 966 1408 
L 2893 1408 
z
M 966 1593 
C 979 1852 986 2099 1120 2327 
C 1242 2529 1466 2668 1741 2668 
C 2426 2668 2483 1909 2490 1593 
L 966 1593 
z
" transform="scale(0.015625)"/>
       <path id="CMBX12-5b" d="M 1837 -1600 
L 1837 -1248 
L 1171 -1248 
L 1171 4447 
L 1837 4447 
L 1837 4800 
L 819 4800 
L 819 -1600 
L 1837 -1600 
z
" transform="scale(0.015625)"/>
       <path id="CMBX12-73" d="M 2413 2713 
C 2413 2835 2413 2880 2317 2880 
C 2278 2880 2266 2880 2170 2822 
C 2144 2803 2074 2758 2042 2739 
C 1862 2841 1626 2880 1395 2880 
C 1203 2880 243 2880 243 2046 
C 243 1372 1037 1231 1235 1199 
C 1408 1167 1619 1128 1645 1128 
C 1901 1071 2157 910 2157 641 
C 2157 147 1574 147 1440 147 
C 1114 147 710 249 531 872 
C 493 1000 486 1006 378 1006 
C 243 1006 243 987 243 840 
L 243 102 
C 243 -20 243 -64 339 -64 
C 384 -64 397 -64 525 38 
L 691 160 
C 979 -64 1325 -64 1440 -64 
C 1792 -64 2592 12 2592 865 
C 2592 1173 2426 1385 2298 1500 
C 2035 1719 1818 1757 1472 1821 
C 1062 1892 678 1962 678 2270 
C 678 2687 1248 2687 1382 2687 
C 2093 2687 2131 2238 2144 2078 
C 2150 1995 2202 1995 2278 1995 
C 2413 1995 2413 2014 2413 2161 
L 2413 2713 
z
" transform="scale(0.015625)"/>
       <path id="CMBX12-5d" d="M 1171 4800 
L 154 4800 
L 154 4447 
L 819 4447 
L 819 -1248 
L 154 -1248 
L 154 -1600 
L 1171 -1600 
L 1171 4800 
z
" transform="scale(0.015625)"/>
      </defs>
      <use xlink:href="#CMBX12-54" transform="scale(0.996264)"/>
      <use xlink:href="#CMBX12-69" transform="translate(77.94837 0) scale(0.996264)"/>
      <use xlink:href="#CMBX12-6d" transform="translate(109.081621 0) scale(0.996264)"/>
      <use xlink:href="#CMBX12-65" transform="translate(202.481372 0) scale(0.996264)"/>
      <use xlink:href="#CMBX12-5b" transform="translate(283.696605 0) scale(0.996264)"/>
      <use xlink:href="#CMBX12-6d" transform="translate(314.829856 0) scale(0.996264)"/>
      <use xlink:href="#CMBX12-73" transform="translate(408.229607 0) scale(0.996264)"/>
      <use xlink:href="#CMBX12-5d" transform="translate(452.438944 0) scale(0.996264)"/>
     </g>
    </g>
   </g>
   <g id="matplotlib.axis_2">
    <g id="ytick_1">
     <g id="line2d_17">
      <path d="M 135 374.300122 
L 972 374.300122 
" clip-path="url(#p177f0b9dc0)" style="fill: none; stroke: #b0b0b0; stroke-width: 0.8; stroke-linecap: square"/>
     </g>
     <g id="line2d_18">
      <defs>
       <path id="mdf89d92d3a" d="M 0 0 
L -3.5 0 
" style="stroke: #000000; stroke-width: 0.8"/>
      </defs>
      <g>
       <use xlink:href="#mdf89d92d3a" x="135" y="374.300122" style="stroke: #000000; stroke-width: 0.8"/>
      </g>
     </g>
     <g id="text_10">
      <!-- $\mathdefault{−0.1}$ -->
      <g transform="translate(88.806886 381.21862) scale(0.2 -0.2)">
       <defs>
        <path id="CMSY10-0" d="M 4218 1472 
C 4326 1472 4442 1472 4442 1600 
C 4442 1728 4326 1728 4218 1728 
L 755 1728 
C 646 1728 531 1728 531 1600 
C 531 1472 646 1472 755 1472 
L 4218 1472 
z
" transform="scale(0.015625)"/>
       </defs>
       <use xlink:href="#CMSY10-0" transform="scale(0.996264)"/>
       <use xlink:href="#CMR17-30" transform="translate(77.487468 0) scale(0.996264)"/>
       <use xlink:href="#CMMI12-3a" transform="translate(123.177945 0) scale(0.996264)"/>
       <use xlink:href="#CMR17-31" transform="translate(150.275122 0) scale(0.996264)"/>
      </g>
     </g>
    </g>
    <g id="ytick_2">
     <g id="line2d_19">
      <path d="M 135 323.968463 
L 972 323.968463 
" clip-path="url(#p177f0b9dc0)" style="fill: none; stroke: #b0b0b0; stroke-width: 0.8; stroke-linecap: square"/>
     </g>
     <g id="line2d_20">
      <g>
       <use xlink:href="#mdf89d92d3a" x="135" y="323.968463" style="stroke: #000000; stroke-width: 0.8"/>
      </g>
     </g>
     <g id="text_11">
      <!-- $\mathdefault{0.0}$ -->
      <g transform="translate(104.304374 330.886962) scale(0.2 -0.2)">
       <use xlink:href="#CMR17-30" transform="scale(0.996264)"/>
       <use xlink:href="#CMMI12-3a" transform="translate(45.690477 0) scale(0.996264)"/>
       <use xlink:href="#CMR17-30" transform="translate(72.787654 0) scale(0.996264)"/>
      </g>
     </g>
    </g>
    <g id="ytick_3">
     <g id="line2d_21">
      <path d="M 135 273.636805 
L 972 273.636805 
" clip-path="url(#p177f0b9dc0)" style="fill: none; stroke: #b0b0b0; stroke-width: 0.8; stroke-linecap: square"/>
     </g>
     <g id="line2d_22">
      <g>
       <use xlink:href="#mdf89d92d3a" x="135" y="273.636805" style="stroke: #000000; stroke-width: 0.8"/>
      </g>
     </g>
     <g id="text_12">
      <!-- $\mathdefault{0.1}$ -->
      <g transform="translate(104.304374 280.555303) scale(0.2 -0.2)">
       <use xlink:href="#CMR17-30" transform="scale(0.996264)"/>
       <use xlink:href="#CMMI12-3a" transform="translate(45.690477 0) scale(0.996264)"/>
       <use xlink:href="#CMR17-31" transform="translate(72.787654 0) scale(0.996264)"/>
      </g>
     </g>
    </g>
    <g id="ytick_4">
     <g id="line2d_23">
      <path d="M 135 223.305146 
L 972 223.305146 
" clip-path="url(#p177f0b9dc0)" style="fill: none; stroke: #b0b0b0; stroke-width: 0.8; stroke-linecap: square"/>
     </g>
     <g id="line2d_24">
      <g>
       <use xlink:href="#mdf89d92d3a" x="135" y="223.305146" style="stroke: #000000; stroke-width: 0.8"/>
      </g>
     </g>
     <g id="text_13">
      <!-- $\mathdefault{0.2}$ -->
      <g transform="translate(104.304374 230.223644) scale(0.2 -0.2)">
       <use xlink:href="#CMR17-30" transform="scale(0.996264)"/>
       <use xlink:href="#CMMI12-3a" transform="translate(45.690477 0) scale(0.996264)"/>
       <use xlink:href="#CMR17-32" transform="translate(72.787654 0) scale(0.996264)"/>
      </g>
     </g>
    </g>
    <g id="ytick_5">
     <g id="line2d_25">
      <path d="M 135 172.973487 
L 972 172.973487 
" clip-path="url(#p177f0b9dc0)" style="fill: none; stroke: #b0b0b0; stroke-width: 0.8; stroke-linecap: square"/>
     </g>
     <g id="line2d_26">
      <g>
       <use xlink:href="#mdf89d92d3a" x="135" y="172.973487" style="stroke: #000000; stroke-width: 0.8"/>
      </g>
     </g>
     <g id="text_14">
      <!-- $\mathdefault{0.3}$ -->
      <g transform="translate(104.304374 179.891986) scale(0.2 -0.2)">
       <defs>
        <path id="CMR17-33" d="M 1414 2176 
C 1984 2176 2234 1673 2234 1094 
C 2234 322 1824 25 1453 25 
C 1114 25 563 193 390 691 
C 422 678 454 678 486 678 
C 640 678 755 780 755 947 
C 755 1132 614 1216 486 1216 
C 378 1216 211 1164 211 927 
C 211 335 787 -128 1466 -128 
C 2176 -128 2720 432 2720 1087 
C 2720 1718 2208 2176 1600 2246 
C 2086 2347 2554 2776 2554 3353 
C 2554 3856 2048 4224 1472 4224 
C 890 4224 378 3862 378 3347 
C 378 3123 544 3084 627 3084 
C 762 3084 877 3167 877 3334 
C 877 3500 762 3584 627 3584 
C 602 3584 570 3584 544 3571 
C 730 3999 1235 4076 1459 4076 
C 1683 4076 2106 3966 2106 3347 
C 2106 3167 2080 2851 1862 2574 
C 1670 2329 1453 2316 1242 2297 
C 1210 2297 1062 2284 1037 2284 
C 992 2278 966 2272 966 2227 
C 966 2182 973 2176 1101 2176 
L 1414 2176 
z
" transform="scale(0.015625)"/>
       </defs>
       <use xlink:href="#CMR17-30" transform="scale(0.996264)"/>
       <use xlink:href="#CMMI12-3a" transform="translate(45.690477 0) scale(0.996264)"/>
       <use xlink:href="#CMR17-33" transform="translate(72.787654 0) scale(0.996264)"/>
      </g>
     </g>
    </g>
    <g id="ytick_6">
     <g id="line2d_27">
      <path d="M 135 122.641829 
L 972 122.641829 
" clip-path="url(#p177f0b9dc0)" style="fill: none; stroke: #b0b0b0; stroke-width: 0.8; stroke-linecap: square"/>
     </g>
     <g id="line2d_28">
      <g>
       <use xlink:href="#mdf89d92d3a" x="135" y="122.641829" style="stroke: #000000; stroke-width: 0.8"/>
      </g>
     </g>
     <g id="text_15">
      <!-- $\mathdefault{0.4}$ -->
      <g transform="translate(104.304374 129.560327) scale(0.2 -0.2)">
       <defs>
        <path id="CMR17-34" d="M 2150 4147 
C 2150 4281 2144 4288 2029 4288 
L 128 1254 
L 128 1088 
L 1779 1088 
L 1779 460 
C 1779 230 1766 166 1318 166 
L 1197 166 
L 1197 0 
C 1402 12 1747 12 1965 12 
C 2182 12 2528 12 2733 0 
L 2733 166 
L 2611 166 
C 2163 166 2150 230 2150 460 
L 2150 1088 
L 2803 1088 
L 2803 1254 
L 2150 1254 
L 2150 4147 
z
M 1798 3723 
L 1798 1254 
L 256 1254 
L 1798 3723 
z
" transform="scale(0.015625)"/>
       </defs>
       <use xlink:href="#CMR17-30" transform="scale(0.996264)"/>
       <use xlink:href="#CMMI12-3a" transform="translate(45.690477 0) scale(0.996264)"/>
       <use xlink:href="#CMR17-34" transform="translate(72.787654 0) scale(0.996264)"/>
      </g>
     </g>
    </g>
    <g id="ytick_7">
     <g id="line2d_29">
      <path d="M 135 72.31017 
L 972 72.31017 
" clip-path="url(#p177f0b9dc0)" style="fill: none; stroke: #b0b0b0; stroke-width: 0.8; stroke-linecap: square"/>
     </g>
     <g id="line2d_30">
      <g>
       <use xlink:href="#mdf89d92d3a" x="135" y="72.31017" style="stroke: #000000; stroke-width: 0.8"/>
      </g>
     </g>
     <g id="text_16">
      <!-- $\mathdefault{0.5}$ -->
      <g transform="translate(104.304374 79.228668) scale(0.2 -0.2)">
       <use xlink:href="#CMR17-30" transform="scale(0.996264)"/>
       <use xlink:href="#CMMI12-3a" transform="translate(45.690477 0) scale(0.996264)"/>
       <use xlink:href="#CMR17-35" transform="translate(72.787654 0) scale(0.996264)"/>
      </g>
     </g>
    </g>
    <g id="text_17">
     <!-- $\mathbf{Magnetic\ Field\ [mG]}$ -->
     <g transform="translate(79.842243 317.389118) rotate(-90) scale(0.2 -0.2)">
      <defs>
       <path id="CMBX12-4d" d="M 3411 816 
L 1875 4281 
C 1818 4416 1760 4416 1626 4416 
L 262 4416 
L 262 4140 
L 941 4140 
L 941 468 
C 941 326 934 320 768 294 
C 653 281 525 275 410 275 
L 262 275 
L 262 0 
C 410 12 909 12 1088 12 
C 1267 12 1773 12 1920 0 
L 1920 275 
L 1773 275 
C 1600 275 1587 275 1434 294 
C 1248 320 1242 326 1242 468 
L 1242 4063 
L 1248 4063 
L 2989 134 
C 3021 64 3059 0 3168 0 
C 3277 0 3315 64 3347 134 
L 5120 4140 
L 5126 4140 
L 5126 275 
L 4448 275 
L 4448 0 
C 4621 12 5286 12 5504 12 
C 5722 12 6387 12 6560 0 
L 6560 275 
L 5882 275 
L 5882 4140 
L 6560 4140 
L 6560 4416 
L 5197 4416 
C 5062 4416 5005 4416 4947 4281 
L 3411 816 
z
" transform="scale(0.015625)"/>
       <path id="CMBX12-61" d="M 2944 1894 
C 2944 2483 2477 2880 1574 2880 
C 1216 2880 461 2847 461 2310 
C 461 2041 666 1926 838 1926 
C 1030 1926 1216 2060 1216 2303 
C 1216 2425 1171 2540 1062 2611 
C 1274 2668 1427 2668 1549 2668 
C 1984 2668 2246 2425 2246 1900 
L 2246 1644 
C 1235 1644 218 1362 218 648 
C 218 64 960 -64 1402 -64 
C 1894 -64 2208 205 2336 488 
C 2336 250 2336 -26 2982 -26 
L 3309 -26 
C 3443 -26 3494 -26 3494 115 
C 3494 250 3437 250 3347 250 
C 2944 256 2944 359 2944 507 
L 2944 1894 
z
M 2246 867 
C 2246 262 1709 147 1504 147 
C 1190 147 928 359 928 655 
C 928 1240 1619 1439 2246 1472 
L 2246 867 
z
" transform="scale(0.015625)"/>
       <path id="CMBX12-67" d="M 832 1177 
C 1139 1011 1498 1011 1594 1011 
C 2477 1011 2829 1506 2829 1958 
C 2829 2287 2643 2519 2566 2584 
C 2752 2687 2906 2713 3014 2726 
C 2995 2694 2976 2668 2976 2584 
C 2976 2448 3066 2326 3232 2326 
C 3398 2326 3488 2448 3488 2584 
C 3488 2739 3373 2944 3104 2944 
C 2829 2944 2566 2809 2432 2694 
C 2170 2847 1920 2905 1594 2905 
C 710 2905 358 2410 358 1958 
C 358 1758 422 1493 691 1274 
C 582 1151 467 926 467 693 
C 467 416 614 179 749 76 
C 595 38 198 -109 198 -474 
C 198 -852 614 -1280 1792 -1280 
C 2854 -1280 3392 -935 3392 -455 
C 3392 108 3021 294 2861 371 
C 2554 524 2144 524 1581 524 
C 1421 524 1139 524 1107 531 
C 832 576 755 823 755 946 
C 755 998 762 1094 832 1177 
z
M 1594 1216 
C 1037 1216 1037 1661 1037 1958 
C 1037 2255 1037 2700 1594 2700 
C 2150 2700 2150 2255 2150 1958 
C 2150 1661 2150 1216 1594 1216 
z
M 1952 -64 
C 2419 -64 2867 -148 2867 -480 
C 2867 -704 2643 -1076 1798 -1076 
C 954 -1076 723 -717 723 -474 
C 723 -64 1126 -64 1222 -64 
L 1952 -64 
z
" transform="scale(0.015625)"/>
       <path id="CMBX12-6e" d="M 3398 1958 
C 3398 2566 3136 2880 2432 2880 
C 1971 2880 1574 2656 1357 2176 
L 1350 2176 
L 1350 2880 
L 269 2828 
L 269 2553 
C 666 2553 710 2553 710 2304 
L 710 275 
L 269 275 
L 269 0 
C 416 12 877 12 1056 12 
C 1235 12 1702 12 1850 0 
L 1850 275 
L 1408 275 
L 1408 1638 
C 1408 2329 1920 2668 2330 2668 
C 2566 2668 2701 2515 2701 2028 
L 2701 275 
L 2259 275 
L 2259 0 
C 2406 12 2867 12 3046 12 
C 3226 12 3693 12 3840 0 
L 3840 275 
L 3398 275 
L 3398 1958 
z
" transform="scale(0.015625)"/>
       <path id="CMBX12-74" d="M 1350 2540 
L 2272 2540 
L 2272 2816 
L 1350 2816 
L 1350 4032 
L 1082 4032 
C 1075 3401 768 2771 134 2751 
L 134 2540 
L 653 2540 
L 653 761 
C 653 83 1178 -64 1638 -64 
C 2112 -64 2394 294 2394 768 
L 2394 1107 
L 2125 1107 
L 2125 774 
C 2125 352 1933 166 1734 166 
C 1350 166 1350 595 1350 742 
L 1350 2540 
z
" transform="scale(0.015625)"/>
       <path id="CMBX12-63" d="M 2995 724 
C 2995 801 2925 801 2861 801 
C 2758 801 2752 795 2720 718 
C 2675 596 2502 166 1914 166 
C 1011 166 1011 1141 1011 1430 
C 1011 1808 1018 2649 1856 2649 
C 1901 2649 2278 2636 2278 2604 
C 2278 2598 2272 2591 2259 2585 
C 2240 2566 2157 2469 2157 2309 
C 2157 2039 2374 1930 2534 1930 
C 2669 1930 2912 2014 2912 2315 
C 2912 2841 2176 2880 1830 2880 
C 691 2880 243 2136 243 1398 
C 243 525 851 -64 1792 -64 
C 2797 -64 2995 679 2995 724 
z
" transform="scale(0.015625)"/>
       <path id="CMBX12-46" d="M 4032 4383 
L 243 4383 
L 243 4108 
L 922 4108 
L 922 275 
L 243 275 
L 243 0 
C 429 12 1158 12 1395 12 
C 1734 12 2304 12 2618 0 
L 2618 275 
L 1766 275 
L 1766 2048 
L 2118 2048 
C 2733 2048 2784 1765 2784 1296 
L 3053 1296 
L 3053 3080 
L 2784 3080 
C 2784 2607 2733 2323 2118 2323 
L 1766 2323 
L 1766 4108 
L 2682 4108 
C 3699 4108 3859 3636 3949 2853 
L 4218 2853 
L 4032 4383 
z
" transform="scale(0.015625)"/>
       <path id="CMBX12-6c" d="M 1389 4480 
L 282 4428 
L 282 4153 
C 678 4153 723 4153 723 3901 
L 723 275 
L 282 275 
L 282 0 
C 429 12 883 12 1056 12 
C 1229 12 1683 12 1830 0 
L 1830 275 
L 1389 275 
L 1389 4480 
z
" transform="scale(0.015625)"/>
       <path id="CMBX12-64" d="M 2221 4428 
L 2221 4153 
C 2618 4153 2662 4153 2662 3896 
L 2662 2571 
C 2522 2694 2240 2880 1798 2880 
C 890 2880 243 2313 243 1408 
C 243 483 877 -64 1728 -64 
C 2080 -64 2381 57 2630 270 
L 2630 -64 
L 3770 -26 
L 3770 250 
C 3373 250 3328 250 3328 502 
L 3328 4480 
L 2221 4428 
z
M 2630 625 
C 2362 231 2035 147 1805 147 
C 1011 147 1011 968 1011 1395 
C 1011 1699 1011 2022 1152 2268 
C 1350 2630 1728 2668 1875 2668 
C 2138 2668 2419 2552 2630 2268 
L 2630 625 
z
" transform="scale(0.015625)"/>
       <path id="CMR17-5b" d="M 1504 -1600 
L 1504 -1376 
L 902 -1376 
L 902 4575 
L 1504 4575 
L 1504 4800 
L 678 4800 
L 678 -1600 
L 1504 -1600 
z
" transform="scale(0.015625)"/>
       <path id="CMBX12-47" d="M 4794 1472 
L 5293 1472 
L 5293 1747 
C 5139 1734 4454 1734 4250 1734 
C 3859 1734 3437 1734 3046 1747 
L 3046 1472 
L 3949 1472 
L 3949 825 
C 3949 692 3949 515 3693 356 
C 3565 274 3366 211 3098 211 
C 2733 211 2099 299 1702 762 
C 1453 1047 1299 1434 1299 2204 
C 1299 2866 1408 3317 1696 3657 
C 2106 4140 2746 4204 3053 4204 
C 3533 4204 4307 3934 4499 2802 
C 4512 2744 4570 2744 4646 2744 
C 4794 2744 4794 2757 4794 2911 
L 4794 4313 
C 4794 4460 4794 4480 4653 4480 
L 4173 4018 
C 3814 4326 3386 4480 2912 4480 
C 1382 4480 397 3548 397 2197 
C 397 882 1350 -64 2918 -64 
C 3347 -64 3853 32 4115 369 
C 4333 166 4698 12 4717 12 
C 4794 12 4794 76 4794 179 
L 4794 1472 
z
" transform="scale(0.015625)"/>
       <path id="CMR17-5d" d="M 915 4800 
L 90 4800 
L 90 4575 
L 691 4575 
L 691 -1376 
L 90 -1376 
L 90 -1600 
L 915 -1600 
L 915 4800 
z
" transform="scale(0.015625)"/>
      </defs>
      <use xlink:href="#CMBX12-4d" transform="scale(0.996264)"/>
      <use xlink:href="#CMBX12-61" transform="translate(106.314425 0) scale(0.996264)"/>
      <use xlink:href="#CMBX12-67" transform="translate(160.797613 0) scale(0.996264)"/>
      <use xlink:href="#CMBX12-6e" transform="translate(216.837464 0) scale(0.996264)"/>
      <use xlink:href="#CMBX12-65" transform="translate(279.103964 0) scale(0.996264)"/>
      <use xlink:href="#CMBX12-74" transform="translate(330.243232 0) scale(0.996264)"/>
      <use xlink:href="#CMBX12-69" transform="translate(373.829782 0) scale(0.996264)"/>
      <use xlink:href="#CMBX12-63" transform="translate(404.963032 0) scale(0.996264)"/>
      <use xlink:href="#CMBX12-46" transform="translate(484.852199 0) scale(0.996264)"/>
      <use xlink:href="#CMBX12-69" transform="translate(555.30562 0) scale(0.996264)"/>
      <use xlink:href="#CMBX12-65" transform="translate(586.43887 0) scale(0.996264)"/>
      <use xlink:href="#CMBX12-6c" transform="translate(637.578137 0) scale(0.996264)"/>
      <use xlink:href="#CMBX12-64" transform="translate(668.711387 0) scale(0.996264)"/>
      <use xlink:href="#CMR17-5b" transform="translate(761.053854 0) scale(0.996264)"/>
      <use xlink:href="#CMBX12-6d" transform="translate(785.924913 0) scale(0.996264)"/>
      <use xlink:href="#CMBX12-47" transform="translate(879.324664 0) scale(0.996264)"/>
      <use xlink:href="#CMR17-5d" transform="translate(967.420224 0) scale(0.996264)"/>
     </g>
    </g>
   </g>
   <g id="LineCollection_1">
    <path d="M 173.045455 355.233045 
L 173.045455 309.934552 
" clip-path="url(#p177f0b9dc0)" style="fill: none; stroke: #ff0000; stroke-width: 1.5"/>
    <path d="M 209.279221 263.076048 
L 209.279221 217.777555 
" clip-path="url(#p177f0b9dc0)" style="fill: none; stroke: #ff0000; stroke-width: 1.5"/>
    <path d="M 173.045455 361.865787 
L 173.045455 316.567294 
" clip-path="url(#p177f0b9dc0)" style="fill: none; stroke: #ff0000; stroke-width: 1.5"/>
    <path d="M 209.279221 240.870933 
L 209.279221 195.572441 
" clip-path="url(#p177f0b9dc0)" style="fill: none; stroke: #ff0000; stroke-width: 1.5"/>
    <path d="M 245.512987 225.768517 
L 245.512987 180.470024 
" clip-path="url(#p177f0b9dc0)" style="fill: none; stroke: #ff0000; stroke-width: 1.5"/>
    <path d="M 281.746753 157.052096 
L 281.746753 111.753603 
" clip-path="url(#p177f0b9dc0)" style="fill: none; stroke: #ff0000; stroke-width: 1.5"/>
    <path d="M 317.980519 136.281604 
L 317.980519 90.983111 
" clip-path="url(#p177f0b9dc0)" style="fill: none; stroke: #ff0000; stroke-width: 1.5"/>
    <path d="M 354.214286 159.659721 
L 354.214286 114.361228 
" clip-path="url(#p177f0b9dc0)" style="fill: none; stroke: #ff0000; stroke-width: 1.5"/>
    <path d="M 390.448052 122.221133 
L 390.448052 76.92264 
" clip-path="url(#p177f0b9dc0)" style="fill: none; stroke: #ff0000; stroke-width: 1.5"/>
    <path d="M 426.681818 165.430572 
L 426.681818 120.132079 
" clip-path="url(#p177f0b9dc0)" style="fill: none; stroke: #ff0000; stroke-width: 1.5"/>
    <path d="M 462.915584 183.384465 
L 462.915584 138.085972 
" clip-path="url(#p177f0b9dc0)" style="fill: none; stroke: #ff0000; stroke-width: 1.5"/>
    <path d="M 499.149351 112.258493 
L 499.149351 66.96 
" clip-path="url(#p177f0b9dc0)" style="fill: none; stroke: #ff0000; stroke-width: 1.5"/>
    <path d="M 535.383117 115.224884 
L 535.383117 69.926392 
" clip-path="url(#p177f0b9dc0)" style="fill: none; stroke: #ff0000; stroke-width: 1.5"/>
    <path d="M 571.616883 131.477825 
L 571.616883 86.179332 
" clip-path="url(#p177f0b9dc0)" style="fill: none; stroke: #ff0000; stroke-width: 1.5"/>
    <path d="M 607.850649 236.564832 
L 607.850649 191.266339 
" clip-path="url(#p177f0b9dc0)" style="fill: none; stroke: #ff0000; stroke-width: 1.5"/>
    <path d="M 644.084416 286.998981 
L 644.084416 241.700488 
" clip-path="url(#p177f0b9dc0)" style="fill: none; stroke: #ff0000; stroke-width: 1.5"/>
    <path d="M 680.318182 288.368296 
L 680.318182 243.069803 
" clip-path="url(#p177f0b9dc0)" style="fill: none; stroke: #ff0000; stroke-width: 1.5"/>
    <path d="M 716.551948 369.36 
L 716.551948 324.061507 
" clip-path="url(#p177f0b9dc0)" style="fill: none; stroke: #ff0000; stroke-width: 1.5"/>
    <path d="M 752.785714 336.501646 
L 752.785714 291.203153 
" clip-path="url(#p177f0b9dc0)" style="fill: none; stroke: #ff0000; stroke-width: 1.5"/>
    <path d="M 789.019481 274.794921 
L 789.019481 229.496428 
" clip-path="url(#p177f0b9dc0)" style="fill: none; stroke: #ff0000; stroke-width: 1.5"/>
    <path d="M 825.253247 305.496157 
L 825.253247 260.197665 
" clip-path="url(#p177f0b9dc0)" style="fill: none; stroke: #ff0000; stroke-width: 1.5"/>
    <path d="M 861.487013 342.308867 
L 861.487013 297.010374 
" clip-path="url(#p177f0b9dc0)" style="fill: none; stroke: #ff0000; stroke-width: 1.5"/>
    <path d="M 897.720779 360.207349 
L 897.720779 314.908856 
" clip-path="url(#p177f0b9dc0)" style="fill: none; stroke: #ff0000; stroke-width: 1.5"/>
    <path d="M 933.954545 344.449512 
L 933.954545 299.151019 
" clip-path="url(#p177f0b9dc0)" style="fill: none; stroke: #ff0000; stroke-width: 1.5"/>
   </g>
   <g id="line2d_31">
    <path d="M 173.045455 316.982857 
L 180.731405 308.693119 
L 188.417355 298.634108 
L 196.103306 286.963733 
L 203.789256 273.891896 
L 211.475207 259.673753 
L 219.161157 244.601368 
L 226.847107 228.994053 
L 234.533058 213.187732 
L 242.219008 197.523721 
L 249.904959 182.337315 
L 257.590909 167.946602 
L 265.27686 154.641895 
L 272.96281 142.676163 
L 280.64876 132.256807 
L 288.334711 123.539071 
L 296.020661 116.621323 
L 303.706612 111.542367 
L 311.392562 108.280898 
L 319.078512 106.757093 
L 326.764463 106.836294 
L 334.450413 108.334636 
L 342.136364 111.026424 
L 349.822314 114.652981 
L 357.508264 118.932644 
L 365.194215 123.571555 
L 372.880165 128.274837 
L 380.566116 132.75777 
L 388.252066 136.756536 
L 395.938017 140.038172 
L 403.623967 142.40934 
L 411.309917 143.723618 
L 418.995868 143.887036 
L 426.681818 142.86166 
L 434.367769 140.667094 
L 442.053719 137.379835 
L 449.739669 133.130527 
L 457.42562 128.09919 
L 465.11157 122.508601 
L 472.797521 116.616087 
L 480.483471 110.703993 
L 488.169421 105.069207 
L 495.855372 100.012085 
L 503.541322 95.825214 
L 511.227273 92.782389 
L 518.913223 91.128229 
L 526.599174 91.068792 
L 534.285124 92.763536 
L 541.971074 96.318925 
L 549.657025 101.783908 
L 557.342975 109.147428 
L 565.028926 118.338078 
L 572.714876 129.225897 
L 580.400826 141.626246 
L 588.086777 155.30565 
L 595.772727 169.989365 
L 603.458678 185.370425 
L 611.144628 201.119838 
L 618.830579 216.897559 
L 626.516529 232.363861 
L 634.202479 247.190683 
L 641.88843 261.072558 
L 649.57438 273.736726 
L 657.260331 284.952069 
L 664.946281 294.536553 
L 672.632231 302.362906 
L 680.318182 308.36234 
L 688.004132 312.52617 
L 695.690083 314.905291 
L 703.376033 315.607532 
L 711.061983 314.792972 
L 718.747934 312.667411 
L 726.433884 309.474221 
L 734.119835 305.484882 
L 741.805785 300.988535 
L 749.491736 296.280955 
L 757.177686 291.653319 
L 764.863636 287.3812 
L 772.549587 283.714166 
L 780.235537 280.866377 
L 787.921488 279.008523 
L 795.607438 278.261371 
L 803.293388 278.691193 
L 810.979339 280.307211 
L 818.665289 283.061159 
L 826.35124 286.848993 
L 834.03719 291.514665 
L 841.72314 296.855844 
L 849.409091 302.631362 
L 857.095041 308.570122 
L 864.780992 314.381153 
L 872.466942 319.764429 
L 880.152893 324.422077 
L 887.838843 328.06956 
L 895.524793 330.446425 
L 903.210744 331.326239 
L 910.896694 330.525334 
L 918.582645 327.910064 
L 926.268595 323.402279 
L 933.954545 316.982857 
" clip-path="url(#p177f0b9dc0)" style="fill: none; stroke-dasharray: 7.4,3.2; stroke-dashoffset: 0; stroke: #ff0000; stroke-width: 2"/>
   </g>
   <g id="line2d_32">
    <defs>
     <path id="m0d57d1d64d" d="M 0 3.5 
C 0.928211 3.5 1.81853 3.131218 2.474874 2.474874 
C 3.131218 1.81853 3.5 0.928211 3.5 0 
C 3.5 -0.928211 3.131218 -1.81853 2.474874 -2.474874 
C 1.81853 -3.131218 0.928211 -3.5 0 -3.5 
C -0.928211 -3.5 -1.81853 -3.131218 -2.474874 -2.474874 
C -3.131218 -1.81853 -3.5 -0.928211 -3.5 0 
C -3.5 0.928211 -3.131218 1.81853 -2.474874 2.474874 
C -1.81853 3.131218 -0.928211 3.5 0 3.5 
z
" style="stroke: #ff0000"/>
    </defs>
    <g clip-path="url(#p177f0b9dc0)">
     <use xlink:href="#m0d57d1d64d" x="173.045455" y="332.583799" style="fill: #ff0000; stroke: #ff0000"/>
     <use xlink:href="#m0d57d1d64d" x="209.279221" y="240.426801" style="fill: #ff0000; stroke: #ff0000"/>
     <use xlink:href="#m0d57d1d64d" x="173.045455" y="339.21654" style="fill: #ff0000; stroke: #ff0000"/>
     <use xlink:href="#m0d57d1d64d" x="209.279221" y="218.221687" style="fill: #ff0000; stroke: #ff0000"/>
     <use xlink:href="#m0d57d1d64d" x="245.512987" y="203.11927" style="fill: #ff0000; stroke: #ff0000"/>
     <use xlink:href="#m0d57d1d64d" x="281.746753" y="134.40285" style="fill: #ff0000; stroke: #ff0000"/>
     <use xlink:href="#m0d57d1d64d" x="317.980519" y="113.632357" style="fill: #ff0000; stroke: #ff0000"/>
     <use xlink:href="#m0d57d1d64d" x="354.214286" y="137.010475" style="fill: #ff0000; stroke: #ff0000"/>
     <use xlink:href="#m0d57d1d64d" x="390.448052" y="99.571887" style="fill: #ff0000; stroke: #ff0000"/>
     <use xlink:href="#m0d57d1d64d" x="426.681818" y="142.781326" style="fill: #ff0000; stroke: #ff0000"/>
     <use xlink:href="#m0d57d1d64d" x="462.915584" y="160.735219" style="fill: #ff0000; stroke: #ff0000"/>
     <use xlink:href="#m0d57d1d64d" x="499.149351" y="89.609246" style="fill: #ff0000; stroke: #ff0000"/>
     <use xlink:href="#m0d57d1d64d" x="535.383117" y="92.575638" style="fill: #ff0000; stroke: #ff0000"/>
     <use xlink:href="#m0d57d1d64d" x="571.616883" y="108.828578" style="fill: #ff0000; stroke: #ff0000"/>
     <use xlink:href="#m0d57d1d64d" x="607.850649" y="213.915585" style="fill: #ff0000; stroke: #ff0000"/>
     <use xlink:href="#m0d57d1d64d" x="644.084416" y="264.349735" style="fill: #ff0000; stroke: #ff0000"/>
     <use xlink:href="#m0d57d1d64d" x="680.318182" y="265.71905" style="fill: #ff0000; stroke: #ff0000"/>
     <use xlink:href="#m0d57d1d64d" x="716.551948" y="346.710754" style="fill: #ff0000; stroke: #ff0000"/>
     <use xlink:href="#m0d57d1d64d" x="752.785714" y="313.8524" style="fill: #ff0000; stroke: #ff0000"/>
     <use xlink:href="#m0d57d1d64d" x="789.019481" y="252.145674" style="fill: #ff0000; stroke: #ff0000"/>
     <use xlink:href="#m0d57d1d64d" x="825.253247" y="282.846911" style="fill: #ff0000; stroke: #ff0000"/>
     <use xlink:href="#m0d57d1d64d" x="861.487013" y="319.659621" style="fill: #ff0000; stroke: #ff0000"/>
     <use xlink:href="#m0d57d1d64d" x="897.720779" y="337.558102" style="fill: #ff0000; stroke: #ff0000"/>
     <use xlink:href="#m0d57d1d64d" x="933.954545" y="321.800265" style="fill: #ff0000; stroke: #ff0000"/>
    </g>
   </g>
   <g id="patch_3">
    <path d="M 135 384.48 
L 135 51.84 
" style="fill: none; stroke: #000000; stroke-width: 0.8; stroke-linejoin: miter; stroke-linecap: square"/>
   </g>
   <g id="patch_4">
    <path d="M 972 384.48 
L 972 51.84 
" style="fill: none; stroke: #000000; stroke-width: 0.8; stroke-linejoin: miter; stroke-linecap: square"/>
   </g>
   <g id="patch_5">
    <path d="M 135 384.48 
L 972 384.48 
" style="fill: none; stroke: #000000; stroke-width: 0.8; stroke-linejoin: miter; stroke-linecap: square"/>
   </g>
   <g id="patch_6">
    <path d="M 135 51.84 
L 972 51.84 
" style="fill: none; stroke: #000000; stroke-width: 0.8; stroke-linejoin: miter; stroke-linecap: square"/>
   </g>
   <g id="text_18">
    <!-- \textbf{AC Line Signal} -->
    <g transform="translate(471.397005 45.84) scale(0.22 -0.22)">
     <defs>
      <path id="CMBX12-41" d="M 2931 4333 
C 2886 4448 2874 4480 2720 4480 
C 2560 4480 2547 4448 2502 4333 
L 915 429 
C 870 326 870 313 691 294 
C 531 275 506 275 365 275 
L 250 275 
L 250 0 
C 416 12 800 12 986 12 
C 1158 12 1626 12 1773 0 
L 1773 275 
C 1632 275 1389 275 1210 346 
C 1229 404 1229 416 1242 442 
L 1581 1280 
L 3296 1280 
L 3699 275 
L 3098 275 
L 3098 0 
C 3302 12 3923 12 4166 12 
C 4371 12 5024 12 5184 0 
L 5184 275 
L 4576 275 
L 2931 4333 
z
M 2438 3394 
L 3181 1555 
L 1690 1555 
L 2438 3394 
z
" transform="scale(0.015625)"/>
      <path id="CMBX12-43" d="M 4794 4313 
C 4794 4460 4794 4480 4653 4480 
L 4173 4018 
C 3814 4326 3386 4480 2912 4480 
C 1382 4480 397 3548 397 2210 
C 397 896 1350 -64 2918 -64 
C 4058 -64 4794 722 4794 1484 
C 4794 1593 4755 1600 4659 1600 
C 4595 1600 4531 1600 4525 1529 
C 4467 547 3642 211 3066 211 
C 2650 211 2086 327 1728 734 
C 1504 980 1299 1336 1299 2210 
C 1299 2828 1395 3297 1696 3658 
C 2106 4140 2746 4204 3053 4204 
C 3533 4204 4307 3934 4499 2803 
C 4512 2745 4570 2745 4646 2745 
C 4794 2745 4794 2758 4794 2912 
L 4794 4313 
z
" transform="scale(0.015625)"/>
      <path id="CMBX12-4c" d="M 4019 1737 
L 3750 1737 
C 3706 1293 3603 275 2451 275 
L 1766 275 
L 1766 4140 
L 2618 4140 
L 2618 4416 
C 2304 4403 1734 4403 1395 4403 
C 1158 4403 429 4403 243 4416 
L 243 4140 
L 922 4140 
L 922 275 
L 243 275 
L 243 0 
L 3834 0 
L 4019 1737 
z
" transform="scale(0.015625)"/>
      <path id="CMBX12-53" d="M 1626 2828 
C 992 2969 973 3430 973 3520 
C 973 3846 1184 4223 1805 4223 
C 2426 4223 2982 3923 3117 3084 
C 3136 2950 3136 2944 3258 2944 
C 3392 2944 3392 2963 3392 3110 
L 3392 4313 
C 3392 4435 3392 4480 3296 4480 
C 3251 4480 3232 4473 3174 4409 
L 2899 4096 
C 2739 4230 2419 4480 1798 4480 
C 883 4480 397 3904 397 3206 
C 397 2777 627 2476 717 2387 
C 1050 2054 1229 2016 1894 1868 
C 2534 1728 2611 1715 2752 1580 
C 2835 1497 3021 1318 3021 992 
C 3021 716 2886 211 2170 211 
C 1606 211 717 403 666 1337 
C 659 1452 659 1472 531 1472 
C 397 1472 397 1452 397 1305 
L 397 102 
C 397 -20 397 -64 493 -64 
C 538 -64 544 -58 608 0 
C 678 70 736 153 896 313 
C 1267 19 1792 -64 2176 -64 
C 3174 -64 3597 614 3597 1292 
C 3597 1894 3200 2470 2502 2630 
L 1626 2828 
z
" transform="scale(0.015625)"/>
     </defs>
     <use xlink:href="#CMBX12-41" transform="scale(0.996264)"/>
     <use xlink:href="#CMBX12-43" transform="translate(81.52307 0) scale(0.996264)"/>
     <use xlink:href="#CMBX12-4c" transform="translate(199.829421 0) scale(0.996264)"/>
     <use xlink:href="#CMBX12-69" transform="translate(267.169516 0) scale(0.996264)"/>
     <use xlink:href="#CMBX12-6e" transform="translate(298.302767 0) scale(0.996264)"/>
     <use xlink:href="#CMBX12-65" transform="translate(360.569267 0) scale(0.996264)"/>
     <use xlink:href="#CMBX12-53" transform="translate(449.068435 0) scale(0.996264)"/>
     <use xlink:href="#CMBX12-69" transform="translate(511.334935 0) scale(0.996264)"/>
     <use xlink:href="#CMBX12-67" transform="translate(542.468186 0) scale(0.996264)"/>
     <use xlink:href="#CMBX12-6e" transform="translate(598.508036 0) scale(0.996264)"/>
     <use xlink:href="#CMBX12-61" transform="translate(660.774537 0) scale(0.996264)"/>
     <use xlink:href="#CMBX12-6c" transform="translate(715.257725 0) scale(0.996264)"/>
    </g>
   </g>
   <g id="legend_1">
    <g id="patch_7">
     <path d="M 552.075137 91.328064 
L 959.4 91.328064 
Q 963 91.328064 963 87.728064 
L 963 64.44 
Q 963 60.84 959.4 60.84 
L 552.075137 60.84 
Q 548.475137 60.84 548.475137 64.44 
L 548.475137 87.728064 
Q 548.475137 91.328064 552.075137 91.328064 
z
" style="fill: #ffffff; opacity: 0.35; stroke: #cccccc; stroke-linejoin: miter"/>
    </g>
    <g id="line2d_33">
     <path d="M 555.675137 74.34 
L 573.675137 74.34 
L 591.675137 74.34 
" style="fill: none; stroke-dasharray: 7.4,3.2; stroke-dashoffset: 0; stroke: #ff0000; stroke-width: 2"/>
     <defs>
      <path id="m3e1f30abb3" d="M 0 4 
C 1.060812 4 2.078319 3.578535 2.828427 2.828427 
C 3.578535 2.078319 4 1.060812 4 0 
C 4 -1.060812 3.578535 -2.078319 2.828427 -2.828427 
C 2.078319 -3.578535 1.060812 -4 0 -4 
C -1.060812 -4 -2.078319 -3.578535 -2.828427 -2.828427 
C -3.578535 -2.078319 -4 -1.060812 -4 0 
C -4 1.060812 -3.578535 2.078319 -2.828427 2.828427 
C -2.078319 3.578535 -1.060812 4 0 4 
z
" style="stroke: #ff0000"/>
     </defs>
     <g>
      <use xlink:href="#m3e1f30abb3" x="573.675137" y="74.34" style="fill: #ff0000; stroke: #ff0000"/>
     </g>
    </g>
    <g id="text_19">
     <!-- \boldmath$\mathbf{Permanent\ Magnets}:\ A_{180\mathbf{Hz}} = 0.09 \mathbf{mG}$ -->
     <g transform="translate(606.075137 80.64) scale(0.18 -0.18)">
      <defs>
       <path id="CMBX12-50" d="M 1766 1984 
L 2854 1984 
C 3923 1984 4518 2527 4518 3184 
C 4518 3872 3910 4416 2854 4416 
L 243 4416 
L 243 4140 
L 922 4140 
L 922 275 
L 243 275 
L 243 0 
C 429 12 1114 12 1344 12 
C 1574 12 2259 12 2445 0 
L 2445 275 
L 1766 275 
L 1766 1984 
z
M 2624 4140 
C 3616 4140 3616 3617 3616 3184 
C 3616 2763 3616 2227 2624 2227 
L 1734 2227 
L 1734 4140 
L 2624 4140 
z
" transform="scale(0.015625)"/>
       <path id="CMBX12-72" d="M 1331 1440 
C 1331 1651 1376 2668 2125 2668 
C 2035 2598 1990 2489 1990 2374 
C 1990 2112 2202 2003 2362 2003 
C 2522 2003 2733 2112 2733 2374 
C 2733 2700 2400 2880 2093 2880 
C 1587 2880 1370 2438 1280 2169 
L 1274 2169 
L 1274 2880 
L 224 2828 
L 224 2553 
C 621 2553 666 2553 666 2304 
L 666 275 
L 224 275 
L 224 0 
C 371 12 851 12 1030 12 
C 1216 12 1734 12 1888 0 
L 1888 275 
L 1331 275 
L 1331 1440 
z
" transform="scale(0.015625)"/>
       <path id="CMBX12-3a" d="M 1459 2355 
C 1459 2617 1248 2816 998 2816 
C 749 2816 538 2617 538 2355 
C 538 2092 749 1894 998 1894 
C 1248 1894 1459 2092 1459 2355 
z
M 1459 460 
C 1459 723 1248 921 998 921 
C 749 921 538 723 538 460 
C 538 198 749 0 998 0 
C 1248 0 1459 198 1459 460 
z
" transform="scale(0.015625)"/>
       <path id="CMMIB10-41" d="M 4128 4358 
C 4102 4518 4070 4544 3910 4544 
C 3770 4544 3718 4518 3629 4384 
L 1114 547 
C 1037 424 960 307 493 300 
C 403 300 288 300 288 115 
C 288 64 333 0 410 0 
C 602 0 819 19 1018 19 
C 1254 19 1498 0 1728 0 
C 1773 0 1901 0 1901 185 
C 1901 300 1786 300 1734 300 
C 1683 300 1504 300 1363 372 
L 1952 1280 
L 3680 1280 
L 3827 333 
C 3706 307 3507 300 3411 300 
C 3283 300 3174 300 3174 115 
C 3174 32 3245 0 3315 0 
C 3526 0 4058 19 4269 19 
C 4416 19 4563 12 4710 12 
C 4858 12 5011 0 5158 0 
C 5216 0 5338 0 5338 185 
C 5338 300 5242 300 5082 300 
C 4992 300 4922 300 4832 307 
C 4755 313 4749 320 4730 430 
L 4128 4358 
z
M 3354 3411 
L 3635 1580 
L 2150 1580 
L 3354 3411 
z
" transform="scale(0.015625)"/>
       <path id="CMBX12-31" d="M 2214 4034 
C 2214 4224 2202 4224 1997 4224 
C 1523 3795 813 3795 672 3795 
L 550 3795 
L 550 3520 
L 672 3520 
C 896 3520 1235 3558 1491 3641 
L 1491 275 
L 602 275 
L 602 0 
C 870 12 1542 12 1843 12 
C 2144 12 2822 12 3091 0 
L 3091 275 
L 2214 275 
L 2214 4034 
z
" transform="scale(0.015625)"/>
       <path id="CMBX12-38" d="M 2413 2375 
C 2733 2542 3091 2780 3091 3280 
C 3091 3942 2502 4224 1805 4224 
C 954 4224 499 3736 499 3113 
C 499 2767 672 2381 1146 2131 
C 422 1810 301 1367 301 1033 
C 301 294 941 -64 1786 -64 
C 2733 -64 3290 448 3290 1193 
C 3290 1893 2739 2195 2413 2375 
z
M 1261 3036 
C 1133 3107 954 3255 954 3467 
C 954 3980 1638 3993 1786 3993 
C 2330 3993 2637 3704 2637 3280 
C 2637 3017 2522 2741 2157 2529 
L 1261 3036 
z
M 1408 1977 
L 2291 1469 
C 2502 1347 2778 1193 2778 866 
C 2778 352 2266 192 1805 192 
C 1171 192 813 532 813 1039 
C 813 1508 1101 1803 1408 1977 
z
" transform="scale(0.015625)"/>
       <path id="CMBX12-30" d="M 3309 2060 
C 3309 2677 3309 4224 1798 4224 
C 282 4224 282 2683 282 2060 
C 282 1444 282 -64 1792 -64 
C 3302 -64 3309 1424 3309 2060 
z
M 1798 147 
C 1594 147 1440 230 1312 365 
C 1152 526 1050 628 1050 2137 
C 1050 2587 1050 2998 1101 3331 
C 1190 3967 1651 4012 1792 4012 
C 1997 4012 2394 3916 2483 3376 
C 2541 3049 2541 2529 2541 2137 
C 2541 622 2445 532 2253 339 
C 2125 211 1952 147 1798 147 
z
" transform="scale(0.015625)"/>
       <path id="CMBX12-48" d="M 4704 4140 
L 5382 4140 
L 5382 4416 
C 5197 4403 4512 4403 4282 4403 
C 4051 4403 3366 4403 3181 4416 
L 3181 4140 
L 3859 4140 
L 3859 2432 
L 1766 2432 
L 1766 4140 
L 2445 4140 
L 2445 4416 
C 2259 4403 1574 4403 1344 4403 
C 1114 4403 429 4403 243 4416 
L 243 4140 
L 922 4140 
L 922 275 
L 243 275 
L 243 0 
C 429 12 1114 12 1344 12 
C 1574 12 2259 12 2445 0 
L 2445 275 
L 1766 275 
L 1766 2156 
L 3859 2156 
L 3859 275 
L 3181 275 
L 3181 0 
C 3366 12 4051 12 4282 12 
C 4512 12 5197 12 5382 0 
L 5382 275 
L 4704 275 
L 4704 4140 
z
" transform="scale(0.015625)"/>
       <path id="CMBX12-7a" d="M 2816 2573 
C 2874 2643 2874 2655 2874 2694 
C 2874 2816 2810 2816 2688 2816 
L 371 2816 
L 301 1724 
L 570 1724 
C 608 2326 749 2604 1459 2604 
L 2035 2604 
L 256 255 
C 198 185 198 172 198 128 
C 198 0 256 0 384 0 
L 2784 0 
L 2893 1256 
L 2624 1256 
C 2573 585 2432 230 1626 230 
L 1043 230 
L 2816 2573 
z
" transform="scale(0.015625)"/>
       <path id="CMBX12-3d" d="M 4934 2112 
C 5030 2112 5197 2112 5197 2291 
C 5197 2464 5024 2464 4941 2464 
L 653 2464 
C 570 2464 397 2464 397 2291 
C 397 2112 563 2112 659 2112 
L 4934 2112 
z
M 4941 735 
C 5024 735 5197 735 5197 908 
C 5197 1088 5030 1088 4934 1088 
L 659 1088 
C 563 1088 397 1088 397 908 
C 397 735 570 735 653 735 
L 4941 735 
z
" transform="scale(0.015625)"/>
       <path id="CMMIB10-3a" d="M 1517 499 
C 1517 774 1293 998 1018 998 
C 742 998 518 774 518 499 
C 518 224 742 0 1018 0 
C 1293 0 1517 224 1517 499 
z
" transform="scale(0.015625)"/>
       <path id="CMBX12-39" d="M 2477 1818 
C 2477 1366 2477 192 1478 192 
C 1280 192 1050 238 915 332 
C 1101 371 1235 505 1235 710 
C 1235 940 1062 1088 858 1088 
C 691 1088 480 979 480 697 
C 480 256 832 -64 1491 -64 
C 2304 -64 3290 454 3290 2120 
C 3290 2552 3290 4224 1811 4224 
C 928 4224 301 3710 301 2828 
C 301 1934 915 1452 1683 1452 
C 1952 1452 2272 1548 2477 2005 
L 2477 1818 
z
M 1747 1664 
C 1114 1664 1114 2185 1114 2815 
C 1114 3433 1114 3993 1811 3993 
C 2221 3993 2368 3626 2394 3556 
C 2458 3362 2470 2963 2470 2751 
C 2470 2301 2285 1664 1747 1664 
z
" transform="scale(0.015625)"/>
      </defs>
      <use xlink:href="#CMBX12-50" transform="scale(0.996264)"/>
      <use xlink:href="#CMBX12-65" transform="translate(73.451486 0) scale(0.996264)"/>
      <use xlink:href="#CMBX12-72" transform="translate(124.590753 0) scale(0.996264)"/>
      <use xlink:href="#CMBX12-6d" transform="translate(170.36826 0) scale(0.996264)"/>
      <use xlink:href="#CMBX12-61" transform="translate(263.768011 0) scale(0.996264)"/>
      <use xlink:href="#CMBX12-6e" transform="translate(318.251199 0) scale(0.996264)"/>
      <use xlink:href="#CMBX12-65" transform="translate(380.5177 0) scale(0.996264)"/>
      <use xlink:href="#CMBX12-6e" transform="translate(431.656967 0) scale(0.996264)"/>
      <use xlink:href="#CMBX12-74" transform="translate(490.810143 0) scale(0.996264)"/>
      <use xlink:href="#CMBX12-4d" transform="translate(564.472659 0) scale(0.996264)"/>
      <use xlink:href="#CMBX12-61" transform="translate(670.787084 0) scale(0.996264)"/>
      <use xlink:href="#CMBX12-67" transform="translate(725.270272 0) scale(0.996264)"/>
      <use xlink:href="#CMBX12-6e" transform="translate(781.310123 0) scale(0.996264)"/>
      <use xlink:href="#CMBX12-65" transform="translate(843.576624 0) scale(0.996264)"/>
      <use xlink:href="#CMBX12-74" transform="translate(894.715891 0) scale(0.996264)"/>
      <use xlink:href="#CMBX12-73" transform="translate(938.302441 0) scale(0.996264)"/>
      <use xlink:href="#CMBX12-3a" transform="translate(1014.33671 0) scale(0.996264)"/>
      <use xlink:href="#CMMIB10-41" transform="translate(1107.370858 0) scale(0.996264)"/>
      <use xlink:href="#CMBX12-31" transform="translate(1193.990036 -14.943915) scale(0.697382)"/>
      <use xlink:href="#CMBX12-38" transform="translate(1233.217749 -14.943915) scale(0.697382)"/>
      <use xlink:href="#CMBX12-30" transform="translate(1272.445462 -14.943915) scale(0.697382)"/>
      <use xlink:href="#CMBX12-48" transform="translate(1311.673175 -14.943915) scale(0.697382)"/>
      <use xlink:href="#CMBX12-7a" transform="translate(1373.017034 -14.943915) scale(0.697382)"/>
      <use xlink:href="#CMBX12-3d" transform="translate(1440.209186 0) scale(0.996264)"/>
      <use xlink:href="#CMBX12-30" transform="translate(1559.207218 0) scale(0.996264)"/>
      <use xlink:href="#CMMIB10-3a" transform="translate(1615.247068 0) scale(0.996264)"/>
      <use xlink:href="#CMBX12-30" transform="translate(1647.072 0) scale(0.996264)"/>
      <use xlink:href="#CMBX12-39" transform="translate(1703.11185 0) scale(0.996264)"/>
      <use xlink:href="#CMBX12-6d" transform="translate(1759.151701 0) scale(0.996264)"/>
      <use xlink:href="#CMBX12-47" transform="translate(1852.551452 0) scale(0.996264)"/>
     </g>
    </g>
   </g>
  </g>
 </g>
 <defs>
  <clipPath id="p177f0b9dc0">
   <rect x="135" y="51.84" width="837" height="332.64"/>
  </clipPath>
 </defs>
</svg>
