<?xml version="1.0" encoding="utf-8" standalone="no"?>
<!DOCTYPE svg PUBLIC "-//W3C//DTD SVG 1.1//EN"
  "http://www.w3.org/Graphics/SVG/1.1/DTD/svg11.dtd">
<svg xmlns:xlink="http://www.w3.org/1999/xlink" width="1080pt" height="432pt" viewBox="0 0 1080 432" xmlns="http://www.w3.org/2000/svg" version="1.1">
 <metadata>
  <rdf:RDF xmlns:dc="http://purl.org/dc/elements/1.1/" xmlns:cc="http://creativecommons.org/ns#" xmlns:rdf="http://www.w3.org/1999/02/22-rdf-syntax-ns#">
   <cc:Work>
    <dc:type rdf:resource="http://purl.org/dc/dcmitype/StillImage"/>
    <dc:date>2025-11-21T18:12:46.584918</dc:date>
    <dc:format>image/svg+xml</dc:format>
    <dc:creator>
     <cc:Agent>
      <dc:title>Matplotlib v3.10.0, https://matplotlib.org/</dc:title>
     </cc:Agent>
    </dc:creator>
   </cc:Work>
  </rdf:RDF>
 </metadata>
 <defs>
  <style type="text/css">*{stroke-linejoin: round; stroke-linecap: butt}</style>
 </defs>
 <g id="figure_1">
  <g id="patch_1">
   <path d="M 0 432 
L 1080 432 
L 1080 0 
L 0 0 
z
" style="fill: #ffffff"/>
  </g>
  <g id="axes_1">
   <g id="patch_2">
    <path d="M 65.386292 372.562089 
L 1052.783139 372.562089 
L 1052.783139 32.020693 
L 65.386292 32.020693 
z
" style="fill: #ffffff"/>
   </g>
   <g id="matplotlib.axis_1">
    <g id="xtick_1">
     <g id="line2d_1">
      <path d="M 110.267967 372.562089 
L 110.267967 32.020693 
" clip-path="url(#p5f956fa32b)" style="fill: none; stroke: #b0b0b0; stroke-width: 0.8; stroke-linecap: square"/>
     </g>
     <g id="line2d_2">
      <defs>
       <path id="m5f4a0cf347" d="M 0 0 
L 0 3.5 
" style="stroke: #000000; stroke-width: 0.8"/>
      </defs>
      <g>
       <use xlink:href="#m5f4a0cf347" x="110.267967" y="372.562089" style="stroke: #000000; stroke-width: 0.8"/>
      </g>
     </g>
     <g id="text_1">
      <!-- $\mathdefault{0.0}$ -->
      <g transform="translate(98.420154 393.399086) scale(0.2 -0.2)">
       <defs>
        <path id="CMR17-30" d="M 2688 2038 
C 2688 2430 2682 3099 2413 3613 
C 2176 4063 1798 4224 1466 4224 
C 1158 4224 768 4082 525 3620 
C 269 3137 243 2539 243 2038 
C 243 1671 250 1112 448 623 
C 723 -39 1216 -128 1466 -128 
C 1760 -128 2208 -7 2470 604 
C 2662 1048 2688 1568 2688 2038 
z
M 1466 -26 
C 1056 -26 813 328 723 816 
C 653 1196 653 1749 653 2109 
C 653 2604 653 3015 736 3407 
C 858 3954 1216 4121 1466 4121 
C 1728 4121 2067 3947 2189 3420 
C 2272 3054 2278 2623 2278 2109 
C 2278 1691 2278 1176 2202 797 
C 2067 96 1690 -26 1466 -26 
z
" transform="scale(0.015625)"/>
        <path id="CMMI12-3a" d="M 1178 307 
C 1178 492 1024 620 870 620 
C 685 620 557 467 557 313 
C 557 128 710 0 864 0 
C 1050 0 1178 153 1178 307 
z
" transform="scale(0.015625)"/>
       </defs>
       <use xlink:href="#CMR17-30" transform="scale(0.996264)"/>
       <use xlink:href="#CMMI12-3a" transform="translate(45.690477 0) scale(0.996264)"/>
       <use xlink:href="#CMR17-30" transform="translate(72.787654 0) scale(0.996264)"/>
      </g>
     </g>
    </g>
    <g id="xtick_2">
     <g id="line2d_3">
      <path d="M 244.912991 372.562089 
L 244.912991 32.020693 
" clip-path="url(#p5f956fa32b)" style="fill: none; stroke: #b0b0b0; stroke-width: 0.8; stroke-linecap: square"/>
     </g>
     <g id="line2d_4">
      <g>
       <use xlink:href="#m5f4a0cf347" x="244.912991" y="372.562089" style="stroke: #000000; stroke-width: 0.8"/>
      </g>
     </g>
     <g id="text_2">
      <!-- $\mathdefault{2.5}$ -->
      <g transform="translate(233.065178 393.399086) scale(0.2 -0.2)">
       <defs>
        <path id="CMR17-32" d="M 2669 990 
L 2554 990 
C 2490 537 2438 460 2413 422 
C 2381 371 1920 371 1830 371 
L 602 371 
C 832 620 1280 1073 1824 1596 
C 2214 1966 2669 2400 2669 3033 
C 2669 3788 2067 4224 1395 4224 
C 691 4224 262 3603 262 3027 
C 262 2777 448 2745 525 2745 
C 589 2745 781 2783 781 3007 
C 781 3206 614 3264 525 3264 
C 486 3264 448 3257 422 3244 
C 544 3788 915 4057 1306 4057 
C 1862 4057 2227 3616 2227 3033 
C 2227 2477 1901 1998 1536 1583 
L 262 147 
L 262 0 
L 2515 0 
L 2669 990 
z
" transform="scale(0.015625)"/>
        <path id="CMR17-35" d="M 730 3750 
C 794 3724 1056 3641 1325 3641 
C 1920 3641 2246 3961 2432 4140 
C 2432 4191 2432 4224 2394 4224 
C 2387 4224 2374 4224 2323 4198 
C 2099 4102 1837 4032 1517 4032 
C 1325 4032 1037 4055 723 4191 
C 653 4224 640 4224 634 4224 
C 602 4224 595 4217 595 4090 
L 595 2231 
C 595 2113 595 2080 659 2080 
C 691 2080 704 2093 736 2139 
C 941 2435 1222 2560 1542 2560 
C 1766 2560 2246 2415 2246 1293 
C 2246 1087 2246 716 2054 422 
C 1894 159 1645 25 1370 25 
C 947 25 518 319 403 812 
C 429 806 480 793 506 793 
C 589 793 749 838 749 1036 
C 749 1209 627 1280 506 1280 
C 358 1280 262 1190 262 1011 
C 262 454 704 -128 1382 -128 
C 2042 -128 2669 441 2669 1267 
C 2669 2054 2170 2662 1549 2662 
C 1222 2662 947 2540 730 2304 
L 730 3750 
z
" transform="scale(0.015625)"/>
       </defs>
       <use xlink:href="#CMR17-32" transform="scale(0.996264)"/>
       <use xlink:href="#CMMI12-3a" transform="translate(45.690477 0) scale(0.996264)"/>
       <use xlink:href="#CMR17-35" transform="translate(72.787654 0) scale(0.996264)"/>
      </g>
     </g>
    </g>
    <g id="xtick_3">
     <g id="line2d_5">
      <path d="M 379.558016 372.562089 
L 379.558016 32.020693 
" clip-path="url(#p5f956fa32b)" style="fill: none; stroke: #b0b0b0; stroke-width: 0.8; stroke-linecap: square"/>
     </g>
     <g id="line2d_6">
      <g>
       <use xlink:href="#m5f4a0cf347" x="379.558016" y="372.562089" style="stroke: #000000; stroke-width: 0.8"/>
      </g>
     </g>
     <g id="text_3">
      <!-- $\mathdefault{5.0}$ -->
      <g transform="translate(367.710203 393.399086) scale(0.2 -0.2)">
       <use xlink:href="#CMR17-35" transform="scale(0.996264)"/>
       <use xlink:href="#CMMI12-3a" transform="translate(45.690477 0) scale(0.996264)"/>
       <use xlink:href="#CMR17-30" transform="translate(72.787654 0) scale(0.996264)"/>
      </g>
     </g>
    </g>
    <g id="xtick_4">
     <g id="line2d_7">
      <path d="M 514.203041 372.562089 
L 514.203041 32.020693 
" clip-path="url(#p5f956fa32b)" style="fill: none; stroke: #b0b0b0; stroke-width: 0.8; stroke-linecap: square"/>
     </g>
     <g id="line2d_8">
      <g>
       <use xlink:href="#m5f4a0cf347" x="514.203041" y="372.562089" style="stroke: #000000; stroke-width: 0.8"/>
      </g>
     </g>
     <g id="text_4">
      <!-- $\mathdefault{7.5}$ -->
      <g transform="translate(502.355228 393.399086) scale(0.2 -0.2)">
       <defs>
        <path id="CMR17-37" d="M 2886 3955 
L 2886 4096 
L 1382 4096 
C 634 4096 621 4166 595 4288 
L 480 4288 
L 294 3104 
L 410 3104 
C 429 3226 474 3552 550 3673 
C 589 3724 1062 3724 1171 3724 
L 2579 3724 
L 1869 2670 
C 1395 1961 1069 1003 1069 166 
C 1069 89 1069 -128 1299 -128 
C 1530 -128 1530 89 1530 172 
L 1530 466 
C 1530 1514 1709 2204 2003 2644 
L 2886 3955 
z
" transform="scale(0.015625)"/>
       </defs>
       <use xlink:href="#CMR17-37" transform="scale(0.996264)"/>
       <use xlink:href="#CMMI12-3a" transform="translate(45.690477 0) scale(0.996264)"/>
       <use xlink:href="#CMR17-35" transform="translate(72.787654 0) scale(0.996264)"/>
      </g>
     </g>
    </g>
    <g id="xtick_5">
     <g id="line2d_9">
      <path d="M 648.848065 372.562089 
L 648.848065 32.020693 
" clip-path="url(#p5f956fa32b)" style="fill: none; stroke: #b0b0b0; stroke-width: 0.8; stroke-linecap: square"/>
     </g>
     <g id="line2d_10">
      <g>
       <use xlink:href="#m5f4a0cf347" x="648.848065" y="372.562089" style="stroke: #000000; stroke-width: 0.8"/>
      </g>
     </g>
     <g id="text_5">
      <!-- $\mathdefault{10.0}$ -->
      <g transform="translate(632.431204 393.399086) scale(0.2 -0.2)">
       <defs>
        <path id="CMR17-31" d="M 1702 4083 
C 1702 4217 1696 4224 1606 4224 
C 1357 3927 979 3833 621 3820 
C 602 3820 570 3820 563 3808 
C 557 3795 557 3782 557 3648 
C 755 3648 1088 3686 1344 3839 
L 1344 467 
C 1344 243 1331 166 781 166 
L 589 166 
L 589 0 
C 896 6 1216 12 1523 12 
C 1830 12 2150 6 2458 0 
L 2458 166 
L 2266 166 
C 1715 166 1702 236 1702 467 
L 1702 4083 
z
" transform="scale(0.015625)"/>
       </defs>
       <use xlink:href="#CMR17-31" transform="scale(0.996264)"/>
       <use xlink:href="#CMR17-30" transform="translate(45.690477 0) scale(0.996264)"/>
       <use xlink:href="#CMMI12-3a" transform="translate(91.380954 0) scale(0.996264)"/>
       <use xlink:href="#CMR17-30" transform="translate(118.478131 0) scale(0.996264)"/>
      </g>
     </g>
    </g>
    <g id="xtick_6">
     <g id="line2d_11">
      <path d="M 783.49309 372.562089 
L 783.49309 32.020693 
" clip-path="url(#p5f956fa32b)" style="fill: none; stroke: #b0b0b0; stroke-width: 0.8; stroke-linecap: square"/>
     </g>
     <g id="line2d_12">
      <g>
       <use xlink:href="#m5f4a0cf347" x="783.49309" y="372.562089" style="stroke: #000000; stroke-width: 0.8"/>
      </g>
     </g>
     <g id="text_6">
      <!-- $\mathdefault{12.5}$ -->
      <g transform="translate(767.076229 393.399086) scale(0.2 -0.2)">
       <use xlink:href="#CMR17-31" transform="scale(0.996264)"/>
       <use xlink:href="#CMR17-32" transform="translate(45.690477 0) scale(0.996264)"/>
       <use xlink:href="#CMMI12-3a" transform="translate(91.380954 0) scale(0.996264)"/>
       <use xlink:href="#CMR17-35" transform="translate(118.478131 0) scale(0.996264)"/>
      </g>
     </g>
    </g>
    <g id="xtick_7">
     <g id="line2d_13">
      <path d="M 918.138115 372.562089 
L 918.138115 32.020693 
" clip-path="url(#p5f956fa32b)" style="fill: none; stroke: #b0b0b0; stroke-width: 0.8; stroke-linecap: square"/>
     </g>
     <g id="line2d_14">
      <g>
       <use xlink:href="#m5f4a0cf347" x="918.138115" y="372.562089" style="stroke: #000000; stroke-width: 0.8"/>
      </g>
     </g>
     <g id="text_7">
      <!-- $\mathdefault{15.0}$ -->
      <g transform="translate(901.721254 393.399086) scale(0.2 -0.2)">
       <use xlink:href="#CMR17-31" transform="scale(0.996264)"/>
       <use xlink:href="#CMR17-35" transform="translate(45.690477 0) scale(0.996264)"/>
       <use xlink:href="#CMMI12-3a" transform="translate(91.380954 0) scale(0.996264)"/>
       <use xlink:href="#CMR17-30" transform="translate(118.478131 0) scale(0.996264)"/>
      </g>
     </g>
    </g>
    <g id="xtick_8">
     <g id="line2d_15">
      <path d="M 1052.783139 372.562089 
L 1052.783139 32.020693 
" clip-path="url(#p5f956fa32b)" style="fill: none; stroke: #b0b0b0; stroke-width: 0.8; stroke-linecap: square"/>
     </g>
     <g id="line2d_16">
      <g>
       <use xlink:href="#m5f4a0cf347" x="1052.783139" y="372.562089" style="stroke: #000000; stroke-width: 0.8"/>
      </g>
     </g>
     <g id="text_8">
      <!-- $\mathdefault{17.5}$ -->
      <g transform="translate(1036.366278 393.399086) scale(0.2 -0.2)">
       <use xlink:href="#CMR17-31" transform="scale(0.996264)"/>
       <use xlink:href="#CMR17-37" transform="translate(45.690477 0) scale(0.996264)"/>
       <use xlink:href="#CMMI12-3a" transform="translate(91.380954 0) scale(0.996264)"/>
       <use xlink:href="#CMR17-35" transform="translate(118.478131 0) scale(0.996264)"/>
      </g>
     </g>
    </g>
    <g id="text_9">
     <!-- \boldmath$\mathbf{Time\ [ms]}$ -->
     <g transform="translate(510.727504 416.21868) scale(0.2 -0.2)">
      <defs>
       <path id="CMBX12-54" d="M 4608 4358 
L 390 4358 
L 262 2833 
L 531 2833 
C 589 3535 640 4083 1562 4083 
L 2080 4083 
L 2080 275 
L 1114 275 
L 1114 0 
C 1626 12 2285 12 2502 12 
C 2893 12 3379 12 3891 0 
L 3891 275 
L 2925 275 
L 2925 4083 
L 3437 4083 
C 4358 4083 4410 3542 4467 2833 
L 4736 2833 
L 4608 4358 
z
" transform="scale(0.015625)"/>
       <path id="CMBX12-69" d="M 1427 4019 
C 1427 4281 1216 4480 966 4480 
C 704 4480 506 4262 506 4019 
C 506 3775 704 3558 966 3558 
C 1216 3558 1427 3756 1427 4019 
z
M 301 2828 
L 301 2553 
C 678 2553 723 2553 723 2303 
L 723 275 
L 282 275 
L 282 0 
C 429 12 870 12 1043 12 
C 1222 12 1632 12 1786 0 
L 1786 275 
L 1389 275 
L 1389 2880 
L 301 2828 
z
" transform="scale(0.015625)"/>
       <path id="CMBX12-6d" d="M 5402 1958 
C 5402 2547 5152 2880 4435 2880 
C 3789 2880 3488 2444 3386 2240 
C 3283 2783 2848 2880 2438 2880 
C 1824 2880 1491 2483 1357 2176 
L 1350 2176 
L 1350 2880 
L 269 2828 
L 269 2553 
C 666 2553 710 2553 710 2304 
L 710 275 
L 269 275 
L 269 0 
C 416 12 877 12 1056 12 
C 1235 12 1702 12 1850 0 
L 1850 275 
L 1408 275 
L 1408 1638 
C 1408 2336 1926 2668 2330 2668 
C 2566 2668 2707 2528 2707 2028 
L 2707 275 
L 2266 275 
L 2266 0 
C 2413 12 2874 12 3053 12 
C 3232 12 3699 12 3846 0 
L 3846 275 
L 3405 275 
L 3405 1638 
C 3405 2336 3923 2668 4326 2668 
C 4563 2668 4704 2528 4704 2028 
L 4704 275 
L 4262 275 
L 4262 0 
C 4410 12 4870 12 5050 12 
C 5229 12 5696 12 5843 0 
L 5843 275 
L 5402 275 
L 5402 1958 
z
" transform="scale(0.015625)"/>
       <path id="CMBX12-65" d="M 2893 1408 
C 3040 1408 3078 1408 3078 1568 
C 3078 1758 3034 2232 2739 2529 
C 2470 2796 2112 2880 1741 2880 
C 742 2880 198 2232 198 1433 
C 198 523 858 -64 1824 -64 
C 2790 -64 3078 621 3078 731 
C 3078 829 2982 829 2944 829 
C 2842 829 2835 809 2797 725 
C 2630 302 2208 166 1901 166 
C 973 166 966 1043 966 1408 
L 2893 1408 
z
M 966 1593 
C 979 1852 986 2099 1120 2327 
C 1242 2529 1466 2668 1741 2668 
C 2426 2668 2483 1909 2490 1593 
L 966 1593 
z
" transform="scale(0.015625)"/>
       <path id="CMBX12-5b" d="M 1837 -1600 
L 1837 -1248 
L 1171 -1248 
L 1171 4447 
L 1837 4447 
L 1837 4800 
L 819 4800 
L 819 -1600 
L 1837 -1600 
z
" transform="scale(0.015625)"/>
       <path id="CMBX12-73" d="M 2413 2713 
C 2413 2835 2413 2880 2317 2880 
C 2278 2880 2266 2880 2170 2822 
C 2144 2803 2074 2758 2042 2739 
C 1862 2841 1626 2880 1395 2880 
C 1203 2880 243 2880 243 2046 
C 243 1372 1037 1231 1235 1199 
C 1408 1167 1619 1128 1645 1128 
C 1901 1071 2157 910 2157 641 
C 2157 147 1574 147 1440 147 
C 1114 147 710 249 531 872 
C 493 1000 486 1006 378 1006 
C 243 1006 243 987 243 840 
L 243 102 
C 243 -20 243 -64 339 -64 
C 384 -64 397 -64 525 38 
L 691 160 
C 979 -64 1325 -64 1440 -64 
C 1792 -64 2592 12 2592 865 
C 2592 1173 2426 1385 2298 1500 
C 2035 1719 1818 1757 1472 1821 
C 1062 1892 678 1962 678 2270 
C 678 2687 1248 2687 1382 2687 
C 2093 2687 2131 2238 2144 2078 
C 2150 1995 2202 1995 2278 1995 
C 2413 1995 2413 2014 2413 2161 
L 2413 2713 
z
" transform="scale(0.015625)"/>
       <path id="CMBX12-5d" d="M 1171 4800 
L 154 4800 
L 154 4447 
L 819 4447 
L 819 -1248 
L 154 -1248 
L 154 -1600 
L 1171 -1600 
L 1171 4800 
z
" transform="scale(0.015625)"/>
      </defs>
      <use xlink:href="#CMBX12-54" transform="scale(0.996264)"/>
      <use xlink:href="#CMBX12-69" transform="translate(77.94837 0) scale(0.996264)"/>
      <use xlink:href="#CMBX12-6d" transform="translate(109.081621 0) scale(0.996264)"/>
      <use xlink:href="#CMBX12-65" transform="translate(202.481372 0) scale(0.996264)"/>
      <use xlink:href="#CMBX12-5b" transform="translate(283.696605 0) scale(0.996264)"/>
      <use xlink:href="#CMBX12-6d" transform="translate(314.829856 0) scale(0.996264)"/>
      <use xlink:href="#CMBX12-73" transform="translate(408.229607 0) scale(0.996264)"/>
      <use xlink:href="#CMBX12-5d" transform="translate(452.438944 0) scale(0.996264)"/>
     </g>
    </g>
   </g>
   <g id="matplotlib.axis_2">
    <g id="ytick_1">
     <g id="line2d_17">
      <path d="M 65.386292 346.11176 
L 1052.783139 346.11176 
" clip-path="url(#p5f956fa32b)" style="fill: none; stroke: #b0b0b0; stroke-width: 0.8; stroke-linecap: square"/>
     </g>
     <g id="line2d_18">
      <defs>
       <path id="m19734c32c1" d="M 0 0 
L -3.5 0 
" style="stroke: #000000; stroke-width: 0.8"/>
      </defs>
      <g>
       <use xlink:href="#m19734c32c1" x="65.386292" y="346.11176" style="stroke: #000000; stroke-width: 0.8"/>
      </g>
     </g>
     <g id="text_10">
      <!-- $\mathdefault{0.0}$ -->
      <g transform="translate(34.690666 353.030259) scale(0.2 -0.2)">
       <use xlink:href="#CMR17-30" transform="scale(0.996264)"/>
       <use xlink:href="#CMMI12-3a" transform="translate(45.690477 0) scale(0.996264)"/>
       <use xlink:href="#CMR17-30" transform="translate(72.787654 0) scale(0.996264)"/>
      </g>
     </g>
    </g>
    <g id="ytick_2">
     <g id="line2d_19">
      <path d="M 65.386292 285.285726 
L 1052.783139 285.285726 
" clip-path="url(#p5f956fa32b)" style="fill: none; stroke: #b0b0b0; stroke-width: 0.8; stroke-linecap: square"/>
     </g>
     <g id="line2d_20">
      <g>
       <use xlink:href="#m19734c32c1" x="65.386292" y="285.285726" style="stroke: #000000; stroke-width: 0.8"/>
      </g>
     </g>
     <g id="text_11">
      <!-- $\mathdefault{0.5}$ -->
      <g transform="translate(34.690666 292.204224) scale(0.2 -0.2)">
       <use xlink:href="#CMR17-30" transform="scale(0.996264)"/>
       <use xlink:href="#CMMI12-3a" transform="translate(45.690477 0) scale(0.996264)"/>
       <use xlink:href="#CMR17-35" transform="translate(72.787654 0) scale(0.996264)"/>
      </g>
     </g>
    </g>
    <g id="ytick_3">
     <g id="line2d_21">
      <path d="M 65.386292 224.459692 
L 1052.783139 224.459692 
" clip-path="url(#p5f956fa32b)" style="fill: none; stroke: #b0b0b0; stroke-width: 0.8; stroke-linecap: square"/>
     </g>
     <g id="line2d_22">
      <g>
       <use xlink:href="#m19734c32c1" x="65.386292" y="224.459692" style="stroke: #000000; stroke-width: 0.8"/>
      </g>
     </g>
     <g id="text_12">
      <!-- $\mathdefault{1.0}$ -->
      <g transform="translate(34.690666 231.37819) scale(0.2 -0.2)">
       <use xlink:href="#CMR17-31" transform="scale(0.996264)"/>
       <use xlink:href="#CMMI12-3a" transform="translate(45.690477 0) scale(0.996264)"/>
       <use xlink:href="#CMR17-30" transform="translate(72.787654 0) scale(0.996264)"/>
      </g>
     </g>
    </g>
    <g id="ytick_4">
     <g id="line2d_23">
      <path d="M 65.386292 163.633658 
L 1052.783139 163.633658 
" clip-path="url(#p5f956fa32b)" style="fill: none; stroke: #b0b0b0; stroke-width: 0.8; stroke-linecap: square"/>
     </g>
     <g id="line2d_24">
      <g>
       <use xlink:href="#m19734c32c1" x="65.386292" y="163.633658" style="stroke: #000000; stroke-width: 0.8"/>
      </g>
     </g>
     <g id="text_13">
      <!-- $\mathdefault{1.5}$ -->
      <g transform="translate(34.690666 170.552156) scale(0.2 -0.2)">
       <use xlink:href="#CMR17-31" transform="scale(0.996264)"/>
       <use xlink:href="#CMMI12-3a" transform="translate(45.690477 0) scale(0.996264)"/>
       <use xlink:href="#CMR17-35" transform="translate(72.787654 0) scale(0.996264)"/>
      </g>
     </g>
    </g>
    <g id="ytick_5">
     <g id="line2d_25">
      <path d="M 65.386292 102.807623 
L 1052.783139 102.807623 
" clip-path="url(#p5f956fa32b)" style="fill: none; stroke: #b0b0b0; stroke-width: 0.8; stroke-linecap: square"/>
     </g>
     <g id="line2d_26">
      <g>
       <use xlink:href="#m19734c32c1" x="65.386292" y="102.807623" style="stroke: #000000; stroke-width: 0.8"/>
      </g>
     </g>
     <g id="text_14">
      <!-- $\mathdefault{2.0}$ -->
      <g transform="translate(34.690666 109.726122) scale(0.2 -0.2)">
       <use xlink:href="#CMR17-32" transform="scale(0.996264)"/>
       <use xlink:href="#CMMI12-3a" transform="translate(45.690477 0) scale(0.996264)"/>
       <use xlink:href="#CMR17-30" transform="translate(72.787654 0) scale(0.996264)"/>
      </g>
     </g>
    </g>
    <g id="ytick_6">
     <g id="line2d_27">
      <path d="M 65.386292 41.981589 
L 1052.783139 41.981589 
" clip-path="url(#p5f956fa32b)" style="fill: none; stroke: #b0b0b0; stroke-width: 0.8; stroke-linecap: square"/>
     </g>
     <g id="line2d_28">
      <g>
       <use xlink:href="#m19734c32c1" x="65.386292" y="41.981589" style="stroke: #000000; stroke-width: 0.8"/>
      </g>
     </g>
     <g id="text_15">
      <!-- $\mathdefault{2.5}$ -->
      <g transform="translate(34.690666 48.900088) scale(0.2 -0.2)">
       <use xlink:href="#CMR17-32" transform="scale(0.996264)"/>
       <use xlink:href="#CMMI12-3a" transform="translate(45.690477 0) scale(0.996264)"/>
       <use xlink:href="#CMR17-35" transform="translate(72.787654 0) scale(0.996264)"/>
      </g>
     </g>
    </g>
    <g id="text_16">
     <!-- $\mathbf{Magnetic\ Field\ [mG]}$ -->
     <g transform="translate(25.726022 301.520509) rotate(-90) scale(0.2 -0.2)">
      <defs>
       <path id="CMBX12-4d" d="M 3411 816 
L 1875 4281 
C 1818 4416 1760 4416 1626 4416 
L 262 4416 
L 262 4140 
L 941 4140 
L 941 468 
C 941 326 934 320 768 294 
C 653 281 525 275 410 275 
L 262 275 
L 262 0 
C 410 12 909 12 1088 12 
C 1267 12 1773 12 1920 0 
L 1920 275 
L 1773 275 
C 1600 275 1587 275 1434 294 
C 1248 320 1242 326 1242 468 
L 1242 4063 
L 1248 4063 
L 2989 134 
C 3021 64 3059 0 3168 0 
C 3277 0 3315 64 3347 134 
L 5120 4140 
L 5126 4140 
L 5126 275 
L 4448 275 
L 4448 0 
C 4621 12 5286 12 5504 12 
C 5722 12 6387 12 6560 0 
L 6560 275 
L 5882 275 
L 5882 4140 
L 6560 4140 
L 6560 4416 
L 5197 4416 
C 5062 4416 5005 4416 4947 4281 
L 3411 816 
z
" transform="scale(0.015625)"/>
       <path id="CMBX12-61" d="M 2944 1894 
C 2944 2483 2477 2880 1574 2880 
C 1216 2880 461 2847 461 2310 
C 461 2041 666 1926 838 1926 
C 1030 1926 1216 2060 1216 2303 
C 1216 2425 1171 2540 1062 2611 
C 1274 2668 1427 2668 1549 2668 
C 1984 2668 2246 2425 2246 1900 
L 2246 1644 
C 1235 1644 218 1362 218 648 
C 218 64 960 -64 1402 -64 
C 1894 -64 2208 205 2336 488 
C 2336 250 2336 -26 2982 -26 
L 3309 -26 
C 3443 -26 3494 -26 3494 115 
C 3494 250 3437 250 3347 250 
C 2944 256 2944 359 2944 507 
L 2944 1894 
z
M 2246 867 
C 2246 262 1709 147 1504 147 
C 1190 147 928 359 928 655 
C 928 1240 1619 1439 2246 1472 
L 2246 867 
z
" transform="scale(0.015625)"/>
       <path id="CMBX12-67" d="M 832 1177 
C 1139 1011 1498 1011 1594 1011 
C 2477 1011 2829 1506 2829 1958 
C 2829 2287 2643 2519 2566 2584 
C 2752 2687 2906 2713 3014 2726 
C 2995 2694 2976 2668 2976 2584 
C 2976 2448 3066 2326 3232 2326 
C 3398 2326 3488 2448 3488 2584 
C 3488 2739 3373 2944 3104 2944 
C 2829 2944 2566 2809 2432 2694 
C 2170 2847 1920 2905 1594 2905 
C 710 2905 358 2410 358 1958 
C 358 1758 422 1493 691 1274 
C 582 1151 467 926 467 693 
C 467 416 614 179 749 76 
C 595 38 198 -109 198 -474 
C 198 -852 614 -1280 1792 -1280 
C 2854 -1280 3392 -935 3392 -455 
C 3392 108 3021 294 2861 371 
C 2554 524 2144 524 1581 524 
C 1421 524 1139 524 1107 531 
C 832 576 755 823 755 946 
C 755 998 762 1094 832 1177 
z
M 1594 1216 
C 1037 1216 1037 1661 1037 1958 
C 1037 2255 1037 2700 1594 2700 
C 2150 2700 2150 2255 2150 1958 
C 2150 1661 2150 1216 1594 1216 
z
M 1952 -64 
C 2419 -64 2867 -148 2867 -480 
C 2867 -704 2643 -1076 1798 -1076 
C 954 -1076 723 -717 723 -474 
C 723 -64 1126 -64 1222 -64 
L 1952 -64 
z
" transform="scale(0.015625)"/>
       <path id="CMBX12-6e" d="M 3398 1958 
C 3398 2566 3136 2880 2432 2880 
C 1971 2880 1574 2656 1357 2176 
L 1350 2176 
L 1350 2880 
L 269 2828 
L 269 2553 
C 666 2553 710 2553 710 2304 
L 710 275 
L 269 275 
L 269 0 
C 416 12 877 12 1056 12 
C 1235 12 1702 12 1850 0 
L 1850 275 
L 1408 275 
L 1408 1638 
C 1408 2329 1920 2668 2330 2668 
C 2566 2668 2701 2515 2701 2028 
L 2701 275 
L 2259 275 
L 2259 0 
C 2406 12 2867 12 3046 12 
C 3226 12 3693 12 3840 0 
L 3840 275 
L 3398 275 
L 3398 1958 
z
" transform="scale(0.015625)"/>
       <path id="CMBX12-74" d="M 1350 2540 
L 2272 2540 
L 2272 2816 
L 1350 2816 
L 1350 4032 
L 1082 4032 
C 1075 3401 768 2771 134 2751 
L 134 2540 
L 653 2540 
L 653 761 
C 653 83 1178 -64 1638 -64 
C 2112 -64 2394 294 2394 768 
L 2394 1107 
L 2125 1107 
L 2125 774 
C 2125 352 1933 166 1734 166 
C 1350 166 1350 595 1350 742 
L 1350 2540 
z
" transform="scale(0.015625)"/>
       <path id="CMBX12-63" d="M 2995 724 
C 2995 801 2925 801 2861 801 
C 2758 801 2752 795 2720 718 
C 2675 596 2502 166 1914 166 
C 1011 166 1011 1141 1011 1430 
C 1011 1808 1018 2649 1856 2649 
C 1901 2649 2278 2636 2278 2604 
C 2278 2598 2272 2591 2259 2585 
C 2240 2566 2157 2469 2157 2309 
C 2157 2039 2374 1930 2534 1930 
C 2669 1930 2912 2014 2912 2315 
C 2912 2841 2176 2880 1830 2880 
C 691 2880 243 2136 243 1398 
C 243 525 851 -64 1792 -64 
C 2797 -64 2995 679 2995 724 
z
" transform="scale(0.015625)"/>
       <path id="CMBX12-46" d="M 4032 4383 
L 243 4383 
L 243 4108 
L 922 4108 
L 922 275 
L 243 275 
L 243 0 
C 429 12 1158 12 1395 12 
C 1734 12 2304 12 2618 0 
L 2618 275 
L 1766 275 
L 1766 2048 
L 2118 2048 
C 2733 2048 2784 1765 2784 1296 
L 3053 1296 
L 3053 3080 
L 2784 3080 
C 2784 2607 2733 2323 2118 2323 
L 1766 2323 
L 1766 4108 
L 2682 4108 
C 3699 4108 3859 3636 3949 2853 
L 4218 2853 
L 4032 4383 
z
" transform="scale(0.015625)"/>
       <path id="CMBX12-6c" d="M 1389 4480 
L 282 4428 
L 282 4153 
C 678 4153 723 4153 723 3901 
L 723 275 
L 282 275 
L 282 0 
C 429 12 883 12 1056 12 
C 1229 12 1683 12 1830 0 
L 1830 275 
L 1389 275 
L 1389 4480 
z
" transform="scale(0.015625)"/>
       <path id="CMBX12-64" d="M 2221 4428 
L 2221 4153 
C 2618 4153 2662 4153 2662 3896 
L 2662 2571 
C 2522 2694 2240 2880 1798 2880 
C 890 2880 243 2313 243 1408 
C 243 483 877 -64 1728 -64 
C 2080 -64 2381 57 2630 270 
L 2630 -64 
L 3770 -26 
L 3770 250 
C 3373 250 3328 250 3328 502 
L 3328 4480 
L 2221 4428 
z
M 2630 625 
C 2362 231 2035 147 1805 147 
C 1011 147 1011 968 1011 1395 
C 1011 1699 1011 2022 1152 2268 
C 1350 2630 1728 2668 1875 2668 
C 2138 2668 2419 2552 2630 2268 
L 2630 625 
z
" transform="scale(0.015625)"/>
       <path id="CMR17-5b" d="M 1504 -1600 
L 1504 -1376 
L 902 -1376 
L 902 4575 
L 1504 4575 
L 1504 4800 
L 678 4800 
L 678 -1600 
L 1504 -1600 
z
" transform="scale(0.015625)"/>
       <path id="CMBX12-47" d="M 4794 1472 
L 5293 1472 
L 5293 1747 
C 5139 1734 4454 1734 4250 1734 
C 3859 1734 3437 1734 3046 1747 
L 3046 1472 
L 3949 1472 
L 3949 825 
C 3949 692 3949 515 3693 356 
C 3565 274 3366 211 3098 211 
C 2733 211 2099 299 1702 762 
C 1453 1047 1299 1434 1299 2204 
C 1299 2866 1408 3317 1696 3657 
C 2106 4140 2746 4204 3053 4204 
C 3533 4204 4307 3934 4499 2802 
C 4512 2744 4570 2744 4646 2744 
C 4794 2744 4794 2757 4794 2911 
L 4794 4313 
C 4794 4460 4794 4480 4653 4480 
L 4173 4018 
C 3814 4326 3386 4480 2912 4480 
C 1382 4480 397 3548 397 2197 
C 397 882 1350 -64 2918 -64 
C 3347 -64 3853 32 4115 369 
C 4333 166 4698 12 4717 12 
C 4794 12 4794 76 4794 179 
L 4794 1472 
z
" transform="scale(0.015625)"/>
       <path id="CMR17-5d" d="M 915 4800 
L 90 4800 
L 90 4575 
L 691 4575 
L 691 -1376 
L 90 -1376 
L 90 -1600 
L 915 -1600 
L 915 4800 
z
" transform="scale(0.015625)"/>
      </defs>
      <use xlink:href="#CMBX12-4d" transform="scale(0.996264)"/>
      <use xlink:href="#CMBX12-61" transform="translate(106.314425 0) scale(0.996264)"/>
      <use xlink:href="#CMBX12-67" transform="translate(160.797613 0) scale(0.996264)"/>
      <use xlink:href="#CMBX12-6e" transform="translate(216.837464 0) scale(0.996264)"/>
      <use xlink:href="#CMBX12-65" transform="translate(279.103964 0) scale(0.996264)"/>
      <use xlink:href="#CMBX12-74" transform="translate(330.243232 0) scale(0.996264)"/>
      <use xlink:href="#CMBX12-69" transform="translate(373.829782 0) scale(0.996264)"/>
      <use xlink:href="#CMBX12-63" transform="translate(404.963032 0) scale(0.996264)"/>
      <use xlink:href="#CMBX12-46" transform="translate(484.852199 0) scale(0.996264)"/>
      <use xlink:href="#CMBX12-69" transform="translate(555.30562 0) scale(0.996264)"/>
      <use xlink:href="#CMBX12-65" transform="translate(586.43887 0) scale(0.996264)"/>
      <use xlink:href="#CMBX12-6c" transform="translate(637.578137 0) scale(0.996264)"/>
      <use xlink:href="#CMBX12-64" transform="translate(668.711387 0) scale(0.996264)"/>
      <use xlink:href="#CMR17-5b" transform="translate(761.053854 0) scale(0.996264)"/>
      <use xlink:href="#CMBX12-6d" transform="translate(785.924913 0) scale(0.996264)"/>
      <use xlink:href="#CMBX12-47" transform="translate(879.324664 0) scale(0.996264)"/>
      <use xlink:href="#CMR17-5d" transform="translate(967.420224 0) scale(0.996264)"/>
     </g>
    </g>
   </g>
   <g id="LineCollection_1">
    <path d="M 110.267967 353.668437 
L 110.267967 342.719751 
" clip-path="url(#p5f956fa32b)" style="fill: none; stroke: #ff0000; stroke-width: 1.5"/>
    <path d="M 153.012419 331.394009 
L 153.012419 320.445323 
" clip-path="url(#p5f956fa32b)" style="fill: none; stroke: #ff0000; stroke-width: 1.5"/>
    <path d="M 110.267967 355.271577 
L 110.267967 344.322891 
" clip-path="url(#p5f956fa32b)" style="fill: none; stroke: #ff0000; stroke-width: 1.5"/>
    <path d="M 153.012419 326.027013 
L 153.012419 315.078327 
" clip-path="url(#p5f956fa32b)" style="fill: none; stroke: #ff0000; stroke-width: 1.5"/>
    <path d="M 195.756871 322.376745 
L 195.756871 311.428059 
" clip-path="url(#p5f956fa32b)" style="fill: none; stroke: #ff0000; stroke-width: 1.5"/>
    <path d="M 238.501324 305.767925 
L 238.501324 294.819239 
" clip-path="url(#p5f956fa32b)" style="fill: none; stroke: #ff0000; stroke-width: 1.5"/>
    <path d="M 281.245776 300.747679 
L 281.245776 289.798992 
" clip-path="url(#p5f956fa32b)" style="fill: none; stroke: #ff0000; stroke-width: 1.5"/>
    <path d="M 323.990228 306.398191 
L 323.990228 295.449504 
" clip-path="url(#p5f956fa32b)" style="fill: none; stroke: #ff0000; stroke-width: 1.5"/>
    <path d="M 366.73468 297.34925 
L 366.73468 286.400564 
" clip-path="url(#p5f956fa32b)" style="fill: none; stroke: #ff0000; stroke-width: 1.5"/>
    <path d="M 409.479133 307.79301 
L 409.479133 296.844324 
" clip-path="url(#p5f956fa32b)" style="fill: none; stroke: #ff0000; stroke-width: 1.5"/>
    <path d="M 452.223585 312.132482 
L 452.223585 301.183796 
" clip-path="url(#p5f956fa32b)" style="fill: none; stroke: #ff0000; stroke-width: 1.5"/>
    <path d="M 494.968037 294.941271 
L 494.968037 283.992585 
" clip-path="url(#p5f956fa32b)" style="fill: none; stroke: #ff0000; stroke-width: 1.5"/>
    <path d="M 537.712489 295.658251 
L 537.712489 284.709565 
" clip-path="url(#p5f956fa32b)" style="fill: none; stroke: #ff0000; stroke-width: 1.5"/>
    <path d="M 580.456942 299.586601 
L 580.456942 288.637915 
" clip-path="url(#p5f956fa32b)" style="fill: none; stroke: #ff0000; stroke-width: 1.5"/>
    <path d="M 623.201394 324.986224 
L 623.201394 314.037538 
" clip-path="url(#p5f956fa32b)" style="fill: none; stroke: #ff0000; stroke-width: 1.5"/>
    <path d="M 665.945846 337.176203 
L 665.945846 326.227517 
" clip-path="url(#p5f956fa32b)" style="fill: none; stroke: #ff0000; stroke-width: 1.5"/>
    <path d="M 708.690298 337.507168 
L 708.690298 326.558482 
" clip-path="url(#p5f956fa32b)" style="fill: none; stroke: #ff0000; stroke-width: 1.5"/>
    <path d="M 751.434751 357.082935 
L 751.434751 346.134249 
" clip-path="url(#p5f956fa32b)" style="fill: none; stroke: #ff0000; stroke-width: 1.5"/>
    <path d="M 794.179203 349.141042 
L 794.179203 338.192355 
" clip-path="url(#p5f956fa32b)" style="fill: none; stroke: #ff0000; stroke-width: 1.5"/>
    <path d="M 836.923655 334.226471 
L 836.923655 323.277785 
" clip-path="url(#p5f956fa32b)" style="fill: none; stroke: #ff0000; stroke-width: 1.5"/>
    <path d="M 879.668108 341.646987 
L 879.668108 330.698301 
" clip-path="url(#p5f956fa32b)" style="fill: none; stroke: #ff0000; stroke-width: 1.5"/>
    <path d="M 922.41256 350.544652 
L 922.41256 339.595966 
" clip-path="url(#p5f956fa32b)" style="fill: none; stroke: #ff0000; stroke-width: 1.5"/>
    <path d="M 965.157012 354.870731 
L 965.157012 343.922045 
" clip-path="url(#p5f956fa32b)" style="fill: none; stroke: #ff0000; stroke-width: 1.5"/>
    <path d="M 1007.901464 351.062048 
L 1007.901464 340.113362 
" clip-path="url(#p5f956fa32b)" style="fill: none; stroke: #ff0000; stroke-width: 1.5"/>
   </g>
   <g id="line2d_29">
    <path d="M 110.267967 344.423333 
L 119.334972 342.419696 
L 128.401977 339.988424 
L 137.468982 337.167684 
L 146.535987 334.008209 
L 155.602992 330.571671 
L 164.669997 326.928662 
L 173.737002 323.15636 
L 182.804007 319.335959 
L 191.871012 315.549953 
L 200.938017 311.879385 
L 210.005022 308.401137 
L 219.072027 305.185377 
L 228.139032 302.293249 
L 237.206037 299.774882 
L 246.273042 297.667797 
L 255.340047 295.995771 
L 264.407052 294.768183 
L 273.474057 293.979883 
L 282.541062 293.611578 
L 291.608067 293.630721 
L 300.675072 293.992872 
L 309.742077 294.643479 
L 318.809082 295.520021 
L 327.876087 296.55442 
L 336.943092 297.675649 
L 346.010098 298.812436 
L 355.077103 299.895965 
L 364.144108 300.86247 
L 373.211113 301.655645 
L 382.278118 302.228758 
L 391.345123 302.54642 
L 400.412128 302.585918 
L 409.479133 302.338084 
L 418.546138 301.807655 
L 427.613143 301.013122 
L 436.680148 299.986061 
L 445.747153 298.769982 
L 454.814158 297.418732 
L 463.881163 295.994506 
L 472.948168 294.565547 
L 482.015173 293.203614 
L 491.082178 291.981304 
L 500.149183 290.969333 
L 509.216188 290.23388 
L 518.283193 289.834068 
L 527.350198 289.819702 
L 536.417203 290.229323 
L 545.484208 291.088664 
L 554.551213 292.409555 
L 563.618218 294.189324 
L 572.685223 296.410713 
L 581.752228 299.042308 
L 590.819233 302.039484 
L 599.886238 305.345808 
L 608.953243 308.894875 
L 618.020248 312.612491 
L 627.087253 316.419138 
L 636.154258 320.232627 
L 645.221263 323.970846 
L 654.288268 327.554502 
L 663.355273 330.909764 
L 672.422278 333.970704 
L 681.489283 336.681463 
L 690.556288 338.998041 
L 699.623293 340.889678 
L 708.690298 342.339746 
L 717.757304 343.346148 
L 726.824309 343.921183 
L 735.891314 344.090916 
L 744.958319 343.894036 
L 754.025324 343.380286 
L 763.092329 342.608489 
L 772.159334 341.644262 
L 781.226339 340.557491 
L 790.293344 339.419665 
L 799.360349 338.301161 
L 808.427354 337.268586 
L 817.494359 336.38226 
L 826.561364 335.693947 
L 835.628369 335.244902 
L 844.695374 335.064315 
L 853.762379 335.168204 
L 862.829384 335.558796 
L 871.896389 336.224428 
L 880.963394 337.139951 
L 890.030399 338.267648 
L 899.097404 339.558616 
L 908.164409 340.954564 
L 917.231414 342.389967 
L 926.298419 343.794499 
L 935.365424 345.095641 
L 944.432429 346.221399 
L 953.499434 347.102999 
L 962.566439 347.677489 
L 971.633444 347.890141 
L 980.700449 347.696562 
L 989.767454 347.064448 
L 998.834459 345.974913 
L 1007.901464 344.423333 
" clip-path="url(#p5f956fa32b)" style="fill: none; stroke-dasharray: 7.4,3.2; stroke-dashoffset: 0; stroke: #ff0000; stroke-width: 2"/>
   </g>
   <g id="LineCollection_2">
    <path d="M 110.267967 134.697189 
L 110.267967 123.748503 
" clip-path="url(#p5f956fa32b)" style="fill: none; stroke: #0000ff; stroke-width: 1.5"/>
    <path d="M 110.267967 140.306921 
L 110.267967 129.358234 
" clip-path="url(#p5f956fa32b)" style="fill: none; stroke: #0000ff; stroke-width: 1.5"/>
    <path d="M 660.430433 111.114848 
L 660.430433 100.166162 
" clip-path="url(#p5f956fa32b)" style="fill: none; stroke: #0000ff; stroke-width: 1.5"/>
    <path d="M 168.179805 112.939637 
L 168.179805 101.99095 
" clip-path="url(#p5f956fa32b)" style="fill: none; stroke: #0000ff; stroke-width: 1.5"/>
    <path d="M 689.386352 124.253324 
L 689.386352 113.304638 
" clip-path="url(#p5f956fa32b)" style="fill: none; stroke: #0000ff; stroke-width: 1.5"/>
    <path d="M 718.342272 122.434868 
L 718.342272 111.486182 
" clip-path="url(#p5f956fa32b)" style="fill: none; stroke: #0000ff; stroke-width: 1.5"/>
    <path d="M 747.298191 129.988061 
L 747.298191 119.039374 
" clip-path="url(#p5f956fa32b)" style="fill: none; stroke: #0000ff; stroke-width: 1.5"/>
    <path d="M 776.25411 139.698806 
L 776.25411 128.75012 
" clip-path="url(#p5f956fa32b)" style="fill: none; stroke: #0000ff; stroke-width: 1.5"/>
    <path d="M 805.210029 136.055951 
L 805.210029 125.107265 
" clip-path="url(#p5f956fa32b)" style="fill: none; stroke: #0000ff; stroke-width: 1.5"/>
    <path d="M 834.165949 147.215159 
L 834.165949 136.266473 
" clip-path="url(#p5f956fa32b)" style="fill: none; stroke: #0000ff; stroke-width: 1.5"/>
    <path d="M 863.121868 129.046739 
L 863.121868 118.098053 
" clip-path="url(#p5f956fa32b)" style="fill: none; stroke: #0000ff; stroke-width: 1.5"/>
    <path d="M 892.077787 133.260564 
L 892.077787 122.311878 
" clip-path="url(#p5f956fa32b)" style="fill: none; stroke: #0000ff; stroke-width: 1.5"/>
    <path d="M 921.033706 128.545537 
L 921.033706 117.596851 
" clip-path="url(#p5f956fa32b)" style="fill: none; stroke: #0000ff; stroke-width: 1.5"/>
    <path d="M 949.989626 126.371824 
L 949.989626 115.423138 
" clip-path="url(#p5f956fa32b)" style="fill: none; stroke: #0000ff; stroke-width: 1.5"/>
    <path d="M 978.945545 143.311775 
L 978.945545 132.363089 
" clip-path="url(#p5f956fa32b)" style="fill: none; stroke: #0000ff; stroke-width: 1.5"/>
    <path d="M 197.135725 98.98497 
L 197.135725 88.036284 
" clip-path="url(#p5f956fa32b)" style="fill: none; stroke: #0000ff; stroke-width: 1.5"/>
    <path d="M 1007.901464 132.063116 
L 1007.901464 121.114429 
" clip-path="url(#p5f956fa32b)" style="fill: none; stroke: #0000ff; stroke-width: 1.5"/>
    <path d="M 226.091644 90.454644 
L 226.091644 79.505958 
" clip-path="url(#p5f956fa32b)" style="fill: none; stroke: #0000ff; stroke-width: 1.5"/>
    <path d="M 255.047563 94.15832 
L 255.047563 83.209634 
" clip-path="url(#p5f956fa32b)" style="fill: none; stroke: #0000ff; stroke-width: 1.5"/>
    <path d="M 284.003483 73.578434 
L 284.003483 62.629748 
" clip-path="url(#p5f956fa32b)" style="fill: none; stroke: #0000ff; stroke-width: 1.5"/>
    <path d="M 312.959402 67.13016 
L 312.959402 56.181473 
" clip-path="url(#p5f956fa32b)" style="fill: none; stroke: #0000ff; stroke-width: 1.5"/>
    <path d="M 341.915321 68.170902 
L 341.915321 57.222216 
" clip-path="url(#p5f956fa32b)" style="fill: none; stroke: #0000ff; stroke-width: 1.5"/>
    <path d="M 370.87124 74.671096 
L 370.87124 63.72241 
" clip-path="url(#p5f956fa32b)" style="fill: none; stroke: #0000ff; stroke-width: 1.5"/>
    <path d="M 399.82716 73.683938 
L 399.82716 62.735252 
" clip-path="url(#p5f956fa32b)" style="fill: none; stroke: #0000ff; stroke-width: 1.5"/>
    <path d="M 139.223886 129.776505 
L 139.223886 118.827818 
" clip-path="url(#p5f956fa32b)" style="fill: none; stroke: #0000ff; stroke-width: 1.5"/>
    <path d="M 428.783079 76.394729 
L 428.783079 65.446043 
" clip-path="url(#p5f956fa32b)" style="fill: none; stroke: #0000ff; stroke-width: 1.5"/>
    <path d="M 457.738998 83.76197 
L 457.738998 72.813284 
" clip-path="url(#p5f956fa32b)" style="fill: none; stroke: #0000ff; stroke-width: 1.5"/>
    <path d="M 486.694917 63.746834 
L 486.694917 52.798148 
" clip-path="url(#p5f956fa32b)" style="fill: none; stroke: #0000ff; stroke-width: 1.5"/>
    <path d="M 515.650837 58.448534 
L 515.650837 47.499848 
" clip-path="url(#p5f956fa32b)" style="fill: none; stroke: #0000ff; stroke-width: 1.5"/>
    <path d="M 544.606756 75.734963 
L 544.606756 64.786277 
" clip-path="url(#p5f956fa32b)" style="fill: none; stroke: #0000ff; stroke-width: 1.5"/>
    <path d="M 573.562675 70.503855 
L 573.562675 59.555169 
" clip-path="url(#p5f956fa32b)" style="fill: none; stroke: #0000ff; stroke-width: 1.5"/>
    <path d="M 602.518594 100.628859 
L 602.518594 89.680173 
" clip-path="url(#p5f956fa32b)" style="fill: none; stroke: #0000ff; stroke-width: 1.5"/>
    <path d="M 631.474514 98.704306 
L 631.474514 87.75562 
" clip-path="url(#p5f956fa32b)" style="fill: none; stroke: #0000ff; stroke-width: 1.5"/>
   </g>
   <g id="line2d_30">
    <path d="M 110.267967 107.590826 
L 119.334972 107.582943 
L 128.401977 107.374268 
L 137.468982 106.97358 
L 146.535987 106.396271 
L 155.602992 105.663784 
L 164.669997 104.802837 
L 173.737002 103.844454 
L 182.804007 102.822848 
L 191.871012 101.774182 
L 200.938017 100.735269 
L 210.005022 99.742241 
L 219.072027 98.829255 
L 228.139032 98.02726 
L 237.206037 97.36289 
L 246.273042 96.857508 
L 255.340047 96.526447 
L 264.407052 96.378468 
L 273.474057 96.415454 
L 282.541062 96.632357 
L 291.608067 97.017395 
L 300.675072 97.552495 
L 309.742077 98.213962 
L 318.809082 98.973352 
L 327.876087 99.79852 
L 336.943092 100.6548 
L 346.010098 101.506277 
L 355.077103 102.317106 
L 364.144108 103.052828 
L 373.211113 103.681633 
L 382.278118 104.175537 
L 391.345123 104.511407 
L 400.412128 104.671827 
L 409.479133 104.645739 
L 418.546138 104.428872 
L 427.613143 104.023913 
L 436.680148 103.440433 
L 445.747153 102.694558 
L 454.814158 101.808411 
L 463.881163 100.809327 
L 472.948168 99.728889 
L 482.015173 98.601799 
L 491.082178 97.464646 
L 500.149183 96.354599 
L 509.216188 95.308077 
L 518.283193 94.359451 
L 527.350198 93.539814 
L 536.417203 92.875871 
L 545.484208 92.388985 
L 554.551213 92.094413 
L 563.618218 92.000769 
L 572.685223 92.109717 
L 581.752228 92.41592 
L 590.819233 92.907236 
L 599.886238 93.565164 
L 608.953243 94.365515 
L 618.020248 95.279285 
L 627.087253 96.273708 
L 636.154258 97.313436 
L 645.221263 98.361816 
L 654.288268 99.382209 
L 663.355273 100.339313 
L 672.422278 101.200426 
L 681.489283 101.936629 
L 690.556288 102.523815 
L 699.623293 102.943552 
L 708.690298 103.183741 
L 717.757304 103.239038 
L 726.824309 103.111034 
L 735.891314 102.808185 
L 744.958319 102.345487 
L 754.025324 101.743922 
L 763.092329 101.029681 
L 772.159334 100.233197 
L 781.226339 99.388031 
L 790.293344 98.529636 
L 799.360349 97.694059 
L 808.427354 96.916613 
L 817.494359 96.230586 
L 826.561364 95.666015 
L 835.628369 95.248575 
L 844.695374 94.998638 
L 853.762379 94.930507 
L 862.829384 95.051884 
L 871.896389 95.363568 
L 880.963394 95.859404 
L 890.030399 96.526488 
L 899.097404 97.345611 
L 908.164409 98.291933 
L 917.231414 99.335865 
L 926.298419 100.444115 
L 935.365424 101.580877 
L 944.432429 102.709108 
L 953.499434 103.791847 
L 962.566439 104.79354 
L 971.633444 105.681308 
L 980.700449 106.426122 
L 989.767454 107.003841 
L 998.834459 107.396072 
L 1007.901464 107.590826 
" clip-path="url(#p5f956fa32b)" style="fill: none; stroke-dasharray: 7.4,3.2; stroke-dashoffset: 0; stroke: #0000ff; stroke-width: 2"/>
   </g>
   <g id="line2d_31">
    <defs>
     <path id="m5357107772" d="M 0 3.5 
C 0.928211 3.5 1.81853 3.131218 2.474874 2.474874 
C 3.131218 1.81853 3.5 0.928211 3.5 0 
C 3.5 -0.928211 3.131218 -1.81853 2.474874 -2.474874 
C 1.81853 -3.131218 0.928211 -3.5 0 -3.5 
C -0.928211 -3.5 -1.81853 -3.131218 -2.474874 -2.474874 
C -3.131218 -1.81853 -3.5 -0.928211 -3.5 0 
C -3.5 0.928211 -3.131218 1.81853 -2.474874 2.474874 
C -1.81853 3.131218 -0.928211 3.5 0 3.5 
z
" style="stroke: #ff0000"/>
    </defs>
    <g clip-path="url(#p5f956fa32b)">
     <use xlink:href="#m5357107772" x="110.267967" y="348.194094" style="fill: #ff0000; stroke: #ff0000"/>
     <use xlink:href="#m5357107772" x="153.012419" y="325.919666" style="fill: #ff0000; stroke: #ff0000"/>
     <use xlink:href="#m5357107772" x="110.267967" y="349.797234" style="fill: #ff0000; stroke: #ff0000"/>
     <use xlink:href="#m5357107772" x="153.012419" y="320.55267" style="fill: #ff0000; stroke: #ff0000"/>
     <use xlink:href="#m5357107772" x="195.756871" y="316.902402" style="fill: #ff0000; stroke: #ff0000"/>
     <use xlink:href="#m5357107772" x="238.501324" y="300.293582" style="fill: #ff0000; stroke: #ff0000"/>
     <use xlink:href="#m5357107772" x="281.245776" y="295.273336" style="fill: #ff0000; stroke: #ff0000"/>
     <use xlink:href="#m5357107772" x="323.990228" y="300.923847" style="fill: #ff0000; stroke: #ff0000"/>
     <use xlink:href="#m5357107772" x="366.73468" y="291.874907" style="fill: #ff0000; stroke: #ff0000"/>
     <use xlink:href="#m5357107772" x="409.479133" y="302.318667" style="fill: #ff0000; stroke: #ff0000"/>
     <use xlink:href="#m5357107772" x="452.223585" y="306.658139" style="fill: #ff0000; stroke: #ff0000"/>
     <use xlink:href="#m5357107772" x="494.968037" y="289.466928" style="fill: #ff0000; stroke: #ff0000"/>
     <use xlink:href="#m5357107772" x="537.712489" y="290.183908" style="fill: #ff0000; stroke: #ff0000"/>
     <use xlink:href="#m5357107772" x="580.456942" y="294.112258" style="fill: #ff0000; stroke: #ff0000"/>
     <use xlink:href="#m5357107772" x="623.201394" y="319.511881" style="fill: #ff0000; stroke: #ff0000"/>
     <use xlink:href="#m5357107772" x="665.945846" y="331.70186" style="fill: #ff0000; stroke: #ff0000"/>
     <use xlink:href="#m5357107772" x="708.690298" y="332.032825" style="fill: #ff0000; stroke: #ff0000"/>
     <use xlink:href="#m5357107772" x="751.434751" y="351.608592" style="fill: #ff0000; stroke: #ff0000"/>
     <use xlink:href="#m5357107772" x="794.179203" y="343.666699" style="fill: #ff0000; stroke: #ff0000"/>
     <use xlink:href="#m5357107772" x="836.923655" y="328.752128" style="fill: #ff0000; stroke: #ff0000"/>
     <use xlink:href="#m5357107772" x="879.668108" y="336.172644" style="fill: #ff0000; stroke: #ff0000"/>
     <use xlink:href="#m5357107772" x="922.41256" y="345.070309" style="fill: #ff0000; stroke: #ff0000"/>
     <use xlink:href="#m5357107772" x="965.157012" y="349.396388" style="fill: #ff0000; stroke: #ff0000"/>
     <use xlink:href="#m5357107772" x="1007.901464" y="345.587705" style="fill: #ff0000; stroke: #ff0000"/>
    </g>
   </g>
   <g id="line2d_32">
    <defs>
     <path id="m405550cc96" d="M 0 3.5 
C 0.928211 3.5 1.81853 3.131218 2.474874 2.474874 
C 3.131218 1.81853 3.5 0.928211 3.5 0 
C 3.5 -0.928211 3.131218 -1.81853 2.474874 -2.474874 
C 1.81853 -3.131218 0.928211 -3.5 0 -3.5 
C -0.928211 -3.5 -1.81853 -3.131218 -2.474874 -2.474874 
C -3.131218 -1.81853 -3.5 -0.928211 -3.5 0 
C -3.5 0.928211 -3.131218 1.81853 -2.474874 2.474874 
C -1.81853 3.131218 -0.928211 3.5 0 3.5 
z
" style="stroke: #0000ff"/>
    </defs>
    <g clip-path="url(#p5f956fa32b)">
     <use xlink:href="#m405550cc96" x="110.267967" y="129.222846" style="fill: #0000ff; stroke: #0000ff"/>
     <use xlink:href="#m405550cc96" x="110.267967" y="134.832577" style="fill: #0000ff; stroke: #0000ff"/>
     <use xlink:href="#m405550cc96" x="660.430433" y="105.640505" style="fill: #0000ff; stroke: #0000ff"/>
     <use xlink:href="#m405550cc96" x="168.179805" y="107.465294" style="fill: #0000ff; stroke: #0000ff"/>
     <use xlink:href="#m405550cc96" x="689.386352" y="118.778981" style="fill: #0000ff; stroke: #0000ff"/>
     <use xlink:href="#m405550cc96" x="718.342272" y="116.960525" style="fill: #0000ff; stroke: #0000ff"/>
     <use xlink:href="#m405550cc96" x="747.298191" y="124.513717" style="fill: #0000ff; stroke: #0000ff"/>
     <use xlink:href="#m405550cc96" x="776.25411" y="134.224463" style="fill: #0000ff; stroke: #0000ff"/>
     <use xlink:href="#m405550cc96" x="805.210029" y="130.581608" style="fill: #0000ff; stroke: #0000ff"/>
     <use xlink:href="#m405550cc96" x="834.165949" y="141.740816" style="fill: #0000ff; stroke: #0000ff"/>
     <use xlink:href="#m405550cc96" x="863.121868" y="123.572396" style="fill: #0000ff; stroke: #0000ff"/>
     <use xlink:href="#m405550cc96" x="892.077787" y="127.786221" style="fill: #0000ff; stroke: #0000ff"/>
     <use xlink:href="#m405550cc96" x="921.033706" y="123.071194" style="fill: #0000ff; stroke: #0000ff"/>
     <use xlink:href="#m405550cc96" x="949.989626" y="120.897481" style="fill: #0000ff; stroke: #0000ff"/>
     <use xlink:href="#m405550cc96" x="978.945545" y="137.837432" style="fill: #0000ff; stroke: #0000ff"/>
     <use xlink:href="#m405550cc96" x="197.135725" y="93.510627" style="fill: #0000ff; stroke: #0000ff"/>
     <use xlink:href="#m405550cc96" x="1007.901464" y="126.588772" style="fill: #0000ff; stroke: #0000ff"/>
     <use xlink:href="#m405550cc96" x="226.091644" y="84.980301" style="fill: #0000ff; stroke: #0000ff"/>
     <use xlink:href="#m405550cc96" x="255.047563" y="88.683977" style="fill: #0000ff; stroke: #0000ff"/>
     <use xlink:href="#m405550cc96" x="284.003483" y="68.104091" style="fill: #0000ff; stroke: #0000ff"/>
     <use xlink:href="#m405550cc96" x="312.959402" y="61.655817" style="fill: #0000ff; stroke: #0000ff"/>
     <use xlink:href="#m405550cc96" x="341.915321" y="62.696559" style="fill: #0000ff; stroke: #0000ff"/>
     <use xlink:href="#m405550cc96" x="370.87124" y="69.196753" style="fill: #0000ff; stroke: #0000ff"/>
     <use xlink:href="#m405550cc96" x="399.82716" y="68.209595" style="fill: #0000ff; stroke: #0000ff"/>
     <use xlink:href="#m405550cc96" x="139.223886" y="124.302161" style="fill: #0000ff; stroke: #0000ff"/>
     <use xlink:href="#m405550cc96" x="428.783079" y="70.920386" style="fill: #0000ff; stroke: #0000ff"/>
     <use xlink:href="#m405550cc96" x="457.738998" y="78.287627" style="fill: #0000ff; stroke: #0000ff"/>
     <use xlink:href="#m405550cc96" x="486.694917" y="58.272491" style="fill: #0000ff; stroke: #0000ff"/>
     <use xlink:href="#m405550cc96" x="515.650837" y="52.974191" style="fill: #0000ff; stroke: #0000ff"/>
     <use xlink:href="#m405550cc96" x="544.606756" y="70.26062" style="fill: #0000ff; stroke: #0000ff"/>
     <use xlink:href="#m405550cc96" x="573.562675" y="65.029512" style="fill: #0000ff; stroke: #0000ff"/>
     <use xlink:href="#m405550cc96" x="602.518594" y="95.154516" style="fill: #0000ff; stroke: #0000ff"/>
     <use xlink:href="#m405550cc96" x="631.474514" y="93.229963" style="fill: #0000ff; stroke: #0000ff"/>
    </g>
   </g>
   <g id="patch_3">
    <path d="M 65.386292 372.562089 
L 65.386292 32.020693 
" style="fill: none; stroke: #000000; stroke-width: 0.8; stroke-linejoin: miter; stroke-linecap: square"/>
   </g>
   <g id="patch_4">
    <path d="M 1052.783139 372.562089 
L 1052.783139 32.020693 
" style="fill: none; stroke: #000000; stroke-width: 0.8; stroke-linejoin: miter; stroke-linecap: square"/>
   </g>
   <g id="patch_5">
    <path d="M 65.386292 372.562089 
L 1052.783139 372.562089 
" style="fill: none; stroke: #000000; stroke-width: 0.8; stroke-linejoin: miter; stroke-linecap: square"/>
   </g>
   <g id="patch_6">
    <path d="M 65.386292 32.020693 
L 1052.783139 32.020693 
" style="fill: none; stroke: #000000; stroke-width: 0.8; stroke-linejoin: miter; stroke-linecap: square"/>
   </g>
   <g id="text_17">
    <!-- \textbf{AC Line Signal} -->
    <g transform="translate(476.981721 26.020693) scale(0.22 -0.22)">
     <defs>
      <path id="CMBX12-41" d="M 2931 4333 
C 2886 4448 2874 4480 2720 4480 
C 2560 4480 2547 4448 2502 4333 
L 915 429 
C 870 326 870 313 691 294 
C 531 275 506 275 365 275 
L 250 275 
L 250 0 
C 416 12 800 12 986 12 
C 1158 12 1626 12 1773 0 
L 1773 275 
C 1632 275 1389 275 1210 346 
C 1229 404 1229 416 1242 442 
L 1581 1280 
L 3296 1280 
L 3699 275 
L 3098 275 
L 3098 0 
C 3302 12 3923 12 4166 12 
C 4371 12 5024 12 5184 0 
L 5184 275 
L 4576 275 
L 2931 4333 
z
M 2438 3394 
L 3181 1555 
L 1690 1555 
L 2438 3394 
z
" transform="scale(0.015625)"/>
      <path id="CMBX12-43" d="M 4794 4313 
C 4794 4460 4794 4480 4653 4480 
L 4173 4018 
C 3814 4326 3386 4480 2912 4480 
C 1382 4480 397 3548 397 2210 
C 397 896 1350 -64 2918 -64 
C 4058 -64 4794 722 4794 1484 
C 4794 1593 4755 1600 4659 1600 
C 4595 1600 4531 1600 4525 1529 
C 4467 547 3642 211 3066 211 
C 2650 211 2086 327 1728 734 
C 1504 980 1299 1336 1299 2210 
C 1299 2828 1395 3297 1696 3658 
C 2106 4140 2746 4204 3053 4204 
C 3533 4204 4307 3934 4499 2803 
C 4512 2745 4570 2745 4646 2745 
C 4794 2745 4794 2758 4794 2912 
L 4794 4313 
z
" transform="scale(0.015625)"/>
      <path id="CMBX12-4c" d="M 4019 1737 
L 3750 1737 
C 3706 1293 3603 275 2451 275 
L 1766 275 
L 1766 4140 
L 2618 4140 
L 2618 4416 
C 2304 4403 1734 4403 1395 4403 
C 1158 4403 429 4403 243 4416 
L 243 4140 
L 922 4140 
L 922 275 
L 243 275 
L 243 0 
L 3834 0 
L 4019 1737 
z
" transform="scale(0.015625)"/>
      <path id="CMBX12-53" d="M 1626 2828 
C 992 2969 973 3430 973 3520 
C 973 3846 1184 4223 1805 4223 
C 2426 4223 2982 3923 3117 3084 
C 3136 2950 3136 2944 3258 2944 
C 3392 2944 3392 2963 3392 3110 
L 3392 4313 
C 3392 4435 3392 4480 3296 4480 
C 3251 4480 3232 4473 3174 4409 
L 2899 4096 
C 2739 4230 2419 4480 1798 4480 
C 883 4480 397 3904 397 3206 
C 397 2777 627 2476 717 2387 
C 1050 2054 1229 2016 1894 1868 
C 2534 1728 2611 1715 2752 1580 
C 2835 1497 3021 1318 3021 992 
C 3021 716 2886 211 2170 211 
C 1606 211 717 403 666 1337 
C 659 1452 659 1472 531 1472 
C 397 1472 397 1452 397 1305 
L 397 102 
C 397 -20 397 -64 493 -64 
C 538 -64 544 -58 608 0 
C 678 70 736 153 896 313 
C 1267 19 1792 -64 2176 -64 
C 3174 -64 3597 614 3597 1292 
C 3597 1894 3200 2470 2502 2630 
L 1626 2828 
z
" transform="scale(0.015625)"/>
     </defs>
     <use xlink:href="#CMBX12-41" transform="scale(0.996264)"/>
     <use xlink:href="#CMBX12-43" transform="translate(81.52307 0) scale(0.996264)"/>
     <use xlink:href="#CMBX12-4c" transform="translate(199.829421 0) scale(0.996264)"/>
     <use xlink:href="#CMBX12-69" transform="translate(267.169516 0) scale(0.996264)"/>
     <use xlink:href="#CMBX12-6e" transform="translate(298.302767 0) scale(0.996264)"/>
     <use xlink:href="#CMBX12-65" transform="translate(360.569267 0) scale(0.996264)"/>
     <use xlink:href="#CMBX12-53" transform="translate(449.068435 0) scale(0.996264)"/>
     <use xlink:href="#CMBX12-69" transform="translate(511.334935 0) scale(0.996264)"/>
     <use xlink:href="#CMBX12-67" transform="translate(542.468186 0) scale(0.996264)"/>
     <use xlink:href="#CMBX12-6e" transform="translate(598.508036 0) scale(0.996264)"/>
     <use xlink:href="#CMBX12-61" transform="translate(660.774537 0) scale(0.996264)"/>
     <use xlink:href="#CMBX12-6c" transform="translate(715.257725 0) scale(0.996264)"/>
    </g>
   </g>
   <g id="legend_1">
    <g id="patch_7">
     <path d="M 576.489854 98.44151 
L 1040.183139 98.44151 
Q 1043.783139 98.44151 1043.783139 94.84151 
L 1043.783139 44.620693 
Q 1043.783139 41.020693 1040.183139 41.020693 
L 576.489854 41.020693 
Q 572.889854 41.020693 572.889854 44.620693 
L 572.889854 94.84151 
Q 572.889854 98.44151 576.489854 98.44151 
z
" style="fill: #ffffff; opacity: 0.35; stroke: #cccccc; stroke-linejoin: miter"/>
    </g>
    <g id="line2d_33">
     <path d="M 580.089854 54.520693 
L 598.089854 54.520693 
L 616.089854 54.520693 
" style="fill: none; stroke-dasharray: 7.4,3.2; stroke-dashoffset: 0; stroke: #ff0000; stroke-width: 2"/>
     <defs>
      <path id="m668e81e7e2" d="M 0 4 
C 1.060812 4 2.078319 3.578535 2.828427 2.828427 
C 3.578535 2.078319 4 1.060812 4 0 
C 4 -1.060812 3.578535 -2.078319 2.828427 -2.828427 
C 2.078319 -3.578535 1.060812 -4 0 -4 
C -1.060812 -4 -2.078319 -3.578535 -2.828427 -2.828427 
C -3.578535 -2.078319 -4 -1.060812 -4 0 
C -4 1.060812 -3.578535 2.078319 -2.828427 2.828427 
C -2.078319 3.578535 -1.060812 4 0 4 
z
" style="stroke: #ff0000"/>
     </defs>
     <g>
      <use xlink:href="#m668e81e7e2" x="598.089854" y="54.520693" style="fill: #ff0000; stroke: #ff0000"/>
     </g>
    </g>
    <g id="text_18">
     <!-- \boldmath$\mathbf{Permanent\ Magnets}:\ A_{180\mathbf{Hz}} = 0.09 \mathbf{mG}$ -->
     <g transform="translate(630.489854 60.820693) scale(0.18 -0.18)">
      <defs>
       <path id="CMBX12-50" d="M 1766 1984 
L 2854 1984 
C 3923 1984 4518 2527 4518 3184 
C 4518 3872 3910 4416 2854 4416 
L 243 4416 
L 243 4140 
L 922 4140 
L 922 275 
L 243 275 
L 243 0 
C 429 12 1114 12 1344 12 
C 1574 12 2259 12 2445 0 
L 2445 275 
L 1766 275 
L 1766 1984 
z
M 2624 4140 
C 3616 4140 3616 3617 3616 3184 
C 3616 2763 3616 2227 2624 2227 
L 1734 2227 
L 1734 4140 
L 2624 4140 
z
" transform="scale(0.015625)"/>
       <path id="CMBX12-72" d="M 1331 1440 
C 1331 1651 1376 2668 2125 2668 
C 2035 2598 1990 2489 1990 2374 
C 1990 2112 2202 2003 2362 2003 
C 2522 2003 2733 2112 2733 2374 
C 2733 2700 2400 2880 2093 2880 
C 1587 2880 1370 2438 1280 2169 
L 1274 2169 
L 1274 2880 
L 224 2828 
L 224 2553 
C 621 2553 666 2553 666 2304 
L 666 275 
L 224 275 
L 224 0 
C 371 12 851 12 1030 12 
C 1216 12 1734 12 1888 0 
L 1888 275 
L 1331 275 
L 1331 1440 
z
" transform="scale(0.015625)"/>
       <path id="CMBX12-3a" d="M 1459 2355 
C 1459 2617 1248 2816 998 2816 
C 749 2816 538 2617 538 2355 
C 538 2092 749 1894 998 1894 
C 1248 1894 1459 2092 1459 2355 
z
M 1459 460 
C 1459 723 1248 921 998 921 
C 749 921 538 723 538 460 
C 538 198 749 0 998 0 
C 1248 0 1459 198 1459 460 
z
" transform="scale(0.015625)"/>
       <path id="CMMIB10-41" d="M 4128 4358 
C 4102 4518 4070 4544 3910 4544 
C 3770 4544 3718 4518 3629 4384 
L 1114 547 
C 1037 424 960 307 493 300 
C 403 300 288 300 288 115 
C 288 64 333 0 410 0 
C 602 0 819 19 1018 19 
C 1254 19 1498 0 1728 0 
C 1773 0 1901 0 1901 185 
C 1901 300 1786 300 1734 300 
C 1683 300 1504 300 1363 372 
L 1952 1280 
L 3680 1280 
L 3827 333 
C 3706 307 3507 300 3411 300 
C 3283 300 3174 300 3174 115 
C 3174 32 3245 0 3315 0 
C 3526 0 4058 19 4269 19 
C 4416 19 4563 12 4710 12 
C 4858 12 5011 0 5158 0 
C 5216 0 5338 0 5338 185 
C 5338 300 5242 300 5082 300 
C 4992 300 4922 300 4832 307 
C 4755 313 4749 320 4730 430 
L 4128 4358 
z
M 3354 3411 
L 3635 1580 
L 2150 1580 
L 3354 3411 
z
" transform="scale(0.015625)"/>
       <path id="CMBX12-31" d="M 2214 4034 
C 2214 4224 2202 4224 1997 4224 
C 1523 3795 813 3795 672 3795 
L 550 3795 
L 550 3520 
L 672 3520 
C 896 3520 1235 3558 1491 3641 
L 1491 275 
L 602 275 
L 602 0 
C 870 12 1542 12 1843 12 
C 2144 12 2822 12 3091 0 
L 3091 275 
L 2214 275 
L 2214 4034 
z
" transform="scale(0.015625)"/>
       <path id="CMBX12-38" d="M 2413 2375 
C 2733 2542 3091 2780 3091 3280 
C 3091 3942 2502 4224 1805 4224 
C 954 4224 499 3736 499 3113 
C 499 2767 672 2381 1146 2131 
C 422 1810 301 1367 301 1033 
C 301 294 941 -64 1786 -64 
C 2733 -64 3290 448 3290 1193 
C 3290 1893 2739 2195 2413 2375 
z
M 1261 3036 
C 1133 3107 954 3255 954 3467 
C 954 3980 1638 3993 1786 3993 
C 2330 3993 2637 3704 2637 3280 
C 2637 3017 2522 2741 2157 2529 
L 1261 3036 
z
M 1408 1977 
L 2291 1469 
C 2502 1347 2778 1193 2778 866 
C 2778 352 2266 192 1805 192 
C 1171 192 813 532 813 1039 
C 813 1508 1101 1803 1408 1977 
z
" transform="scale(0.015625)"/>
       <path id="CMBX12-30" d="M 3309 2060 
C 3309 2677 3309 4224 1798 4224 
C 282 4224 282 2683 282 2060 
C 282 1444 282 -64 1792 -64 
C 3302 -64 3309 1424 3309 2060 
z
M 1798 147 
C 1594 147 1440 230 1312 365 
C 1152 526 1050 628 1050 2137 
C 1050 2587 1050 2998 1101 3331 
C 1190 3967 1651 4012 1792 4012 
C 1997 4012 2394 3916 2483 3376 
C 2541 3049 2541 2529 2541 2137 
C 2541 622 2445 532 2253 339 
C 2125 211 1952 147 1798 147 
z
" transform="scale(0.015625)"/>
       <path id="CMBX12-48" d="M 4704 4140 
L 5382 4140 
L 5382 4416 
C 5197 4403 4512 4403 4282 4403 
C 4051 4403 3366 4403 3181 4416 
L 3181 4140 
L 3859 4140 
L 3859 2432 
L 1766 2432 
L 1766 4140 
L 2445 4140 
L 2445 4416 
C 2259 4403 1574 4403 1344 4403 
C 1114 4403 429 4403 243 4416 
L 243 4140 
L 922 4140 
L 922 275 
L 243 275 
L 243 0 
C 429 12 1114 12 1344 12 
C 1574 12 2259 12 2445 0 
L 2445 275 
L 1766 275 
L 1766 2156 
L 3859 2156 
L 3859 275 
L 3181 275 
L 3181 0 
C 3366 12 4051 12 4282 12 
C 4512 12 5197 12 5382 0 
L 5382 275 
L 4704 275 
L 4704 4140 
z
" transform="scale(0.015625)"/>
       <path id="CMBX12-7a" d="M 2816 2573 
C 2874 2643 2874 2655 2874 2694 
C 2874 2816 2810 2816 2688 2816 
L 371 2816 
L 301 1724 
L 570 1724 
C 608 2326 749 2604 1459 2604 
L 2035 2604 
L 256 255 
C 198 185 198 172 198 128 
C 198 0 256 0 384 0 
L 2784 0 
L 2893 1256 
L 2624 1256 
C 2573 585 2432 230 1626 230 
L 1043 230 
L 2816 2573 
z
" transform="scale(0.015625)"/>
       <path id="CMBX12-3d" d="M 4934 2112 
C 5030 2112 5197 2112 5197 2291 
C 5197 2464 5024 2464 4941 2464 
L 653 2464 
C 570 2464 397 2464 397 2291 
C 397 2112 563 2112 659 2112 
L 4934 2112 
z
M 4941 735 
C 5024 735 5197 735 5197 908 
C 5197 1088 5030 1088 4934 1088 
L 659 1088 
C 563 1088 397 1088 397 908 
C 397 735 570 735 653 735 
L 4941 735 
z
" transform="scale(0.015625)"/>
       <path id="CMMIB10-3a" d="M 1517 499 
C 1517 774 1293 998 1018 998 
C 742 998 518 774 518 499 
C 518 224 742 0 1018 0 
C 1293 0 1517 224 1517 499 
z
" transform="scale(0.015625)"/>
       <path id="CMBX12-39" d="M 2477 1818 
C 2477 1366 2477 192 1478 192 
C 1280 192 1050 238 915 332 
C 1101 371 1235 505 1235 710 
C 1235 940 1062 1088 858 1088 
C 691 1088 480 979 480 697 
C 480 256 832 -64 1491 -64 
C 2304 -64 3290 454 3290 2120 
C 3290 2552 3290 4224 1811 4224 
C 928 4224 301 3710 301 2828 
C 301 1934 915 1452 1683 1452 
C 1952 1452 2272 1548 2477 2005 
L 2477 1818 
z
M 1747 1664 
C 1114 1664 1114 2185 1114 2815 
C 1114 3433 1114 3993 1811 3993 
C 2221 3993 2368 3626 2394 3556 
C 2458 3362 2470 2963 2470 2751 
C 2470 2301 2285 1664 1747 1664 
z
" transform="scale(0.015625)"/>
      </defs>
      <use xlink:href="#CMBX12-50" transform="scale(0.996264)"/>
      <use xlink:href="#CMBX12-65" transform="translate(73.451486 0) scale(0.996264)"/>
      <use xlink:href="#CMBX12-72" transform="translate(124.590753 0) scale(0.996264)"/>
      <use xlink:href="#CMBX12-6d" transform="translate(170.36826 0) scale(0.996264)"/>
      <use xlink:href="#CMBX12-61" transform="translate(263.768011 0) scale(0.996264)"/>
      <use xlink:href="#CMBX12-6e" transform="translate(318.251199 0) scale(0.996264)"/>
      <use xlink:href="#CMBX12-65" transform="translate(380.5177 0) scale(0.996264)"/>
      <use xlink:href="#CMBX12-6e" transform="translate(431.656967 0) scale(0.996264)"/>
      <use xlink:href="#CMBX12-74" transform="translate(490.810143 0) scale(0.996264)"/>
      <use xlink:href="#CMBX12-4d" transform="translate(564.472659 0) scale(0.996264)"/>
      <use xlink:href="#CMBX12-61" transform="translate(670.787084 0) scale(0.996264)"/>
      <use xlink:href="#CMBX12-67" transform="translate(725.270272 0) scale(0.996264)"/>
      <use xlink:href="#CMBX12-6e" transform="translate(781.310123 0) scale(0.996264)"/>
      <use xlink:href="#CMBX12-65" transform="translate(843.576624 0) scale(0.996264)"/>
      <use xlink:href="#CMBX12-74" transform="translate(894.715891 0) scale(0.996264)"/>
      <use xlink:href="#CMBX12-73" transform="translate(938.302441 0) scale(0.996264)"/>
      <use xlink:href="#CMBX12-3a" transform="translate(1014.33671 0) scale(0.996264)"/>
      <use xlink:href="#CMMIB10-41" transform="translate(1107.370858 0) scale(0.996264)"/>
      <use xlink:href="#CMBX12-31" transform="translate(1193.990036 -14.943915) scale(0.697382)"/>
      <use xlink:href="#CMBX12-38" transform="translate(1233.217749 -14.943915) scale(0.697382)"/>
      <use xlink:href="#CMBX12-30" transform="translate(1272.445462 -14.943915) scale(0.697382)"/>
      <use xlink:href="#CMBX12-48" transform="translate(1311.673175 -14.943915) scale(0.697382)"/>
      <use xlink:href="#CMBX12-7a" transform="translate(1373.017034 -14.943915) scale(0.697382)"/>
      <use xlink:href="#CMBX12-3d" transform="translate(1440.209186 0) scale(0.996264)"/>
      <use xlink:href="#CMBX12-30" transform="translate(1559.207218 0) scale(0.996264)"/>
      <use xlink:href="#CMMIB10-3a" transform="translate(1615.247068 0) scale(0.996264)"/>
      <use xlink:href="#CMBX12-30" transform="translate(1647.072 0) scale(0.996264)"/>
      <use xlink:href="#CMBX12-39" transform="translate(1703.11185 0) scale(0.996264)"/>
      <use xlink:href="#CMBX12-6d" transform="translate(1759.151701 0) scale(0.996264)"/>
      <use xlink:href="#CMBX12-47" transform="translate(1852.551452 0) scale(0.996264)"/>
     </g>
    </g>
    <g id="line2d_34">
     <path d="M 580.089854 80.458322 
L 598.089854 80.458322 
L 616.089854 80.458322 
" style="fill: none; stroke-dasharray: 7.4,3.2; stroke-dashoffset: 0; stroke: #0000ff; stroke-width: 2"/>
     <defs>
      <path id="m4cf46614da" d="M 0 4 
C 1.060812 4 2.078319 3.578535 2.828427 2.828427 
C 3.578535 2.078319 4 1.060812 4 0 
C 4 -1.060812 3.578535 -2.078319 2.828427 -2.828427 
C 2.078319 -3.578535 1.060812 -4 0 -4 
C -1.060812 -4 -2.078319 -3.578535 -2.828427 -2.828427 
C -3.578535 -2.078319 -4 -1.060812 -4 0 
C -4 1.060812 -3.578535 2.078319 -2.828427 2.828427 
C -2.078319 3.578535 -1.060812 4 0 4 
z
" style="stroke: #0000ff"/>
     </defs>
     <g>
      <use xlink:href="#m4cf46614da" x="598.089854" y="80.458322" style="fill: #0000ff; stroke: #0000ff"/>
     </g>
    </g>
    <g id="text_19">
     <!-- \boldmath$\mathbf{Permanent\ Magnets\ (new)}:\ A_{180\mathbf{Hz}} = 0.09 \mathbf{mG}$ -->
     <g transform="translate(630.489854 86.758322) scale(0.18 -0.18)">
      <defs>
       <path id="CMBX12-28" d="M 2394 -1530 
C 2394 -1505 2394 -1492 2272 -1376 
C 1555 -660 1280 467 1280 1593 
C 1280 2854 1594 3891 2310 4614 
C 2387 4691 2394 4697 2394 4723 
C 2394 4800 2317 4800 2285 4800 
C 2227 4800 2214 4800 2048 4665 
C 1126 3929 691 2752 691 1600 
C 691 422 1133 -724 2042 -1466 
C 2208 -1607 2221 -1607 2285 -1607 
C 2317 -1607 2394 -1607 2394 -1530 
z
" transform="scale(0.015625)"/>
       <path id="CMBX12-77" d="M 4608 2386 
C 4653 2496 4672 2540 5043 2540 
L 5043 2816 
C 4858 2803 4774 2803 4544 2803 
C 4282 2803 4198 2803 3968 2816 
L 3968 2540 
C 4026 2540 4339 2540 4339 2457 
C 4339 2451 4339 2444 4314 2380 
L 3642 712 
L 2906 2540 
L 3270 2540 
L 3270 2816 
C 3117 2803 2739 2803 2566 2803 
C 2240 2803 2227 2803 1907 2816 
L 1907 2540 
L 2285 2540 
C 2304 2489 2336 2406 2362 2348 
C 2381 2309 2445 2155 2445 2123 
C 2445 2111 2426 2066 2419 2046 
L 1933 834 
L 1242 2540 
L 1606 2540 
L 1606 2816 
C 1459 2803 1024 2803 851 2803 
C 646 2803 339 2803 147 2816 
L 147 2540 
L 525 2540 
L 1504 96 
C 1549 -20 1574 -64 1715 -64 
C 1786 -64 1862 -64 1914 64 
L 2592 1764 
L 3270 76 
C 3328 -64 3398 -64 3475 -64 
C 3616 -64 3635 -26 3680 89 
L 4608 2386 
z
" transform="scale(0.015625)"/>
       <path id="CMBX12-29" d="M 2099 1593 
C 2099 2771 1658 3917 749 4659 
C 582 4800 570 4800 506 4800 
C 474 4800 397 4800 397 4723 
C 397 4697 397 4684 518 4569 
C 1235 3853 1510 2726 1510 1600 
C 1510 339 1197 -698 480 -1421 
C 403 -1498 397 -1505 397 -1530 
C 397 -1607 474 -1607 506 -1607 
C 563 -1607 576 -1607 742 -1472 
C 1664 -736 2099 441 2099 1593 
z
" transform="scale(0.015625)"/>
      </defs>
      <use xlink:href="#CMBX12-50" transform="scale(0.996264)"/>
      <use xlink:href="#CMBX12-65" transform="translate(73.451486 0) scale(0.996264)"/>
      <use xlink:href="#CMBX12-72" transform="translate(124.590753 0) scale(0.996264)"/>
      <use xlink:href="#CMBX12-6d" transform="translate(170.36826 0) scale(0.996264)"/>
      <use xlink:href="#CMBX12-61" transform="translate(263.768011 0) scale(0.996264)"/>
      <use xlink:href="#CMBX12-6e" transform="translate(318.251199 0) scale(0.996264)"/>
      <use xlink:href="#CMBX12-65" transform="translate(380.5177 0) scale(0.996264)"/>
      <use xlink:href="#CMBX12-6e" transform="translate(431.656967 0) scale(0.996264)"/>
      <use xlink:href="#CMBX12-74" transform="translate(490.810143 0) scale(0.996264)"/>
      <use xlink:href="#CMBX12-4d" transform="translate(564.472659 0) scale(0.996264)"/>
      <use xlink:href="#CMBX12-61" transform="translate(670.787084 0) scale(0.996264)"/>
      <use xlink:href="#CMBX12-67" transform="translate(725.270272 0) scale(0.996264)"/>
      <use xlink:href="#CMBX12-6e" transform="translate(781.310123 0) scale(0.996264)"/>
      <use xlink:href="#CMBX12-65" transform="translate(843.576624 0) scale(0.996264)"/>
      <use xlink:href="#CMBX12-74" transform="translate(894.715891 0) scale(0.996264)"/>
      <use xlink:href="#CMBX12-73" transform="translate(938.302441 0) scale(0.996264)"/>
      <use xlink:href="#CMBX12-28" transform="translate(1012.587745 0) scale(0.996264)"/>
      <use xlink:href="#CMBX12-6e" transform="translate(1056.174295 0) scale(0.996264)"/>
      <use xlink:href="#CMBX12-65" transform="translate(1118.440796 0) scale(0.996264)"/>
      <use xlink:href="#CMBX12-77" transform="translate(1169.580063 0) scale(0.996264)"/>
      <use xlink:href="#CMBX12-29" transform="translate(1252.083176 0) scale(0.996264)"/>
      <use xlink:href="#CMBX12-3a" transform="translate(1327.494658 0) scale(0.996264)"/>
      <use xlink:href="#CMMIB10-41" transform="translate(1420.528806 0) scale(0.996264)"/>
      <use xlink:href="#CMBX12-31" transform="translate(1507.147984 -14.943915) scale(0.697382)"/>
      <use xlink:href="#CMBX12-38" transform="translate(1546.375697 -14.943915) scale(0.697382)"/>
      <use xlink:href="#CMBX12-30" transform="translate(1585.60341 -14.943915) scale(0.697382)"/>
      <use xlink:href="#CMBX12-48" transform="translate(1624.831123 -14.943915) scale(0.697382)"/>
      <use xlink:href="#CMBX12-7a" transform="translate(1686.174982 -14.943915) scale(0.697382)"/>
      <use xlink:href="#CMBX12-3d" transform="translate(1753.367134 0) scale(0.996264)"/>
      <use xlink:href="#CMBX12-30" transform="translate(1872.365166 0) scale(0.996264)"/>
      <use xlink:href="#CMMIB10-3a" transform="translate(1928.405017 0) scale(0.996264)"/>
      <use xlink:href="#CMBX12-30" transform="translate(1960.229948 0) scale(0.996264)"/>
      <use xlink:href="#CMBX12-39" transform="translate(2016.269799 0) scale(0.996264)"/>
      <use xlink:href="#CMBX12-6d" transform="translate(2072.309649 0) scale(0.996264)"/>
      <use xlink:href="#CMBX12-47" transform="translate(2165.7094 0) scale(0.996264)"/>
     </g>
    </g>
   </g>
  </g>
 </g>
 <defs>
  <clipPath id="p5f956fa32b">
   <rect x="65.386292" y="32.020693" width="987.396847" height="340.541396"/>
  </clipPath>
 </defs>
</svg>
