<?xml version="1.0" encoding="utf-8" standalone="no"?>
<!DOCTYPE svg PUBLIC "-//W3C//DTD SVG 1.1//EN"
  "http://www.w3.org/Graphics/SVG/1.1/DTD/svg11.dtd">
<svg xmlns:xlink="http://www.w3.org/1999/xlink" width="460.8pt" height="345.6pt" viewBox="0 0 460.8 345.6" xmlns="http://www.w3.org/2000/svg" version="1.1">
 <metadata>
  <rdf:RDF xmlns:dc="http://purl.org/dc/elements/1.1/" xmlns:cc="http://creativecommons.org/ns#" xmlns:rdf="http://www.w3.org/1999/02/22-rdf-syntax-ns#">
   <cc:Work>
    <dc:type rdf:resource="http://purl.org/dc/dcmitype/StillImage"/>
    <dc:date>2025-11-24T12:08:44.212232</dc:date>
    <dc:format>image/svg+xml</dc:format>
    <dc:creator>
     <cc:Agent>
      <dc:title>Matplotlib v3.10.0, https://matplotlib.org/</dc:title>
     </cc:Agent>
    </dc:creator>
   </cc:Work>
  </rdf:RDF>
 </metadata>
 <defs>
  <style type="text/css">*{stroke-linejoin: round; stroke-linecap: butt}</style>
 </defs>
 <g id="figure_1">
  <g id="patch_1">
   <path d="M 0 345.6 
L 460.8 345.6 
L 460.8 0 
L 0 0 
z
" style="fill: #ffffff"/>
  </g>
  <g id="axes_1">
   <g id="patch_2">
    <path d="M 57.6 307.584 
L 414.72 307.584 
L 414.72 41.472 
L 57.6 41.472 
z
" style="fill: #ffffff"/>
   </g>
   <g id="matplotlib.axis_1">
    <g id="xtick_1">
     <g id="line2d_1">
      <path d="M 133.624719 307.584 
L 133.624719 41.472 
" clip-path="url(#p9aeadf4eb8)" style="fill: none; stroke: #b0b0b0; stroke-opacity: 0.8; stroke-width: 0.8; stroke-linecap: square"/>
     </g>
     <g id="line2d_2">
      <defs>
       <path id="mc20383e9bd" d="M 0 0 
L 0 3.5 
" style="stroke: #000000; stroke-width: 0.8"/>
      </defs>
      <g>
       <use xlink:href="#mc20383e9bd" x="133.624719" y="307.584" style="stroke: #000000; stroke-width: 0.8"/>
      </g>
     </g>
     <g id="text_1">
      <!-- $\mathdefault{−100}$ -->
      <g transform="translate(112.168833 328.420997) scale(0.2 -0.2)">
       <defs>
        <path id="CMSY10-0" d="M 4218 1472 
C 4326 1472 4442 1472 4442 1600 
C 4442 1728 4326 1728 4218 1728 
L 755 1728 
C 646 1728 531 1728 531 1600 
C 531 1472 646 1472 755 1472 
L 4218 1472 
z
" transform="scale(0.015625)"/>
        <path id="CMR17-31" d="M 1702 4083 
C 1702 4217 1696 4224 1606 4224 
C 1357 3927 979 3833 621 3820 
C 602 3820 570 3820 563 3808 
C 557 3795 557 3782 557 3648 
C 755 3648 1088 3686 1344 3839 
L 1344 467 
C 1344 243 1331 166 781 166 
L 589 166 
L 589 0 
C 896 6 1216 12 1523 12 
C 1830 12 2150 6 2458 0 
L 2458 166 
L 2266 166 
C 1715 166 1702 236 1702 467 
L 1702 4083 
z
" transform="scale(0.015625)"/>
        <path id="CMR17-30" d="M 2688 2038 
C 2688 2430 2682 3099 2413 3613 
C 2176 4063 1798 4224 1466 4224 
C 1158 4224 768 4082 525 3620 
C 269 3137 243 2539 243 2038 
C 243 1671 250 1112 448 623 
C 723 -39 1216 -128 1466 -128 
C 1760 -128 2208 -7 2470 604 
C 2662 1048 2688 1568 2688 2038 
z
M 1466 -26 
C 1056 -26 813 328 723 816 
C 653 1196 653 1749 653 2109 
C 653 2604 653 3015 736 3407 
C 858 3954 1216 4121 1466 4121 
C 1728 4121 2067 3947 2189 3420 
C 2272 3054 2278 2623 2278 2109 
C 2278 1691 2278 1176 2202 797 
C 2067 96 1690 -26 1466 -26 
z
" transform="scale(0.015625)"/>
       </defs>
       <use xlink:href="#CMSY10-0" transform="scale(0.996264)"/>
       <use xlink:href="#CMR17-31" transform="translate(77.487468 0) scale(0.996264)"/>
       <use xlink:href="#CMR17-30" transform="translate(123.177945 0) scale(0.996264)"/>
       <use xlink:href="#CMR17-30" transform="translate(168.868422 0) scale(0.996264)"/>
      </g>
     </g>
    </g>
    <g id="xtick_2">
     <g id="line2d_3">
      <path d="M 209.97808 307.584 
L 209.97808 41.472 
" clip-path="url(#p9aeadf4eb8)" style="fill: none; stroke: #b0b0b0; stroke-opacity: 0.8; stroke-width: 0.8; stroke-linecap: square"/>
     </g>
     <g id="line2d_4">
      <g>
       <use xlink:href="#mc20383e9bd" x="209.97808" y="307.584" style="stroke: #000000; stroke-width: 0.8"/>
      </g>
     </g>
     <g id="text_2">
      <!-- $\mathdefault{0}$ -->
      <g transform="translate(205.409032 328.420997) scale(0.2 -0.2)">
       <use xlink:href="#CMR17-30" transform="scale(0.996264)"/>
      </g>
     </g>
    </g>
    <g id="xtick_3">
     <g id="line2d_5">
      <path d="M 286.33144 307.584 
L 286.33144 41.472 
" clip-path="url(#p9aeadf4eb8)" style="fill: none; stroke: #b0b0b0; stroke-opacity: 0.8; stroke-width: 0.8; stroke-linecap: square"/>
     </g>
     <g id="line2d_6">
      <g>
       <use xlink:href="#mc20383e9bd" x="286.33144" y="307.584" style="stroke: #000000; stroke-width: 0.8"/>
      </g>
     </g>
     <g id="text_3">
      <!-- $\mathdefault{100}$ -->
      <g transform="translate(272.624297 328.420997) scale(0.2 -0.2)">
       <use xlink:href="#CMR17-31" transform="scale(0.996264)"/>
       <use xlink:href="#CMR17-30" transform="translate(45.690477 0) scale(0.996264)"/>
       <use xlink:href="#CMR17-30" transform="translate(91.380954 0) scale(0.996264)"/>
      </g>
     </g>
    </g>
    <g id="xtick_4">
     <g id="line2d_7">
      <path d="M 362.6848 307.584 
L 362.6848 41.472 
" clip-path="url(#p9aeadf4eb8)" style="fill: none; stroke: #b0b0b0; stroke-opacity: 0.8; stroke-width: 0.8; stroke-linecap: square"/>
     </g>
     <g id="line2d_8">
      <g>
       <use xlink:href="#mc20383e9bd" x="362.6848" y="307.584" style="stroke: #000000; stroke-width: 0.8"/>
      </g>
     </g>
     <g id="text_4">
      <!-- $\mathdefault{200}$ -->
      <g transform="translate(348.977657 328.420997) scale(0.2 -0.2)">
       <defs>
        <path id="CMR17-32" d="M 2669 990 
L 2554 990 
C 2490 537 2438 460 2413 422 
C 2381 371 1920 371 1830 371 
L 602 371 
C 832 620 1280 1073 1824 1596 
C 2214 1966 2669 2400 2669 3033 
C 2669 3788 2067 4224 1395 4224 
C 691 4224 262 3603 262 3027 
C 262 2777 448 2745 525 2745 
C 589 2745 781 2783 781 3007 
C 781 3206 614 3264 525 3264 
C 486 3264 448 3257 422 3244 
C 544 3788 915 4057 1306 4057 
C 1862 4057 2227 3616 2227 3033 
C 2227 2477 1901 1998 1536 1583 
L 262 147 
L 262 0 
L 2515 0 
L 2669 990 
z
" transform="scale(0.015625)"/>
       </defs>
       <use xlink:href="#CMR17-32" transform="scale(0.996264)"/>
       <use xlink:href="#CMR17-30" transform="translate(45.690477 0) scale(0.996264)"/>
       <use xlink:href="#CMR17-30" transform="translate(91.380954 0) scale(0.996264)"/>
      </g>
     </g>
    </g>
    <g id="text_5">
     <!-- \textbf{Frequency Deviation (Hz)} -->
     <g transform="translate(108.559766 351.240591) scale(0.2 -0.2)">
      <defs>
       <path id="CMBX12-46" d="M 4032 4383 
L 243 4383 
L 243 4108 
L 922 4108 
L 922 275 
L 243 275 
L 243 0 
C 429 12 1158 12 1395 12 
C 1734 12 2304 12 2618 0 
L 2618 275 
L 1766 275 
L 1766 2048 
L 2118 2048 
C 2733 2048 2784 1765 2784 1296 
L 3053 1296 
L 3053 3080 
L 2784 3080 
C 2784 2607 2733 2323 2118 2323 
L 1766 2323 
L 1766 4108 
L 2682 4108 
C 3699 4108 3859 3636 3949 2853 
L 4218 2853 
L 4032 4383 
z
" transform="scale(0.015625)"/>
       <path id="CMBX12-72" d="M 1331 1440 
C 1331 1651 1376 2668 2125 2668 
C 2035 2598 1990 2489 1990 2374 
C 1990 2112 2202 2003 2362 2003 
C 2522 2003 2733 2112 2733 2374 
C 2733 2700 2400 2880 2093 2880 
C 1587 2880 1370 2438 1280 2169 
L 1274 2169 
L 1274 2880 
L 224 2828 
L 224 2553 
C 621 2553 666 2553 666 2304 
L 666 275 
L 224 275 
L 224 0 
C 371 12 851 12 1030 12 
C 1216 12 1734 12 1888 0 
L 1888 275 
L 1331 275 
L 1331 1440 
z
" transform="scale(0.015625)"/>
       <path id="CMBX12-65" d="M 2893 1408 
C 3040 1408 3078 1408 3078 1568 
C 3078 1758 3034 2232 2739 2529 
C 2470 2796 2112 2880 1741 2880 
C 742 2880 198 2232 198 1433 
C 198 523 858 -64 1824 -64 
C 2790 -64 3078 621 3078 731 
C 3078 829 2982 829 2944 829 
C 2842 829 2835 809 2797 725 
C 2630 302 2208 166 1901 166 
C 973 166 966 1043 966 1408 
L 2893 1408 
z
M 966 1593 
C 979 1852 986 2099 1120 2327 
C 1242 2529 1466 2668 1741 2668 
C 2426 2668 2483 1909 2490 1593 
L 966 1593 
z
" transform="scale(0.015625)"/>
       <path id="CMBX12-71" d="M 3328 2880 
L 3091 2880 
L 2752 2345 
C 2528 2675 2214 2880 1792 2880 
C 909 2880 243 2326 243 1408 
C 243 483 883 -64 1728 -64 
C 1971 -64 2298 -13 2630 302 
L 2630 -941 
L 2189 -941 
L 2189 -1216 
C 2336 -1204 2797 -1204 2976 -1204 
C 3155 -1204 3622 -1204 3770 -1216 
L 3770 -941 
L 3328 -941 
L 3328 2880 
z
M 2662 742 
C 2394 231 2016 147 1805 147 
C 1395 147 1011 528 1011 1401 
C 1011 2345 1498 2649 1875 2649 
C 2374 2649 2662 2125 2662 1828 
L 2662 742 
z
" transform="scale(0.015625)"/>
       <path id="CMBX12-75" d="M 2259 2828 
L 2259 2553 
C 2656 2553 2701 2553 2701 2301 
L 2701 1033 
C 2701 541 2413 147 1914 147 
C 1434 147 1408 308 1408 664 
L 1408 2880 
L 269 2828 
L 269 2553 
C 666 2553 710 2553 710 2301 
L 710 768 
C 710 121 1139 -64 1824 -64 
C 1978 -64 2451 -64 2726 457 
L 2733 457 
L 2733 -64 
L 3840 -26 
L 3840 250 
C 3443 250 3398 250 3398 502 
L 3398 2880 
L 2259 2828 
z
" transform="scale(0.015625)"/>
       <path id="CMBX12-6e" d="M 3398 1958 
C 3398 2566 3136 2880 2432 2880 
C 1971 2880 1574 2656 1357 2176 
L 1350 2176 
L 1350 2880 
L 269 2828 
L 269 2553 
C 666 2553 710 2553 710 2304 
L 710 275 
L 269 275 
L 269 0 
C 416 12 877 12 1056 12 
C 1235 12 1702 12 1850 0 
L 1850 275 
L 1408 275 
L 1408 1638 
C 1408 2329 1920 2668 2330 2668 
C 2566 2668 2701 2515 2701 2028 
L 2701 275 
L 2259 275 
L 2259 0 
C 2406 12 2867 12 3046 12 
C 3226 12 3693 12 3840 0 
L 3840 275 
L 3398 275 
L 3398 1958 
z
" transform="scale(0.015625)"/>
       <path id="CMBX12-63" d="M 2995 724 
C 2995 801 2925 801 2861 801 
C 2758 801 2752 795 2720 718 
C 2675 596 2502 166 1914 166 
C 1011 166 1011 1141 1011 1430 
C 1011 1808 1018 2649 1856 2649 
C 1901 2649 2278 2636 2278 2604 
C 2278 2598 2272 2591 2259 2585 
C 2240 2566 2157 2469 2157 2309 
C 2157 2039 2374 1930 2534 1930 
C 2669 1930 2912 2014 2912 2315 
C 2912 2841 2176 2880 1830 2880 
C 691 2880 243 2136 243 1398 
C 243 525 851 -64 1792 -64 
C 2797 -64 2995 679 2995 724 
z
" transform="scale(0.015625)"/>
       <path id="CMBX12-79" d="M 3168 2400 
C 3206 2489 3232 2540 3642 2540 
L 3642 2816 
C 3424 2803 3398 2803 3136 2803 
C 2963 2803 2950 2803 2586 2816 
L 2586 2540 
C 2592 2540 2893 2540 2893 2457 
C 2893 2438 2874 2400 2867 2381 
L 2118 780 
L 1299 2540 
L 1651 2540 
L 1651 2816 
C 1498 2803 1062 2803 883 2803 
C 698 2803 320 2803 154 2816 
L 154 2540 
L 563 2540 
L 1747 -8 
C 1715 -84 1626 -269 1594 -345 
C 1459 -631 1254 -1069 806 -1069 
C 781 -1069 704 -1069 634 -1031 
C 646 -1025 838 -949 838 -707 
C 838 -497 685 -364 493 -364 
C 294 -364 141 -497 141 -713 
C 141 -1012 422 -1280 806 -1280 
C 1331 -1280 1677 -809 1805 -529 
L 3168 2400 
z
" transform="scale(0.015625)"/>
       <path id="CMBX12-44" d="M 243 4416 
L 243 4140 
L 922 4140 
L 922 275 
L 243 275 
L 243 0 
L 2938 0 
C 4166 0 5114 790 5114 2169 
C 5114 3625 4141 4416 2938 4416 
L 243 4416 
z
M 1734 275 
L 1734 4140 
L 2694 4140 
C 3251 4140 3699 3921 3936 3586 
C 4122 3322 4243 3006 4243 2175 
C 4243 1421 4147 1086 3923 784 
C 3699 487 3270 275 2694 275 
L 1734 275 
z
" transform="scale(0.015625)"/>
       <path id="CMBX12-76" d="M 3168 2393 
C 3213 2489 3238 2540 3642 2540 
L 3642 2816 
C 3411 2803 3398 2803 3136 2803 
C 2963 2803 2950 2803 2586 2816 
L 2586 2540 
C 2758 2540 2899 2508 2899 2463 
C 2899 2457 2899 2451 2867 2386 
L 2118 737 
L 1293 2540 
L 1645 2540 
L 1645 2816 
C 1498 2803 1050 2803 877 2803 
C 691 2803 320 2803 154 2816 
L 154 2540 
L 557 2540 
L 1683 89 
C 1741 -32 1754 -64 1901 -64 
C 2003 -64 2054 -52 2112 76 
L 3168 2393 
z
" transform="scale(0.015625)"/>
       <path id="CMBX12-69" d="M 1427 4019 
C 1427 4281 1216 4480 966 4480 
C 704 4480 506 4262 506 4019 
C 506 3775 704 3558 966 3558 
C 1216 3558 1427 3756 1427 4019 
z
M 301 2828 
L 301 2553 
C 678 2553 723 2553 723 2303 
L 723 275 
L 282 275 
L 282 0 
C 429 12 870 12 1043 12 
C 1222 12 1632 12 1786 0 
L 1786 275 
L 1389 275 
L 1389 2880 
L 301 2828 
z
" transform="scale(0.015625)"/>
       <path id="CMBX12-61" d="M 2944 1894 
C 2944 2483 2477 2880 1574 2880 
C 1216 2880 461 2847 461 2310 
C 461 2041 666 1926 838 1926 
C 1030 1926 1216 2060 1216 2303 
C 1216 2425 1171 2540 1062 2611 
C 1274 2668 1427 2668 1549 2668 
C 1984 2668 2246 2425 2246 1900 
L 2246 1644 
C 1235 1644 218 1362 218 648 
C 218 64 960 -64 1402 -64 
C 1894 -64 2208 205 2336 488 
C 2336 250 2336 -26 2982 -26 
L 3309 -26 
C 3443 -26 3494 -26 3494 115 
C 3494 250 3437 250 3347 250 
C 2944 256 2944 359 2944 507 
L 2944 1894 
z
M 2246 867 
C 2246 262 1709 147 1504 147 
C 1190 147 928 359 928 655 
C 928 1240 1619 1439 2246 1472 
L 2246 867 
z
" transform="scale(0.015625)"/>
       <path id="CMBX12-74" d="M 1350 2540 
L 2272 2540 
L 2272 2816 
L 1350 2816 
L 1350 4032 
L 1082 4032 
C 1075 3401 768 2771 134 2751 
L 134 2540 
L 653 2540 
L 653 761 
C 653 83 1178 -64 1638 -64 
C 2112 -64 2394 294 2394 768 
L 2394 1107 
L 2125 1107 
L 2125 774 
C 2125 352 1933 166 1734 166 
C 1350 166 1350 595 1350 742 
L 1350 2540 
z
" transform="scale(0.015625)"/>
       <path id="CMBX12-6f" d="M 3392 1379 
C 3392 2245 2803 2880 1798 2880 
C 755 2880 198 2213 198 1379 
C 198 538 787 -64 1792 -64 
C 2835 -64 3392 570 3392 1379 
z
M 1798 166 
C 966 166 966 917 966 1443 
C 966 1744 966 2065 1088 2296 
C 1229 2553 1517 2668 1792 2668 
C 2157 2668 2387 2495 2496 2315 
C 2624 2084 2624 1751 2624 1443 
C 2624 910 2624 166 1798 166 
z
" transform="scale(0.015625)"/>
       <path id="CMBX12-28" d="M 2394 -1530 
C 2394 -1505 2394 -1492 2272 -1376 
C 1555 -660 1280 467 1280 1593 
C 1280 2854 1594 3891 2310 4614 
C 2387 4691 2394 4697 2394 4723 
C 2394 4800 2317 4800 2285 4800 
C 2227 4800 2214 4800 2048 4665 
C 1126 3929 691 2752 691 1600 
C 691 422 1133 -724 2042 -1466 
C 2208 -1607 2221 -1607 2285 -1607 
C 2317 -1607 2394 -1607 2394 -1530 
z
" transform="scale(0.015625)"/>
       <path id="CMBX12-48" d="M 4704 4140 
L 5382 4140 
L 5382 4416 
C 5197 4403 4512 4403 4282 4403 
C 4051 4403 3366 4403 3181 4416 
L 3181 4140 
L 3859 4140 
L 3859 2432 
L 1766 2432 
L 1766 4140 
L 2445 4140 
L 2445 4416 
C 2259 4403 1574 4403 1344 4403 
C 1114 4403 429 4403 243 4416 
L 243 4140 
L 922 4140 
L 922 275 
L 243 275 
L 243 0 
C 429 12 1114 12 1344 12 
C 1574 12 2259 12 2445 0 
L 2445 275 
L 1766 275 
L 1766 2156 
L 3859 2156 
L 3859 275 
L 3181 275 
L 3181 0 
C 3366 12 4051 12 4282 12 
C 4512 12 5197 12 5382 0 
L 5382 275 
L 4704 275 
L 4704 4140 
z
" transform="scale(0.015625)"/>
       <path id="CMBX12-7a" d="M 2816 2573 
C 2874 2643 2874 2655 2874 2694 
C 2874 2816 2810 2816 2688 2816 
L 371 2816 
L 301 1724 
L 570 1724 
C 608 2326 749 2604 1459 2604 
L 2035 2604 
L 256 255 
C 198 185 198 172 198 128 
C 198 0 256 0 384 0 
L 2784 0 
L 2893 1256 
L 2624 1256 
C 2573 585 2432 230 1626 230 
L 1043 230 
L 2816 2573 
z
" transform="scale(0.015625)"/>
       <path id="CMBX12-29" d="M 2099 1593 
C 2099 2771 1658 3917 749 4659 
C 582 4800 570 4800 506 4800 
C 474 4800 397 4800 397 4723 
C 397 4697 397 4684 518 4569 
C 1235 3853 1510 2726 1510 1600 
C 1510 339 1197 -698 480 -1421 
C 403 -1498 397 -1505 397 -1530 
C 397 -1607 474 -1607 506 -1607 
C 563 -1607 576 -1607 742 -1472 
C 1664 -736 2099 441 2099 1593 
z
" transform="scale(0.015625)"/>
      </defs>
      <use xlink:href="#CMBX12-46" transform="scale(0.996264)"/>
      <use xlink:href="#CMBX12-72" transform="translate(61.113445 0) scale(0.996264)"/>
      <use xlink:href="#CMBX12-65" transform="translate(106.890953 0) scale(0.996264)"/>
      <use xlink:href="#CMBX12-71" transform="translate(158.03022 0) scale(0.996264)"/>
      <use xlink:href="#CMBX12-75" transform="translate(217.183396 0) scale(0.996264)"/>
      <use xlink:href="#CMBX12-65" transform="translate(279.449896 0) scale(0.996264)"/>
      <use xlink:href="#CMBX12-6e" transform="translate(330.589163 0) scale(0.996264)"/>
      <use xlink:href="#CMBX12-63" transform="translate(392.855664 0) scale(0.996264)"/>
      <use xlink:href="#CMBX12-79" transform="translate(442.668864 0) scale(0.996264)"/>
      <use xlink:href="#CMBX12-44" transform="translate(539.18194 0) scale(0.996264)"/>
      <use xlink:href="#CMBX12-65" transform="translate(625.086726 0) scale(0.996264)"/>
      <use xlink:href="#CMBX12-76" transform="translate(676.225993 0) scale(0.996264)"/>
      <use xlink:href="#CMBX12-69" transform="translate(735.379169 0) scale(0.996264)"/>
      <use xlink:href="#CMBX12-61" transform="translate(766.512419 0) scale(0.996264)"/>
      <use xlink:href="#CMBX12-74" transform="translate(820.995607 0) scale(0.996264)"/>
      <use xlink:href="#CMBX12-69" transform="translate(864.582158 0) scale(0.996264)"/>
      <use xlink:href="#CMBX12-6f" transform="translate(895.715408 0) scale(0.996264)"/>
      <use xlink:href="#CMBX12-6e" transform="translate(951.755259 0) scale(0.996264)"/>
      <use xlink:href="#CMBX12-28" transform="translate(1051.38166 0) scale(0.996264)"/>
      <use xlink:href="#CMBX12-48" transform="translate(1094.96821 0) scale(0.996264)"/>
      <use xlink:href="#CMBX12-7a" transform="translate(1182.602685 0) scale(0.996264)"/>
      <use xlink:href="#CMBX12-29" transform="translate(1232.415885 0) scale(0.996264)"/>
     </g>
    </g>
   </g>
   <g id="matplotlib.axis_2">
    <g id="ytick_1">
     <g id="line2d_9">
      <path d="M 57.6 300.533021 
L 414.72 300.533021 
" clip-path="url(#p9aeadf4eb8)" style="fill: none; stroke: #b0b0b0; stroke-opacity: 0.8; stroke-width: 0.8; stroke-linecap: square"/>
     </g>
     <g id="line2d_10">
      <defs>
       <path id="m389d99308a" d="M 0 0 
L -3.5 0 
" style="stroke: #000000; stroke-width: 0.8"/>
      </defs>
      <g>
       <use xlink:href="#m389d99308a" x="57.6" y="300.533021" style="stroke: #000000; stroke-width: 0.8"/>
      </g>
     </g>
     <g id="text_6">
      <!-- $\mathdefault{0.000}$ -->
      <g transform="translate(8.628183 307.451519) scale(0.2 -0.2)">
       <defs>
        <path id="CMMI12-3a" d="M 1178 307 
C 1178 492 1024 620 870 620 
C 685 620 557 467 557 313 
C 557 128 710 0 864 0 
C 1050 0 1178 153 1178 307 
z
" transform="scale(0.015625)"/>
       </defs>
       <use xlink:href="#CMR17-30" transform="scale(0.996264)"/>
       <use xlink:href="#CMMI12-3a" transform="translate(45.690477 0) scale(0.996264)"/>
       <use xlink:href="#CMR17-30" transform="translate(72.787654 0) scale(0.996264)"/>
       <use xlink:href="#CMR17-30" transform="translate(118.478131 0) scale(0.996264)"/>
       <use xlink:href="#CMR17-30" transform="translate(164.168608 0) scale(0.996264)"/>
      </g>
     </g>
    </g>
    <g id="ytick_2">
     <g id="line2d_11">
      <path d="M 57.6 234.374226 
L 414.72 234.374226 
" clip-path="url(#p9aeadf4eb8)" style="fill: none; stroke: #b0b0b0; stroke-opacity: 0.8; stroke-width: 0.8; stroke-linecap: square"/>
     </g>
     <g id="line2d_12">
      <g>
       <use xlink:href="#m389d99308a" x="57.6" y="234.374226" style="stroke: #000000; stroke-width: 0.8"/>
      </g>
     </g>
     <g id="text_7">
      <!-- $\mathdefault{0.002}$ -->
      <g transform="translate(8.628183 241.292724) scale(0.2 -0.2)">
       <use xlink:href="#CMR17-30" transform="scale(0.996264)"/>
       <use xlink:href="#CMMI12-3a" transform="translate(45.690477 0) scale(0.996264)"/>
       <use xlink:href="#CMR17-30" transform="translate(72.787654 0) scale(0.996264)"/>
       <use xlink:href="#CMR17-30" transform="translate(118.478131 0) scale(0.996264)"/>
       <use xlink:href="#CMR17-32" transform="translate(164.168608 0) scale(0.996264)"/>
      </g>
     </g>
    </g>
    <g id="ytick_3">
     <g id="line2d_13">
      <path d="M 57.6 168.21543 
L 414.72 168.21543 
" clip-path="url(#p9aeadf4eb8)" style="fill: none; stroke: #b0b0b0; stroke-opacity: 0.8; stroke-width: 0.8; stroke-linecap: square"/>
     </g>
     <g id="line2d_14">
      <g>
       <use xlink:href="#m389d99308a" x="57.6" y="168.21543" style="stroke: #000000; stroke-width: 0.8"/>
      </g>
     </g>
     <g id="text_8">
      <!-- $\mathdefault{0.004}$ -->
      <g transform="translate(8.628183 175.133929) scale(0.2 -0.2)">
       <defs>
        <path id="CMR17-34" d="M 2150 4147 
C 2150 4281 2144 4288 2029 4288 
L 128 1254 
L 128 1088 
L 1779 1088 
L 1779 460 
C 1779 230 1766 166 1318 166 
L 1197 166 
L 1197 0 
C 1402 12 1747 12 1965 12 
C 2182 12 2528 12 2733 0 
L 2733 166 
L 2611 166 
C 2163 166 2150 230 2150 460 
L 2150 1088 
L 2803 1088 
L 2803 1254 
L 2150 1254 
L 2150 4147 
z
M 1798 3723 
L 1798 1254 
L 256 1254 
L 1798 3723 
z
" transform="scale(0.015625)"/>
       </defs>
       <use xlink:href="#CMR17-30" transform="scale(0.996264)"/>
       <use xlink:href="#CMMI12-3a" transform="translate(45.690477 0) scale(0.996264)"/>
       <use xlink:href="#CMR17-30" transform="translate(72.787654 0) scale(0.996264)"/>
       <use xlink:href="#CMR17-30" transform="translate(118.478131 0) scale(0.996264)"/>
       <use xlink:href="#CMR17-34" transform="translate(164.168608 0) scale(0.996264)"/>
      </g>
     </g>
    </g>
    <g id="ytick_4">
     <g id="line2d_15">
      <path d="M 57.6 102.056635 
L 414.72 102.056635 
" clip-path="url(#p9aeadf4eb8)" style="fill: none; stroke: #b0b0b0; stroke-opacity: 0.8; stroke-width: 0.8; stroke-linecap: square"/>
     </g>
     <g id="line2d_16">
      <g>
       <use xlink:href="#m389d99308a" x="57.6" y="102.056635" style="stroke: #000000; stroke-width: 0.8"/>
      </g>
     </g>
     <g id="text_9">
      <!-- $\mathdefault{0.006}$ -->
      <g transform="translate(8.628183 108.975134) scale(0.2 -0.2)">
       <defs>
        <path id="CMR17-36" d="M 678 2198 
C 678 3712 1395 4076 1811 4076 
C 1946 4076 2272 4049 2400 3782 
C 2298 3782 2106 3782 2106 3558 
C 2106 3385 2246 3328 2336 3328 
C 2394 3328 2566 3353 2566 3571 
C 2566 3987 2246 4224 1805 4224 
C 1043 4224 243 3411 243 2011 
C 243 257 966 -128 1478 -128 
C 2099 -128 2688 431 2688 1295 
C 2688 2101 2170 2688 1517 2688 
C 1126 2688 838 2430 678 1979 
L 678 2198 
z
M 1478 25 
C 691 25 691 1212 691 1450 
C 691 1914 909 2585 1504 2585 
C 1613 2585 1926 2585 2138 2140 
C 2253 1889 2253 1624 2253 1302 
C 2253 954 2253 696 2118 438 
C 1978 173 1773 25 1478 25 
z
" transform="scale(0.015625)"/>
       </defs>
       <use xlink:href="#CMR17-30" transform="scale(0.996264)"/>
       <use xlink:href="#CMMI12-3a" transform="translate(45.690477 0) scale(0.996264)"/>
       <use xlink:href="#CMR17-30" transform="translate(72.787654 0) scale(0.996264)"/>
       <use xlink:href="#CMR17-30" transform="translate(118.478131 0) scale(0.996264)"/>
       <use xlink:href="#CMR17-36" transform="translate(164.168608 0) scale(0.996264)"/>
      </g>
     </g>
    </g>
    <g id="text_10">
     <!-- \textbf{Probability Density (1/Hz)} -->
     <g transform="translate(-0.353137 308.140418) rotate(-90) scale(0.2 -0.2)">
      <defs>
       <path id="CMBX12-50" d="M 1766 1984 
L 2854 1984 
C 3923 1984 4518 2527 4518 3184 
C 4518 3872 3910 4416 2854 4416 
L 243 4416 
L 243 4140 
L 922 4140 
L 922 275 
L 243 275 
L 243 0 
C 429 12 1114 12 1344 12 
C 1574 12 2259 12 2445 0 
L 2445 275 
L 1766 275 
L 1766 1984 
z
M 2624 4140 
C 3616 4140 3616 3617 3616 3184 
C 3616 2763 3616 2227 2624 2227 
L 1734 2227 
L 1734 4140 
L 2624 4140 
z
" transform="scale(0.015625)"/>
       <path id="CMBX12-62" d="M 1331 4480 
L 224 4428 
L 224 4153 
C 621 4153 666 4153 666 3896 
L 666 -26 
L 934 -26 
C 1043 96 1152 218 1254 347 
C 1581 6 1933 -64 2189 -64 
C 3072 -64 3750 476 3750 1414 
C 3750 2300 3149 2880 2272 2880 
C 1894 2880 1594 2758 1331 2552 
L 1331 4480 
z
M 1363 2242 
C 1587 2552 1920 2668 2189 2668 
C 2982 2668 2982 1847 2982 1420 
C 2982 1130 2982 761 2829 522 
C 2630 211 2330 147 2125 147 
C 1690 147 1453 457 1363 599 
L 1363 2242 
z
" transform="scale(0.015625)"/>
       <path id="CMBX12-6c" d="M 1389 4480 
L 282 4428 
L 282 4153 
C 678 4153 723 4153 723 3901 
L 723 275 
L 282 275 
L 282 0 
C 429 12 883 12 1056 12 
C 1229 12 1683 12 1830 0 
L 1830 275 
L 1389 275 
L 1389 4480 
z
" transform="scale(0.015625)"/>
       <path id="CMBX12-73" d="M 2413 2713 
C 2413 2835 2413 2880 2317 2880 
C 2278 2880 2266 2880 2170 2822 
C 2144 2803 2074 2758 2042 2739 
C 1862 2841 1626 2880 1395 2880 
C 1203 2880 243 2880 243 2046 
C 243 1372 1037 1231 1235 1199 
C 1408 1167 1619 1128 1645 1128 
C 1901 1071 2157 910 2157 641 
C 2157 147 1574 147 1440 147 
C 1114 147 710 249 531 872 
C 493 1000 486 1006 378 1006 
C 243 1006 243 987 243 840 
L 243 102 
C 243 -20 243 -64 339 -64 
C 384 -64 397 -64 525 38 
L 691 160 
C 979 -64 1325 -64 1440 -64 
C 1792 -64 2592 12 2592 865 
C 2592 1173 2426 1385 2298 1500 
C 2035 1719 1818 1757 1472 1821 
C 1062 1892 678 1962 678 2270 
C 678 2687 1248 2687 1382 2687 
C 2093 2687 2131 2238 2144 2078 
C 2150 1995 2202 1995 2278 1995 
C 2413 1995 2413 2014 2413 2161 
L 2413 2713 
z
" transform="scale(0.015625)"/>
       <path id="CMBX12-31" d="M 2214 4034 
C 2214 4224 2202 4224 1997 4224 
C 1523 3795 813 3795 672 3795 
L 550 3795 
L 550 3520 
L 672 3520 
C 896 3520 1235 3558 1491 3641 
L 1491 275 
L 602 275 
L 602 0 
C 870 12 1542 12 1843 12 
C 2144 12 2822 12 3091 0 
L 3091 275 
L 2214 275 
L 2214 4034 
z
" transform="scale(0.015625)"/>
       <path id="CMBX12-2f" d="M 3162 4505 
C 3194 4582 3194 4608 3194 4621 
C 3194 4736 3104 4800 3021 4800 
C 2899 4800 2874 4723 2835 4633 
L 429 -1306 
C 397 -1383 397 -1408 397 -1421 
C 397 -1536 486 -1600 570 -1600 
C 691 -1600 717 -1530 755 -1434 
L 3162 4505 
z
" transform="scale(0.015625)"/>
      </defs>
      <use xlink:href="#CMBX12-50" transform="scale(0.996264)"/>
      <use xlink:href="#CMBX12-72" transform="translate(76.564811 0) scale(0.996264)"/>
      <use xlink:href="#CMBX12-6f" transform="translate(122.342318 0) scale(0.996264)"/>
      <use xlink:href="#CMBX12-62" transform="translate(178.382169 0) scale(0.996264)"/>
      <use xlink:href="#CMBX12-61" transform="translate(240.648669 0) scale(0.996264)"/>
      <use xlink:href="#CMBX12-62" transform="translate(295.131857 0) scale(0.996264)"/>
      <use xlink:href="#CMBX12-69" transform="translate(357.398358 0) scale(0.996264)"/>
      <use xlink:href="#CMBX12-6c" transform="translate(388.531608 0) scale(0.996264)"/>
      <use xlink:href="#CMBX12-69" transform="translate(419.664858 0) scale(0.996264)"/>
      <use xlink:href="#CMBX12-74" transform="translate(450.798109 0) scale(0.996264)"/>
      <use xlink:href="#CMBX12-79" transform="translate(491.271334 0) scale(0.996264)"/>
      <use xlink:href="#CMBX12-44" transform="translate(587.78441 0) scale(0.996264)"/>
      <use xlink:href="#CMBX12-65" transform="translate(673.689196 0) scale(0.996264)"/>
      <use xlink:href="#CMBX12-6e" transform="translate(724.828463 0) scale(0.996264)"/>
      <use xlink:href="#CMBX12-73" transform="translate(787.094964 0) scale(0.996264)"/>
      <use xlink:href="#CMBX12-69" transform="translate(831.304301 0) scale(0.996264)"/>
      <use xlink:href="#CMBX12-74" transform="translate(862.437551 0) scale(0.996264)"/>
      <use xlink:href="#CMBX12-79" transform="translate(902.910776 0) scale(0.996264)"/>
      <use xlink:href="#CMBX12-28" transform="translate(999.423852 0) scale(0.996264)"/>
      <use xlink:href="#CMBX12-31" transform="translate(1043.010403 0) scale(0.996264)"/>
      <use xlink:href="#CMBX12-2f" transform="translate(1099.050253 0) scale(0.996264)"/>
      <use xlink:href="#CMBX12-48" transform="translate(1155.090104 0) scale(0.996264)"/>
      <use xlink:href="#CMBX12-7a" transform="translate(1242.724579 0) scale(0.996264)"/>
      <use xlink:href="#CMBX12-29" transform="translate(1292.537779 0) scale(0.996264)"/>
     </g>
    </g>
   </g>
   <g id="line2d_17">
    <path d="M 73.832727 290.240587 
L 80.657297 288.947 
L 86.506929 287.619387 
L 91.706601 286.223722 
L 96.581294 284.684728 
L 100.806028 283.128773 
L 104.705782 281.47049 
L 108.280557 279.727292 
L 111.855332 277.732215 
L 115.105127 275.663385 
L 118.354922 273.313023 
L 121.279738 270.922364 
L 124.204554 268.235962 
L 127.129369 265.217338 
L 129.729206 262.223869 
L 132.329042 258.908796 
L 134.928878 255.243049 
L 137.528714 251.197545 
L 140.12855 246.743949 
L 142.728387 241.855572 
L 145.328223 236.508426 
L 147.928059 230.682397 
L 150.852875 223.537344 
L 153.77769 215.756231 
L 156.702506 207.340818 
L 159.952301 197.267979 
L 163.202097 186.483278 
L 167.101851 172.716532 
L 171.651564 155.77711 
L 185.950663 101.791695 
L 189.200459 90.780227 
L 191.800295 82.687615 
L 194.075152 76.239459 
L 196.350008 70.467382 
L 198.299885 66.114942 
L 200.249762 62.356747 
L 201.87466 59.705893 
L 203.499558 57.512162 
L 204.799476 56.096794 
L 206.099394 54.990359 
L 207.399312 54.197904 
L 208.69923 53.723058 
L 209.674169 53.57672 
L 210.649107 53.610672 
L 211.624046 53.824825 
L 212.598984 54.218626 
L 213.898903 55.021324 
L 215.198821 56.13786 
L 216.498739 57.563142 
L 217.798657 59.290701 
L 219.423554 61.86323 
L 221.048452 64.877822 
L 222.998329 69.049343 
L 224.948206 73.786432 
L 227.223063 79.966872 
L 229.49792 86.776078 
L 232.097756 95.219617 
L 235.347551 106.573488 
L 239.572285 122.258129 
L 254.521343 178.701376 
L 258.421097 192.100188 
L 261.670893 202.527721 
L 264.920688 212.214397 
L 267.845504 220.269347 
L 270.770319 227.687253 
L 273.695135 234.47408 
L 276.294971 239.990973 
L 278.894808 245.041368 
L 281.494644 249.648007 
L 284.09448 253.836737 
L 286.694316 257.635414 
L 289.294152 261.072947 
L 291.893989 264.178489 
L 294.818804 267.311136 
L 297.74362 270.099408 
L 300.668436 272.580587 
L 303.593251 274.789313 
L 306.843047 276.962416 
L 310.092842 278.877467 
L 313.667617 280.727213 
L 317.567371 282.483715 
L 321.792105 284.12832 
L 326.341818 285.650783 
L 331.216511 287.047812 
L 336.741163 288.394534 
L 342.915774 289.662735 
L 349.740344 290.835887 
L 357.539853 291.948839 
L 366.639279 293.012727 
L 377.038624 293.996169 
L 389.062867 294.904828 
L 398.487273 295.488 
L 398.487273 295.488 
" clip-path="url(#p9aeadf4eb8)" style="fill: none; stroke: #ff0000; stroke-width: 2; stroke-linecap: square"/>
   </g>
   <g id="patch_3">
    <path d="M 57.6 307.584 
L 57.6 41.472 
" style="fill: none; stroke: #000000; stroke-width: 0.8; stroke-linejoin: miter; stroke-linecap: square"/>
   </g>
   <g id="patch_4">
    <path d="M 414.72 307.584 
L 414.72 41.472 
" style="fill: none; stroke: #000000; stroke-width: 0.8; stroke-linejoin: miter; stroke-linecap: square"/>
   </g>
   <g id="patch_5">
    <path d="M 57.6 307.584 
L 414.72 307.584 
" style="fill: none; stroke: #000000; stroke-width: 0.8; stroke-linejoin: miter; stroke-linecap: square"/>
   </g>
   <g id="patch_6">
    <path d="M 57.6 41.472 
L 414.72 41.472 
" style="fill: none; stroke: #000000; stroke-width: 0.8; stroke-linejoin: miter; stroke-linecap: square"/>
   </g>
   <g id="text_11">
    <!-- \textbf{Calibration Noise} -->
    <g transform="translate(141.475797 35.472) scale(0.22 -0.22)">
     <defs>
      <path id="CMBX12-43" d="M 4794 4313 
C 4794 4460 4794 4480 4653 4480 
L 4173 4018 
C 3814 4326 3386 4480 2912 4480 
C 1382 4480 397 3548 397 2210 
C 397 896 1350 -64 2918 -64 
C 4058 -64 4794 722 4794 1484 
C 4794 1593 4755 1600 4659 1600 
C 4595 1600 4531 1600 4525 1529 
C 4467 547 3642 211 3066 211 
C 2650 211 2086 327 1728 734 
C 1504 980 1299 1336 1299 2210 
C 1299 2828 1395 3297 1696 3658 
C 2106 4140 2746 4204 3053 4204 
C 3533 4204 4307 3934 4499 2803 
C 4512 2745 4570 2745 4646 2745 
C 4794 2745 4794 2758 4794 2912 
L 4794 4313 
z
" transform="scale(0.015625)"/>
      <path id="CMBX12-4e" d="M 1856 4339 
C 1792 4409 1786 4416 1658 4416 
L 243 4416 
L 243 4140 
L 922 4140 
L 922 468 
C 922 326 915 320 749 294 
C 634 281 506 275 390 275 
L 243 275 
L 243 0 
C 390 12 890 12 1069 12 
C 1248 12 1754 12 1901 0 
L 1901 275 
L 1754 275 
C 1581 275 1568 275 1414 294 
C 1229 320 1222 326 1222 468 
L 1222 3921 
L 4390 83 
C 4461 6 4467 0 4550 0 
C 4704 0 4704 38 4704 185 
L 4704 3947 
C 4704 4089 4710 4095 4877 4121 
C 4992 4134 5120 4140 5235 4140 
L 5382 4140 
L 5382 4416 
C 5235 4403 4736 4403 4557 4403 
C 4378 4403 3872 4403 3725 4416 
L 3725 4140 
L 3872 4140 
C 4045 4140 4058 4140 4211 4121 
C 4397 4095 4403 4089 4403 3947 
L 4403 1254 
L 1856 4339 
z
" transform="scale(0.015625)"/>
     </defs>
     <use xlink:href="#CMBX12-43" transform="scale(0.996264)"/>
     <use xlink:href="#CMBX12-61" transform="translate(80.946451 0) scale(0.996264)"/>
     <use xlink:href="#CMBX12-6c" transform="translate(135.429639 0) scale(0.996264)"/>
     <use xlink:href="#CMBX12-69" transform="translate(166.562889 0) scale(0.996264)"/>
     <use xlink:href="#CMBX12-62" transform="translate(197.696139 0) scale(0.996264)"/>
     <use xlink:href="#CMBX12-72" transform="translate(259.96264 0) scale(0.996264)"/>
     <use xlink:href="#CMBX12-61" transform="translate(305.740147 0) scale(0.996264)"/>
     <use xlink:href="#CMBX12-74" transform="translate(360.223335 0) scale(0.996264)"/>
     <use xlink:href="#CMBX12-69" transform="translate(403.809886 0) scale(0.996264)"/>
     <use xlink:href="#CMBX12-6f" transform="translate(434.943136 0) scale(0.996264)"/>
     <use xlink:href="#CMBX12-6e" transform="translate(490.982987 0) scale(0.996264)"/>
     <use xlink:href="#CMBX12-4e" transform="translate(590.609388 0) scale(0.996264)"/>
     <use xlink:href="#CMBX12-6f" transform="translate(678.243863 0) scale(0.996264)"/>
     <use xlink:href="#CMBX12-69" transform="translate(734.283713 0) scale(0.996264)"/>
     <use xlink:href="#CMBX12-73" transform="translate(765.416964 0) scale(0.996264)"/>
     <use xlink:href="#CMBX12-65" transform="translate(809.626301 0) scale(0.996264)"/>
    </g>
   </g>
   <g id="legend_1">
    <g id="patch_7">
     <path d="M 190.467935 99.245389 
L 402.12 99.245389 
Q 405.72 99.245389 405.72 95.645389 
L 405.72 54.072 
Q 405.72 50.472 402.12 50.472 
L 190.467935 50.472 
Q 186.867935 50.472 186.867935 54.072 
L 186.867935 95.645389 
Q 186.867935 99.245389 190.467935 99.245389 
z
" style="fill: #ffffff; opacity: 0.8; stroke: #cccccc; stroke-linejoin: miter"/>
    </g>
    <g id="line2d_18">
     <path d="M 194.067935 74.785344 
L 212.067935 74.785344 
L 230.067935 74.785344 
" style="fill: none; stroke: #ff0000; stroke-width: 2; stroke-linecap: square"/>
    </g>
    <g id="text_12">
     <!-- \textbf{Voigt Profile} -->
     <g transform="translate(244.467935 70.1253) scale(0.18 -0.18)">
      <defs>
       <path id="CMBX12-56" d="M 4634 3992 
C 4672 4075 4698 4140 5171 4140 
L 5280 4140 
L 5280 4416 
C 5082 4403 4621 4403 4570 4403 
C 4390 4403 3936 4403 3789 4416 
L 3789 4140 
C 3930 4140 4166 4140 4346 4069 
L 4314 3979 
L 3002 960 
L 1619 4140 
L 2214 4140 
L 2214 4416 
C 2010 4403 1395 4403 1152 4403 
C 947 4403 314 4403 154 4416 
L 154 4140 
L 730 4140 
L 2496 70 
C 2554 -58 2611 -64 2714 -64 
C 2816 -64 2880 -64 2938 70 
L 4634 3992 
z
" transform="scale(0.015625)"/>
       <path id="CMBX12-67" d="M 832 1177 
C 1139 1011 1498 1011 1594 1011 
C 2477 1011 2829 1506 2829 1958 
C 2829 2287 2643 2519 2566 2584 
C 2752 2687 2906 2713 3014 2726 
C 2995 2694 2976 2668 2976 2584 
C 2976 2448 3066 2326 3232 2326 
C 3398 2326 3488 2448 3488 2584 
C 3488 2739 3373 2944 3104 2944 
C 2829 2944 2566 2809 2432 2694 
C 2170 2847 1920 2905 1594 2905 
C 710 2905 358 2410 358 1958 
C 358 1758 422 1493 691 1274 
C 582 1151 467 926 467 693 
C 467 416 614 179 749 76 
C 595 38 198 -109 198 -474 
C 198 -852 614 -1280 1792 -1280 
C 2854 -1280 3392 -935 3392 -455 
C 3392 108 3021 294 2861 371 
C 2554 524 2144 524 1581 524 
C 1421 524 1139 524 1107 531 
C 832 576 755 823 755 946 
C 755 998 762 1094 832 1177 
z
M 1594 1216 
C 1037 1216 1037 1661 1037 1958 
C 1037 2255 1037 2700 1594 2700 
C 2150 2700 2150 2255 2150 1958 
C 2150 1661 2150 1216 1594 1216 
z
M 1952 -64 
C 2419 -64 2867 -148 2867 -480 
C 2867 -704 2643 -1076 1798 -1076 
C 954 -1076 723 -717 723 -474 
C 723 -64 1126 -64 1222 -64 
L 1952 -64 
z
" transform="scale(0.015625)"/>
       <path id="CMBX12-c" d="M 2221 2847 
L 2221 2822 
L 1299 2822 
L 1299 3443 
C 1299 4186 2054 4268 2310 4268 
C 2381 4268 2611 4268 2803 4104 
C 2605 4038 2522 3884 2522 3718 
C 2522 3481 2694 3328 2912 3328 
C 3123 3328 3302 3475 3302 3718 
C 3302 4070 3014 4480 2368 4480 
C 1638 4480 666 4260 666 3449 
L 666 2822 
L 192 2822 
L 192 2547 
L 666 2547 
L 666 275 
L 224 275 
L 224 0 
C 371 12 826 12 998 12 
C 1171 12 1626 12 1773 0 
L 1773 275 
L 1331 275 
L 1331 2547 
L 2464 2547 
C 2624 2547 2662 2540 2662 2318 
L 2662 275 
L 2221 275 
L 2221 0 
C 2368 12 2822 12 2995 12 
C 3168 12 3622 12 3770 0 
L 3770 275 
L 3328 275 
L 3328 2880 
L 2221 2847 
z
" transform="scale(0.015625)"/>
      </defs>
      <use xlink:href="#CMBX12-56" transform="scale(0.996264)"/>
      <use xlink:href="#CMBX12-6f" transform="translate(75.29642 0) scale(0.996264)"/>
      <use xlink:href="#CMBX12-69" transform="translate(131.33627 0) scale(0.996264)"/>
      <use xlink:href="#CMBX12-67" transform="translate(162.46952 0) scale(0.996264)"/>
      <use xlink:href="#CMBX12-74" transform="translate(218.509371 0) scale(0.996264)"/>
      <use xlink:href="#CMBX12-50" transform="translate(299.455822 0) scale(0.996264)"/>
      <use xlink:href="#CMBX12-72" transform="translate(376.020632 0) scale(0.996264)"/>
      <use xlink:href="#CMBX12-6f" transform="translate(421.79814 0) scale(0.996264)"/>
      <use xlink:href="#CMBX12-c" transform="translate(477.83799 0) scale(0.996264)"/>
      <use xlink:href="#CMBX12-6c" transform="translate(540.104491 0) scale(0.996264)"/>
      <use xlink:href="#CMBX12-65" transform="translate(571.237741 0) scale(0.996264)"/>
     </g>
     <!-- \textbf{FWHM} \boldmath$\approx 115\,\mathrm{Hz}$ -->
     <g transform="translate(244.467935 88.557324) scale(0.18 -0.18)">
      <defs>
       <path id="CMBX12-57" d="M 6694 3985 
C 6739 4101 6752 4140 7290 4140 
L 7290 4416 
C 6970 4403 6957 4403 6592 4403 
C 6406 4403 5939 4403 5786 4416 
L 5786 4140 
C 5862 4140 6426 4140 6426 4050 
C 6426 4043 6426 4030 6400 3972 
L 5325 1095 
L 4179 4140 
L 4787 4140 
L 4787 4416 
C 4582 4403 3987 4403 3744 4403 
C 3546 4403 2925 4403 2771 4416 
L 2771 4140 
L 3309 4140 
L 3571 3443 
L 2694 1095 
L 1555 4140 
L 2157 4140 
L 2157 4416 
C 1971 4403 1344 4403 1114 4403 
C 909 4403 301 4403 141 4416 
L 141 4140 
L 678 4140 
L 2202 89 
C 2240 -20 2259 -64 2400 -64 
C 2541 -64 2560 -20 2598 83 
L 3712 3056 
L 4832 83 
C 4870 -20 4890 -64 5030 -64 
C 5152 -64 5184 -39 5229 83 
L 6694 3985 
z
" transform="scale(0.015625)"/>
       <path id="CMBX12-4d" d="M 3411 816 
L 1875 4281 
C 1818 4416 1760 4416 1626 4416 
L 262 4416 
L 262 4140 
L 941 4140 
L 941 468 
C 941 326 934 320 768 294 
C 653 281 525 275 410 275 
L 262 275 
L 262 0 
C 410 12 909 12 1088 12 
C 1267 12 1773 12 1920 0 
L 1920 275 
L 1773 275 
C 1600 275 1587 275 1434 294 
C 1248 320 1242 326 1242 468 
L 1242 4063 
L 1248 4063 
L 2989 134 
C 3021 64 3059 0 3168 0 
C 3277 0 3315 64 3347 134 
L 5120 4140 
L 5126 4140 
L 5126 275 
L 4448 275 
L 4448 0 
C 4621 12 5286 12 5504 12 
C 5722 12 6387 12 6560 0 
L 6560 275 
L 5882 275 
L 5882 4140 
L 6560 4140 
L 6560 4416 
L 5197 4416 
C 5062 4416 5005 4416 4947 4281 
L 3411 816 
z
" transform="scale(0.015625)"/>
       <path id="CMBSY10-19" d="M 2765 2406 
C 3245 2131 3616 1920 4077 1920 
C 4787 1920 5306 2400 5306 3072 
C 5306 3244 5242 3360 5171 3360 
C 5056 3360 5037 3174 5030 3052 
C 5011 2828 4646 2464 4077 2464 
C 3661 2464 3270 2689 2950 2873 
C 2470 3148 2099 3360 1638 3360 
C 928 3360 410 2880 410 2208 
C 410 2073 454 1920 550 1920 
C 614 1920 672 2009 685 2169 
C 717 2583 1229 2816 1638 2816 
C 2054 2816 2445 2590 2765 2406 
z
M 2950 1145 
C 2470 1420 2099 1632 1638 1632 
C 928 1632 410 1152 410 511 
C 410 377 454 223 550 223 
C 614 223 672 313 685 473 
C 717 876 1229 1088 1638 1088 
C 2054 1088 2445 882 2765 710 
C 3245 435 3616 223 4077 223 
C 4787 223 5306 703 5306 1344 
C 5306 1484 5254 1632 5165 1632 
C 5056 1632 5037 1433 5030 1324 
C 5011 1100 4646 768 4077 768 
C 3661 768 3270 973 2950 1145 
z
" transform="scale(0.015625)"/>
       <path id="CMBX12-35" d="M 986 3359 
C 1203 3308 1376 3308 1472 3308 
C 1626 3308 1990 3308 2419 3571 
C 2618 3692 2950 3980 2950 4115 
C 2950 4147 2950 4224 2874 4224 
C 2867 4224 2854 4224 2790 4191 
C 2496 4090 2182 4032 1824 4032 
C 1459 4032 1152 4090 851 4198 
C 806 4211 787 4224 768 4224 
C 691 4224 691 4159 691 4058 
L 691 2179 
C 691 2055 691 1984 819 1984 
C 883 1984 896 1991 947 2055 
C 1024 2146 1254 2432 1798 2432 
C 2387 2432 2387 1822 2387 1312 
C 2387 851 2387 192 1600 192 
C 1363 192 960 280 742 640 
C 1082 640 1165 896 1165 1036 
C 1165 1267 998 1440 762 1440 
C 570 1440 358 1324 358 1024 
C 358 469 864 -64 1626 -64 
C 2611 -64 3232 501 3232 1292 
C 3232 2081 2701 2643 1824 2643 
C 1568 2643 1261 2592 986 2386 
L 986 3359 
z
" transform="scale(0.015625)"/>
      </defs>
      <use xlink:href="#CMBX12-46" transform="scale(0.996264)"/>
      <use xlink:href="#CMBX12-57" transform="translate(70.453421 0) scale(0.996264)"/>
      <use xlink:href="#CMBX12-48" transform="translate(186.223065 0) scale(0.996264)"/>
      <use xlink:href="#CMBX12-4d" transform="translate(273.85754 0) scale(0.996264)"/>
      <use xlink:href="#CMBSY10-19" transform="translate(410.247932 0) scale(0.996264)"/>
      <use xlink:href="#CMBX12-31" transform="translate(531.182671 0) scale(0.996264)"/>
      <use xlink:href="#CMBX12-31" transform="translate(587.222522 0) scale(0.996264)"/>
      <use xlink:href="#CMBX12-35" transform="translate(643.262372 0) scale(0.996264)"/>
      <use xlink:href="#CMBX12-48" transform="translate(718.397182 0) scale(0.996264)"/>
      <use xlink:href="#CMBX12-7a" transform="translate(806.031657 0) scale(0.996264)"/>
     </g>
    </g>
   </g>
  </g>
 </g>
 <defs>
  <clipPath id="p9aeadf4eb8">
   <rect x="57.6" y="41.472" width="357.12" height="266.112"/>
  </clipPath>
 </defs>
</svg>
