<?xml version="1.0" encoding="utf-8" standalone="no"?>
<!DOCTYPE svg PUBLIC "-//W3C//DTD SVG 1.1//EN"
  "http://www.w3.org/Graphics/SVG/1.1/DTD/svg11.dtd">
<svg xmlns:xlink="http://www.w3.org/1999/xlink" width="576pt" height="576pt" viewBox="0 0 576 576" xmlns="http://www.w3.org/2000/svg" version="1.1">
 <metadata>
  <rdf:RDF xmlns:dc="http://purl.org/dc/elements/1.1/" xmlns:cc="http://creativecommons.org/ns#" xmlns:rdf="http://www.w3.org/1999/02/22-rdf-syntax-ns#">
   <cc:Work>
    <dc:type rdf:resource="http://purl.org/dc/dcmitype/StillImage"/>
    <dc:date>2025-11-24T11:47:11.841469</dc:date>
    <dc:format>image/svg+xml</dc:format>
    <dc:creator>
     <cc:Agent>
      <dc:title>Matplotlib v3.10.0, https://matplotlib.org/</dc:title>
     </cc:Agent>
    </dc:creator>
   </cc:Work>
  </rdf:RDF>
 </metadata>
 <defs>
  <style type="text/css">*{stroke-linejoin: round; stroke-linecap: butt}</style>
 </defs>
 <g id="figure_1">
  <g id="patch_1">
   <path d="M 0 576 
L 576 576 
L 576 0 
L 0 0 
z
" style="fill: #ffffff"/>
  </g>
  <g id="axes_1">
   <g id="patch_2">
    <path d="M 83.740286 522.317271 
L 565.2 522.317271 
L 565.2 36.315386 
L 83.740286 36.315386 
z
" style="fill: #ffffff"/>
   </g>
   <g id="PathCollection_1">
    <defs>
     <path id="m3320327263" d="M 0 3 
C 0.795609 3 1.55874 2.683901 2.12132 2.12132 
C 2.683901 1.55874 3 0.795609 3 0 
C 3 -0.795609 2.683901 -1.55874 2.12132 -2.12132 
C 1.55874 -2.683901 0.795609 -3 0 -3 
C -0.795609 -3 -1.55874 -2.683901 -2.12132 -2.12132 
C -2.683901 -1.55874 -3 -0.795609 -3 0 
C -3 0.795609 -2.683901 1.55874 -2.12132 2.12132 
C -1.55874 2.683901 -0.795609 3 0 3 
z
" style="stroke: #1f77b4; stroke-opacity: 0.7"/>
    </defs>
    <g clip-path="url(#p8403d16efb)">
     <use xlink:href="#m3320327263" x="259.777824" y="338.299262" style="fill: #1f77b4; fill-opacity: 0.7; stroke: #1f77b4; stroke-opacity: 0.7"/>
     <use xlink:href="#m3320327263" x="261.501321" y="332.273429" style="fill: #1f77b4; fill-opacity: 0.7; stroke: #1f77b4; stroke-opacity: 0.7"/>
     <use xlink:href="#m3320327263" x="272.761698" y="321.31446" style="fill: #1f77b4; fill-opacity: 0.7; stroke: #1f77b4; stroke-opacity: 0.7"/>
     <use xlink:href="#m3320327263" x="278.972924" y="317.447631" style="fill: #1f77b4; fill-opacity: 0.7; stroke: #1f77b4; stroke-opacity: 0.7"/>
     <use xlink:href="#m3320327263" x="303.574551" y="292.138262" style="fill: #1f77b4; fill-opacity: 0.7; stroke: #1f77b4; stroke-opacity: 0.7"/>
     <use xlink:href="#m3320327263" x="328.759933" y="273.186179" style="fill: #1f77b4; fill-opacity: 0.7; stroke: #1f77b4; stroke-opacity: 0.7"/>
     <use xlink:href="#m3320327263" x="105.624818" y="500.226277" style="fill: #1f77b4; fill-opacity: 0.7; stroke: #1f77b4; stroke-opacity: 0.7"/>
     <use xlink:href="#m3320327263" x="114.717884" y="488.982485" style="fill: #1f77b4; fill-opacity: 0.7; stroke: #1f77b4; stroke-opacity: 0.7"/>
     <use xlink:href="#m3320327263" x="365.573235" y="254.742224" style="fill: #1f77b4; fill-opacity: 0.7; stroke: #1f77b4; stroke-opacity: 0.7"/>
     <use xlink:href="#m3320327263" x="543.315468" y="58.406381" style="fill: #1f77b4; fill-opacity: 0.7; stroke: #1f77b4; stroke-opacity: 0.7"/>
     <use xlink:href="#m3320327263" x="187.842486" y="401.40087" style="fill: #1f77b4; fill-opacity: 0.7; stroke: #1f77b4; stroke-opacity: 0.7"/>
     <use xlink:href="#m3320327263" x="283.371887" y="310.983845" style="fill: #1f77b4; fill-opacity: 0.7; stroke: #1f77b4; stroke-opacity: 0.7"/>
     <use xlink:href="#m3320327263" x="341.2278" y="259.381797" style="fill: #1f77b4; fill-opacity: 0.7; stroke: #1f77b4; stroke-opacity: 0.7"/>
     <use xlink:href="#m3320327263" x="318.993391" y="282.881784" style="fill: #1f77b4; fill-opacity: 0.7; stroke: #1f77b4; stroke-opacity: 0.7"/>
     <use xlink:href="#m3320327263" x="250.058239" y="342.87648" style="fill: #1f77b4; fill-opacity: 0.7; stroke: #1f77b4; stroke-opacity: 0.7"/>
     <use xlink:href="#m3320327263" x="280.155332" y="316.686132" style="fill: #1f77b4; fill-opacity: 0.7; stroke: #1f77b4; stroke-opacity: 0.7"/>
     <use xlink:href="#m3320327263" x="380.810014" y="223.815011" style="fill: #1f77b4; fill-opacity: 0.7; stroke: #1f77b4; stroke-opacity: 0.7"/>
     <use xlink:href="#m3320327263" x="233.412434" y="361.397963" style="fill: #1f77b4; fill-opacity: 0.7; stroke: #1f77b4; stroke-opacity: 0.7"/>
     <use xlink:href="#m3320327263" x="279.958729" y="312.831842" style="fill: #1f77b4; fill-opacity: 0.7; stroke: #1f77b4; stroke-opacity: 0.7"/>
    </g>
   </g>
   <g id="matplotlib.axis_1">
    <g id="xtick_1">
     <g id="line2d_1">
      <path d="M 161.823614 522.317271 
L 161.823614 36.315386 
" clip-path="url(#p8403d16efb)" style="fill: none; stroke: #b0b0b0; stroke-width: 0.8; stroke-linecap: square"/>
     </g>
     <g id="line2d_2">
      <defs>
       <path id="me4621539bb" d="M 0 0 
L 0 3.5 
" style="stroke: #000000; stroke-width: 0.8"/>
      </defs>
      <g>
       <use xlink:href="#me4621539bb" x="161.823614" y="522.317271" style="stroke: #000000; stroke-width: 0.8"/>
      </g>
     </g>
     <g id="text_1">
      <!-- $\mathdefault{−0.002}$ -->
      <g transform="translate(135.962425 541.770572) scale(0.18 -0.18)">
       <defs>
        <path id="CMSY10-0" d="M 4218 1472 
C 4326 1472 4442 1472 4442 1600 
C 4442 1728 4326 1728 4218 1728 
L 755 1728 
C 646 1728 531 1728 531 1600 
C 531 1472 646 1472 755 1472 
L 4218 1472 
z
" transform="scale(0.015625)"/>
        <path id="CMR17-30" d="M 2688 2038 
C 2688 2430 2682 3099 2413 3613 
C 2176 4063 1798 4224 1466 4224 
C 1158 4224 768 4082 525 3620 
C 269 3137 243 2539 243 2038 
C 243 1671 250 1112 448 623 
C 723 -39 1216 -128 1466 -128 
C 1760 -128 2208 -7 2470 604 
C 2662 1048 2688 1568 2688 2038 
z
M 1466 -26 
C 1056 -26 813 328 723 816 
C 653 1196 653 1749 653 2109 
C 653 2604 653 3015 736 3407 
C 858 3954 1216 4121 1466 4121 
C 1728 4121 2067 3947 2189 3420 
C 2272 3054 2278 2623 2278 2109 
C 2278 1691 2278 1176 2202 797 
C 2067 96 1690 -26 1466 -26 
z
" transform="scale(0.015625)"/>
        <path id="CMMI12-3a" d="M 1178 307 
C 1178 492 1024 620 870 620 
C 685 620 557 467 557 313 
C 557 128 710 0 864 0 
C 1050 0 1178 153 1178 307 
z
" transform="scale(0.015625)"/>
        <path id="CMR17-32" d="M 2669 990 
L 2554 990 
C 2490 537 2438 460 2413 422 
C 2381 371 1920 371 1830 371 
L 602 371 
C 832 620 1280 1073 1824 1596 
C 2214 1966 2669 2400 2669 3033 
C 2669 3788 2067 4224 1395 4224 
C 691 4224 262 3603 262 3027 
C 262 2777 448 2745 525 2745 
C 589 2745 781 2783 781 3007 
C 781 3206 614 3264 525 3264 
C 486 3264 448 3257 422 3244 
C 544 3788 915 4057 1306 4057 
C 1862 4057 2227 3616 2227 3033 
C 2227 2477 1901 1998 1536 1583 
L 262 147 
L 262 0 
L 2515 0 
L 2669 990 
z
" transform="scale(0.015625)"/>
       </defs>
       <use xlink:href="#CMSY10-0" transform="scale(0.996264)"/>
       <use xlink:href="#CMR17-30" transform="translate(77.487468 0) scale(0.996264)"/>
       <use xlink:href="#CMMI12-3a" transform="translate(123.177945 0) scale(0.996264)"/>
       <use xlink:href="#CMR17-30" transform="translate(150.275122 0) scale(0.996264)"/>
       <use xlink:href="#CMR17-30" transform="translate(195.965599 0) scale(0.996264)"/>
       <use xlink:href="#CMR17-32" transform="translate(241.656076 0) scale(0.996264)"/>
      </g>
     </g>
    </g>
    <g id="xtick_2">
     <g id="line2d_3">
      <path d="M 253.029873 522.317271 
L 253.029873 36.315386 
" clip-path="url(#p8403d16efb)" style="fill: none; stroke: #b0b0b0; stroke-width: 0.8; stroke-linecap: square"/>
     </g>
     <g id="line2d_4">
      <g>
       <use xlink:href="#me4621539bb" x="253.029873" y="522.317271" style="stroke: #000000; stroke-width: 0.8"/>
      </g>
     </g>
     <g id="text_2">
      <!-- $\mathdefault{0.000}$ -->
      <g transform="translate(234.142555 541.770572) scale(0.18 -0.18)">
       <use xlink:href="#CMR17-30" transform="scale(0.996264)"/>
       <use xlink:href="#CMMI12-3a" transform="translate(45.690477 0) scale(0.996264)"/>
       <use xlink:href="#CMR17-30" transform="translate(72.787654 0) scale(0.996264)"/>
       <use xlink:href="#CMR17-30" transform="translate(118.478131 0) scale(0.996264)"/>
       <use xlink:href="#CMR17-30" transform="translate(164.168608 0) scale(0.996264)"/>
      </g>
     </g>
    </g>
    <g id="xtick_3">
     <g id="line2d_5">
      <path d="M 344.236132 522.317271 
L 344.236132 36.315386 
" clip-path="url(#p8403d16efb)" style="fill: none; stroke: #b0b0b0; stroke-width: 0.8; stroke-linecap: square"/>
     </g>
     <g id="line2d_6">
      <g>
       <use xlink:href="#me4621539bb" x="344.236132" y="522.317271" style="stroke: #000000; stroke-width: 0.8"/>
      </g>
     </g>
     <g id="text_3">
      <!-- $\mathdefault{0.002}$ -->
      <g transform="translate(325.348814 541.770572) scale(0.18 -0.18)">
       <use xlink:href="#CMR17-30" transform="scale(0.996264)"/>
       <use xlink:href="#CMMI12-3a" transform="translate(45.690477 0) scale(0.996264)"/>
       <use xlink:href="#CMR17-30" transform="translate(72.787654 0) scale(0.996264)"/>
       <use xlink:href="#CMR17-30" transform="translate(118.478131 0) scale(0.996264)"/>
       <use xlink:href="#CMR17-32" transform="translate(164.168608 0) scale(0.996264)"/>
      </g>
     </g>
    </g>
    <g id="xtick_4">
     <g id="line2d_7">
      <path d="M 435.442391 522.317271 
L 435.442391 36.315386 
" clip-path="url(#p8403d16efb)" style="fill: none; stroke: #b0b0b0; stroke-width: 0.8; stroke-linecap: square"/>
     </g>
     <g id="line2d_8">
      <g>
       <use xlink:href="#me4621539bb" x="435.442391" y="522.317271" style="stroke: #000000; stroke-width: 0.8"/>
      </g>
     </g>
     <g id="text_4">
      <!-- $\mathdefault{0.004}$ -->
      <g transform="translate(416.555073 541.770572) scale(0.18 -0.18)">
       <defs>
        <path id="CMR17-34" d="M 2150 4147 
C 2150 4281 2144 4288 2029 4288 
L 128 1254 
L 128 1088 
L 1779 1088 
L 1779 460 
C 1779 230 1766 166 1318 166 
L 1197 166 
L 1197 0 
C 1402 12 1747 12 1965 12 
C 2182 12 2528 12 2733 0 
L 2733 166 
L 2611 166 
C 2163 166 2150 230 2150 460 
L 2150 1088 
L 2803 1088 
L 2803 1254 
L 2150 1254 
L 2150 4147 
z
M 1798 3723 
L 1798 1254 
L 256 1254 
L 1798 3723 
z
" transform="scale(0.015625)"/>
       </defs>
       <use xlink:href="#CMR17-30" transform="scale(0.996264)"/>
       <use xlink:href="#CMMI12-3a" transform="translate(45.690477 0) scale(0.996264)"/>
       <use xlink:href="#CMR17-30" transform="translate(72.787654 0) scale(0.996264)"/>
       <use xlink:href="#CMR17-30" transform="translate(118.478131 0) scale(0.996264)"/>
       <use xlink:href="#CMR17-34" transform="translate(164.168608 0) scale(0.996264)"/>
      </g>
     </g>
    </g>
    <g id="xtick_5">
     <g id="line2d_9">
      <path d="M 526.648649 522.317271 
L 526.648649 36.315386 
" clip-path="url(#p8403d16efb)" style="fill: none; stroke: #b0b0b0; stroke-width: 0.8; stroke-linecap: square"/>
     </g>
     <g id="line2d_10">
      <g>
       <use xlink:href="#me4621539bb" x="526.648649" y="522.317271" style="stroke: #000000; stroke-width: 0.8"/>
      </g>
     </g>
     <g id="text_5">
      <!-- $\mathdefault{0.006}$ -->
      <g transform="translate(507.761332 541.770572) scale(0.18 -0.18)">
       <defs>
        <path id="CMR17-36" d="M 678 2198 
C 678 3712 1395 4076 1811 4076 
C 1946 4076 2272 4049 2400 3782 
C 2298 3782 2106 3782 2106 3558 
C 2106 3385 2246 3328 2336 3328 
C 2394 3328 2566 3353 2566 3571 
C 2566 3987 2246 4224 1805 4224 
C 1043 4224 243 3411 243 2011 
C 243 257 966 -128 1478 -128 
C 2099 -128 2688 431 2688 1295 
C 2688 2101 2170 2688 1517 2688 
C 1126 2688 838 2430 678 1979 
L 678 2198 
z
M 1478 25 
C 691 25 691 1212 691 1450 
C 691 1914 909 2585 1504 2585 
C 1613 2585 1926 2585 2138 2140 
C 2253 1889 2253 1624 2253 1302 
C 2253 954 2253 696 2118 438 
C 1978 173 1773 25 1478 25 
z
" transform="scale(0.015625)"/>
       </defs>
       <use xlink:href="#CMR17-30" transform="scale(0.996264)"/>
       <use xlink:href="#CMMI12-3a" transform="translate(45.690477 0) scale(0.996264)"/>
       <use xlink:href="#CMR17-30" transform="translate(72.787654 0) scale(0.996264)"/>
       <use xlink:href="#CMR17-30" transform="translate(118.478131 0) scale(0.996264)"/>
       <use xlink:href="#CMR17-36" transform="translate(164.168608 0) scale(0.996264)"/>
      </g>
     </g>
    </g>
    <g id="text_6">
     <!-- \boldmath$f_1-f_0$ -->
     <g transform="translate(294.370598 561.711936) scale(0.18 -0.18)">
      <defs>
       <path id="CMMIB10-66" d="M 2746 2515 
L 3494 2515 
C 3616 2515 3731 2515 3731 2700 
C 3731 2816 3622 2816 3514 2816 
L 2797 2816 
L 3008 3984 
C 3027 4101 3027 4114 3091 4172 
C 3174 4249 3245 4249 3277 4249 
C 3366 4249 3424 4236 3501 4204 
C 3347 4126 3232 3959 3232 3784 
C 3232 3590 3386 3487 3546 3487 
C 3808 3487 4006 3720 4006 3965 
C 4006 4294 3674 4480 3277 4480 
C 2976 4480 2618 4358 2394 3997 
C 2246 3758 2208 3507 2086 2816 
L 1459 2816 
C 1338 2816 1229 2816 1229 2630 
C 1229 2515 1338 2515 1440 2515 
L 2029 2515 
L 1542 -183 
C 1530 -240 1459 -639 1427 -727 
C 1414 -759 1312 -1050 1107 -1050 
C 986 -1050 934 -1031 890 -1012 
C 1050 -936 1171 -771 1171 -594 
C 1171 -404 1018 -303 858 -303 
C 595 -303 397 -531 397 -771 
C 397 -1114 762 -1280 1094 -1280 
C 1574 -1280 1907 -809 1958 -727 
C 2234 -309 2381 495 2400 603 
L 2746 2515 
z
" transform="scale(0.015625)"/>
       <path id="CMBX12-31" d="M 2214 4034 
C 2214 4224 2202 4224 1997 4224 
C 1523 3795 813 3795 672 3795 
L 550 3795 
L 550 3520 
L 672 3520 
C 896 3520 1235 3558 1491 3641 
L 1491 275 
L 602 275 
L 602 0 
C 870 12 1542 12 1843 12 
C 2144 12 2822 12 3091 0 
L 3091 275 
L 2214 275 
L 2214 4034 
z
" transform="scale(0.015625)"/>
       <path id="CMBSY10-0" d="M 4813 1408 
C 4909 1408 5101 1408 5101 1600 
C 5101 1798 4915 1798 4813 1798 
L 902 1798 
C 806 1798 614 1798 614 1606 
C 614 1408 800 1408 902 1408 
L 4813 1408 
z
" transform="scale(0.015625)"/>
       <path id="CMBX12-30" d="M 3309 2060 
C 3309 2677 3309 4224 1798 4224 
C 282 4224 282 2683 282 2060 
C 282 1444 282 -64 1792 -64 
C 3302 -64 3309 1424 3309 2060 
z
M 1798 147 
C 1594 147 1440 230 1312 365 
C 1152 526 1050 628 1050 2137 
C 1050 2587 1050 2998 1101 3331 
C 1190 3967 1651 4012 1792 4012 
C 1997 4012 2394 3916 2483 3376 
C 2541 3049 2541 2529 2541 2137 
C 2541 622 2445 532 2253 339 
C 2125 211 1952 147 1798 147 
z
" transform="scale(0.015625)"/>
      </defs>
      <use xlink:href="#CMMIB10-66" transform="scale(0.996264)"/>
      <use xlink:href="#CMBX12-31" transform="translate(56.593469 -14.943915) scale(0.697382)"/>
      <use xlink:href="#CMBSY10-0" transform="translate(121.779259 0) scale(0.996264)"/>
      <use xlink:href="#CMMIB10-66" transform="translate(236.349012 0) scale(0.996264)"/>
      <use xlink:href="#CMBX12-30" transform="translate(292.942481 -14.943915) scale(0.697382)"/>
     </g>
    </g>
    <g id="text_7">
     <!-- $\mathdefault{+7.78 \times 10^{1}}$ -->
     <g transform="translate(513.629458 555.261291) scale(0.1 -0.1)">
      <defs>
       <path id="CMR17-2b" d="M 2413 1472 
L 4109 1472 
C 4198 1472 4307 1472 4307 1580 
C 4307 1696 4205 1696 4109 1696 
L 2413 1696 
L 2413 3385 
C 2413 3475 2413 3584 2304 3584 
C 2189 3584 2189 3481 2189 3385 
L 2189 1696 
L 493 1696 
C 403 1696 294 1696 294 1587 
C 294 1472 397 1472 493 1472 
L 2189 1472 
L 2189 -194 
C 2189 -282 2189 -391 2298 -391 
C 2413 -391 2413 -289 2413 -194 
L 2413 1472 
z
" transform="scale(0.015625)"/>
       <path id="CMR17-37" d="M 2886 3955 
L 2886 4096 
L 1382 4096 
C 634 4096 621 4166 595 4288 
L 480 4288 
L 294 3104 
L 410 3104 
C 429 3226 474 3552 550 3673 
C 589 3724 1062 3724 1171 3724 
L 2579 3724 
L 1869 2670 
C 1395 1961 1069 1003 1069 166 
C 1069 89 1069 -128 1299 -128 
C 1530 -128 1530 89 1530 172 
L 1530 466 
C 1530 1514 1709 2204 2003 2644 
L 2886 3955 
z
" transform="scale(0.015625)"/>
       <path id="CMR17-38" d="M 1741 2289 
C 2144 2494 2554 2803 2554 3298 
C 2554 3884 1990 4224 1472 4224 
C 890 4224 378 3800 378 3215 
C 378 3054 416 2777 666 2533 
C 730 2469 998 2276 1171 2154 
C 883 2006 211 1652 211 945 
C 211 282 838 -128 1459 -128 
C 2144 -128 2720 366 2720 1022 
C 2720 1607 2330 1877 2074 2051 
L 1741 2289 
z
M 902 2855 
C 851 2887 595 3086 595 3388 
C 595 3781 998 4076 1459 4076 
C 1965 4076 2336 3716 2336 3298 
C 2336 2700 1670 2359 1638 2359 
C 1632 2359 1626 2359 1574 2398 
L 902 2855 
z
M 2080 1536 
C 2176 1466 2483 1253 2483 861 
C 2483 385 2010 25 1472 25 
C 890 25 448 443 448 951 
C 448 1459 838 1884 1280 2083 
L 2080 1536 
z
" transform="scale(0.015625)"/>
       <path id="CMSY10-2" d="M 2490 1775 
L 1210 3046 
C 1133 3123 1120 3136 1069 3136 
C 1005 3136 941 3078 941 3008 
C 941 2963 954 2950 1024 2880 
L 2304 1596 
L 1024 313 
C 954 243 941 230 941 185 
C 941 115 1005 57 1069 57 
C 1120 57 1133 70 1210 147 
L 2483 1418 
L 3808 95 
C 3821 89 3866 57 3904 57 
C 3981 57 4032 115 4032 185 
C 4032 198 4032 223 4013 255 
C 4006 268 2989 1271 2669 1596 
L 3840 2765 
C 3872 2803 3968 2886 4000 2925 
C 4006 2937 4032 2963 4032 3008 
C 4032 3078 3981 3136 3904 3136 
C 3853 3136 3827 3110 3757 3040 
L 2490 1775 
z
" transform="scale(0.015625)"/>
       <path id="CMR17-31" d="M 1702 4083 
C 1702 4217 1696 4224 1606 4224 
C 1357 3927 979 3833 621 3820 
C 602 3820 570 3820 563 3808 
C 557 3795 557 3782 557 3648 
C 755 3648 1088 3686 1344 3839 
L 1344 467 
C 1344 243 1331 166 781 166 
L 589 166 
L 589 0 
C 896 6 1216 12 1523 12 
C 1830 12 2150 6 2458 0 
L 2458 166 
L 2266 166 
C 1715 166 1702 236 1702 467 
L 1702 4083 
z
" transform="scale(0.015625)"/>
      </defs>
      <use xlink:href="#CMR17-2b" transform="scale(0.996264)"/>
      <use xlink:href="#CMR17-37" transform="translate(71.714788 0) scale(0.996264)"/>
      <use xlink:href="#CMMI12-3a" transform="translate(117.405266 0) scale(0.996264)"/>
      <use xlink:href="#CMR17-37" transform="translate(144.502443 0) scale(0.996264)"/>
      <use xlink:href="#CMR17-38" transform="translate(190.19292 0) scale(0.996264)"/>
      <use xlink:href="#CMSY10-2" transform="translate(258.022604 0) scale(0.996264)"/>
      <use xlink:href="#CMR17-31" transform="translate(357.649278 0) scale(0.996264)"/>
      <use xlink:href="#CMR17-30" transform="translate(403.339756 0) scale(0.996264)"/>
      <use xlink:href="#CMR17-31" transform="translate(449.030233 36.153639) scale(0.697382)"/>
     </g>
    </g>
   </g>
   <g id="matplotlib.axis_2">
    <g id="ytick_1">
     <g id="line2d_11">
      <path d="M 83.740286 493.414986 
L 565.2 493.414986 
" clip-path="url(#p8403d16efb)" style="fill: none; stroke: #b0b0b0; stroke-width: 0.8; stroke-linecap: square"/>
     </g>
     <g id="line2d_12">
      <defs>
       <path id="md964c94aab" d="M 0 0 
L -3.5 0 
" style="stroke: #000000; stroke-width: 0.8"/>
      </defs>
      <g>
       <use xlink:href="#md964c94aab" x="83.740286" y="493.414986" style="stroke: #000000; stroke-width: 0.8"/>
      </g>
     </g>
     <g id="text_8">
      <!-- $\mathdefault{74.314}$ -->
      <g transform="translate(30.741364 499.641636) scale(0.18 -0.18)">
       <defs>
        <path id="CMR17-33" d="M 1414 2176 
C 1984 2176 2234 1673 2234 1094 
C 2234 322 1824 25 1453 25 
C 1114 25 563 193 390 691 
C 422 678 454 678 486 678 
C 640 678 755 780 755 947 
C 755 1132 614 1216 486 1216 
C 378 1216 211 1164 211 927 
C 211 335 787 -128 1466 -128 
C 2176 -128 2720 432 2720 1087 
C 2720 1718 2208 2176 1600 2246 
C 2086 2347 2554 2776 2554 3353 
C 2554 3856 2048 4224 1472 4224 
C 890 4224 378 3862 378 3347 
C 378 3123 544 3084 627 3084 
C 762 3084 877 3167 877 3334 
C 877 3500 762 3584 627 3584 
C 602 3584 570 3584 544 3571 
C 730 3999 1235 4076 1459 4076 
C 1683 4076 2106 3966 2106 3347 
C 2106 3167 2080 2851 1862 2574 
C 1670 2329 1453 2316 1242 2297 
C 1210 2297 1062 2284 1037 2284 
C 992 2278 966 2272 966 2227 
C 966 2182 973 2176 1101 2176 
L 1414 2176 
z
" transform="scale(0.015625)"/>
       </defs>
       <use xlink:href="#CMR17-37" transform="scale(0.996264)"/>
       <use xlink:href="#CMR17-34" transform="translate(45.690477 0) scale(0.996264)"/>
       <use xlink:href="#CMMI12-3a" transform="translate(91.380954 0) scale(0.996264)"/>
       <use xlink:href="#CMR17-33" transform="translate(118.478131 0) scale(0.996264)"/>
       <use xlink:href="#CMR17-31" transform="translate(164.168608 0) scale(0.996264)"/>
       <use xlink:href="#CMR17-34" transform="translate(209.859086 0) scale(0.996264)"/>
      </g>
     </g>
    </g>
    <g id="ytick_2">
     <g id="line2d_13">
      <path d="M 83.740286 437.352141 
L 565.2 437.352141 
" clip-path="url(#p8403d16efb)" style="fill: none; stroke: #b0b0b0; stroke-width: 0.8; stroke-linecap: square"/>
     </g>
     <g id="line2d_14">
      <g>
       <use xlink:href="#md964c94aab" x="83.740286" y="437.352141" style="stroke: #000000; stroke-width: 0.8"/>
      </g>
     </g>
     <g id="text_9">
      <!-- $\mathdefault{74.315}$ -->
      <g transform="translate(30.741364 443.578791) scale(0.18 -0.18)">
       <defs>
        <path id="CMR17-35" d="M 730 3750 
C 794 3724 1056 3641 1325 3641 
C 1920 3641 2246 3961 2432 4140 
C 2432 4191 2432 4224 2394 4224 
C 2387 4224 2374 4224 2323 4198 
C 2099 4102 1837 4032 1517 4032 
C 1325 4032 1037 4055 723 4191 
C 653 4224 640 4224 634 4224 
C 602 4224 595 4217 595 4090 
L 595 2231 
C 595 2113 595 2080 659 2080 
C 691 2080 704 2093 736 2139 
C 941 2435 1222 2560 1542 2560 
C 1766 2560 2246 2415 2246 1293 
C 2246 1087 2246 716 2054 422 
C 1894 159 1645 25 1370 25 
C 947 25 518 319 403 812 
C 429 806 480 793 506 793 
C 589 793 749 838 749 1036 
C 749 1209 627 1280 506 1280 
C 358 1280 262 1190 262 1011 
C 262 454 704 -128 1382 -128 
C 2042 -128 2669 441 2669 1267 
C 2669 2054 2170 2662 1549 2662 
C 1222 2662 947 2540 730 2304 
L 730 3750 
z
" transform="scale(0.015625)"/>
       </defs>
       <use xlink:href="#CMR17-37" transform="scale(0.996264)"/>
       <use xlink:href="#CMR17-34" transform="translate(45.690477 0) scale(0.996264)"/>
       <use xlink:href="#CMMI12-3a" transform="translate(91.380954 0) scale(0.996264)"/>
       <use xlink:href="#CMR17-33" transform="translate(118.478131 0) scale(0.996264)"/>
       <use xlink:href="#CMR17-31" transform="translate(164.168608 0) scale(0.996264)"/>
       <use xlink:href="#CMR17-35" transform="translate(209.859086 0) scale(0.996264)"/>
      </g>
     </g>
    </g>
    <g id="ytick_3">
     <g id="line2d_15">
      <path d="M 83.740286 381.289296 
L 565.2 381.289296 
" clip-path="url(#p8403d16efb)" style="fill: none; stroke: #b0b0b0; stroke-width: 0.8; stroke-linecap: square"/>
     </g>
     <g id="line2d_16">
      <g>
       <use xlink:href="#md964c94aab" x="83.740286" y="381.289296" style="stroke: #000000; stroke-width: 0.8"/>
      </g>
     </g>
     <g id="text_10">
      <!-- $\mathdefault{74.316}$ -->
      <g transform="translate(30.741364 387.515946) scale(0.18 -0.18)">
       <use xlink:href="#CMR17-37" transform="scale(0.996264)"/>
       <use xlink:href="#CMR17-34" transform="translate(45.690477 0) scale(0.996264)"/>
       <use xlink:href="#CMMI12-3a" transform="translate(91.380954 0) scale(0.996264)"/>
       <use xlink:href="#CMR17-33" transform="translate(118.478131 0) scale(0.996264)"/>
       <use xlink:href="#CMR17-31" transform="translate(164.168608 0) scale(0.996264)"/>
       <use xlink:href="#CMR17-36" transform="translate(209.859086 0) scale(0.996264)"/>
      </g>
     </g>
    </g>
    <g id="ytick_4">
     <g id="line2d_17">
      <path d="M 83.740286 325.226451 
L 565.2 325.226451 
" clip-path="url(#p8403d16efb)" style="fill: none; stroke: #b0b0b0; stroke-width: 0.8; stroke-linecap: square"/>
     </g>
     <g id="line2d_18">
      <g>
       <use xlink:href="#md964c94aab" x="83.740286" y="325.226451" style="stroke: #000000; stroke-width: 0.8"/>
      </g>
     </g>
     <g id="text_11">
      <!-- $\mathdefault{74.317}$ -->
      <g transform="translate(30.741364 331.453101) scale(0.18 -0.18)">
       <use xlink:href="#CMR17-37" transform="scale(0.996264)"/>
       <use xlink:href="#CMR17-34" transform="translate(45.690477 0) scale(0.996264)"/>
       <use xlink:href="#CMMI12-3a" transform="translate(91.380954 0) scale(0.996264)"/>
       <use xlink:href="#CMR17-33" transform="translate(118.478131 0) scale(0.996264)"/>
       <use xlink:href="#CMR17-31" transform="translate(164.168608 0) scale(0.996264)"/>
       <use xlink:href="#CMR17-37" transform="translate(209.859086 0) scale(0.996264)"/>
      </g>
     </g>
    </g>
    <g id="ytick_5">
     <g id="line2d_19">
      <path d="M 83.740286 269.163607 
L 565.2 269.163607 
" clip-path="url(#p8403d16efb)" style="fill: none; stroke: #b0b0b0; stroke-width: 0.8; stroke-linecap: square"/>
     </g>
     <g id="line2d_20">
      <g>
       <use xlink:href="#md964c94aab" x="83.740286" y="269.163607" style="stroke: #000000; stroke-width: 0.8"/>
      </g>
     </g>
     <g id="text_12">
      <!-- $\mathdefault{74.318}$ -->
      <g transform="translate(30.741364 275.390257) scale(0.18 -0.18)">
       <use xlink:href="#CMR17-37" transform="scale(0.996264)"/>
       <use xlink:href="#CMR17-34" transform="translate(45.690477 0) scale(0.996264)"/>
       <use xlink:href="#CMMI12-3a" transform="translate(91.380954 0) scale(0.996264)"/>
       <use xlink:href="#CMR17-33" transform="translate(118.478131 0) scale(0.996264)"/>
       <use xlink:href="#CMR17-31" transform="translate(164.168608 0) scale(0.996264)"/>
       <use xlink:href="#CMR17-38" transform="translate(209.859086 0) scale(0.996264)"/>
      </g>
     </g>
    </g>
    <g id="ytick_6">
     <g id="line2d_21">
      <path d="M 83.740286 213.100762 
L 565.2 213.100762 
" clip-path="url(#p8403d16efb)" style="fill: none; stroke: #b0b0b0; stroke-width: 0.8; stroke-linecap: square"/>
     </g>
     <g id="line2d_22">
      <g>
       <use xlink:href="#md964c94aab" x="83.740286" y="213.100762" style="stroke: #000000; stroke-width: 0.8"/>
      </g>
     </g>
     <g id="text_13">
      <!-- $\mathdefault{74.319}$ -->
      <g transform="translate(30.741364 219.327412) scale(0.18 -0.18)">
       <defs>
        <path id="CMR17-39" d="M 2253 1871 
C 2253 448 1670 25 1190 25 
C 1043 25 685 43 538 281 
C 704 256 826 345 826 505 
C 826 678 685 736 595 736 
C 538 736 365 710 365 492 
C 365 68 742 -128 1203 -128 
C 1939 -128 2688 665 2688 2090 
C 2688 3857 1971 4224 1485 4224 
C 851 4224 243 3664 243 2800 
C 243 2000 762 1408 1414 1408 
C 1952 1408 2189 1910 2253 2122 
L 2253 1871 
z
M 1427 1510 
C 1254 1510 1011 1542 813 1929 
C 678 2181 678 2477 678 2793 
C 678 3174 678 3438 858 3722 
C 947 3857 1114 4076 1485 4076 
C 2240 4076 2240 2909 2240 2651 
C 2240 2193 2035 1510 1427 1510 
z
" transform="scale(0.015625)"/>
       </defs>
       <use xlink:href="#CMR17-37" transform="scale(0.996264)"/>
       <use xlink:href="#CMR17-34" transform="translate(45.690477 0) scale(0.996264)"/>
       <use xlink:href="#CMMI12-3a" transform="translate(91.380954 0) scale(0.996264)"/>
       <use xlink:href="#CMR17-33" transform="translate(118.478131 0) scale(0.996264)"/>
       <use xlink:href="#CMR17-31" transform="translate(164.168608 0) scale(0.996264)"/>
       <use xlink:href="#CMR17-39" transform="translate(209.859086 0) scale(0.996264)"/>
      </g>
     </g>
    </g>
    <g id="ytick_7">
     <g id="line2d_23">
      <path d="M 83.740286 157.037917 
L 565.2 157.037917 
" clip-path="url(#p8403d16efb)" style="fill: none; stroke: #b0b0b0; stroke-width: 0.8; stroke-linecap: square"/>
     </g>
     <g id="line2d_24">
      <g>
       <use xlink:href="#md964c94aab" x="83.740286" y="157.037917" style="stroke: #000000; stroke-width: 0.8"/>
      </g>
     </g>
     <g id="text_14">
      <!-- $\mathdefault{74.320}$ -->
      <g transform="translate(30.741364 163.264567) scale(0.18 -0.18)">
       <use xlink:href="#CMR17-37" transform="scale(0.996264)"/>
       <use xlink:href="#CMR17-34" transform="translate(45.690477 0) scale(0.996264)"/>
       <use xlink:href="#CMMI12-3a" transform="translate(91.380954 0) scale(0.996264)"/>
       <use xlink:href="#CMR17-33" transform="translate(118.478131 0) scale(0.996264)"/>
       <use xlink:href="#CMR17-32" transform="translate(164.168608 0) scale(0.996264)"/>
       <use xlink:href="#CMR17-30" transform="translate(209.859086 0) scale(0.996264)"/>
      </g>
     </g>
    </g>
    <g id="ytick_8">
     <g id="line2d_25">
      <path d="M 83.740286 100.975072 
L 565.2 100.975072 
" clip-path="url(#p8403d16efb)" style="fill: none; stroke: #b0b0b0; stroke-width: 0.8; stroke-linecap: square"/>
     </g>
     <g id="line2d_26">
      <g>
       <use xlink:href="#md964c94aab" x="83.740286" y="100.975072" style="stroke: #000000; stroke-width: 0.8"/>
      </g>
     </g>
     <g id="text_15">
      <!-- $\mathdefault{74.321}$ -->
      <g transform="translate(30.741364 107.201722) scale(0.18 -0.18)">
       <use xlink:href="#CMR17-37" transform="scale(0.996264)"/>
       <use xlink:href="#CMR17-34" transform="translate(45.690477 0) scale(0.996264)"/>
       <use xlink:href="#CMMI12-3a" transform="translate(91.380954 0) scale(0.996264)"/>
       <use xlink:href="#CMR17-33" transform="translate(118.478131 0) scale(0.996264)"/>
       <use xlink:href="#CMR17-32" transform="translate(164.168608 0) scale(0.996264)"/>
       <use xlink:href="#CMR17-31" transform="translate(209.859086 0) scale(0.996264)"/>
      </g>
     </g>
    </g>
    <g id="ytick_9">
     <g id="line2d_27">
      <path d="M 83.740286 44.912227 
L 565.2 44.912227 
" clip-path="url(#p8403d16efb)" style="fill: none; stroke: #b0b0b0; stroke-width: 0.8; stroke-linecap: square"/>
     </g>
     <g id="line2d_28">
      <g>
       <use xlink:href="#md964c94aab" x="83.740286" y="44.912227" style="stroke: #000000; stroke-width: 0.8"/>
      </g>
     </g>
     <g id="text_16">
      <!-- $\mathdefault{74.322}$ -->
      <g transform="translate(30.741364 51.138877) scale(0.18 -0.18)">
       <use xlink:href="#CMR17-37" transform="scale(0.996264)"/>
       <use xlink:href="#CMR17-34" transform="translate(45.690477 0) scale(0.996264)"/>
       <use xlink:href="#CMMI12-3a" transform="translate(91.380954 0) scale(0.996264)"/>
       <use xlink:href="#CMR17-33" transform="translate(118.478131 0) scale(0.996264)"/>
       <use xlink:href="#CMR17-32" transform="translate(164.168608 0) scale(0.996264)"/>
       <use xlink:href="#CMR17-32" transform="translate(209.859086 0) scale(0.996264)"/>
      </g>
     </g>
    </g>
    <g id="text_17">
     <!-- \boldmath$f_n-f_0$ -->
     <g transform="translate(23.2533 310.360231) rotate(-90) scale(0.18 -0.18)">
      <defs>
       <path id="CMMIB10-6e" d="M 1792 2393 
C 1702 2713 1350 2880 1005 2880 
C 768 2880 589 2745 448 2515 
C 288 2259 205 1913 205 1881 
C 205 1792 301 1792 358 1792 
C 429 1792 454 1792 486 1824 
C 499 1836 499 1849 538 2009 
C 666 2508 806 2649 973 2649 
C 1069 2649 1120 2585 1120 2412 
C 1120 2304 1094 2201 1030 1945 
C 986 1766 922 1510 890 1369 
L 659 473 
C 640 384 608 262 608 217 
C 608 83 710 -64 909 -64 
C 1242 -64 1318 230 1363 422 
C 1427 659 1478 864 1542 1139 
C 1568 1222 1728 1881 1741 1900 
C 1747 1939 1926 2227 2138 2400 
C 2317 2540 2528 2649 2797 2649 
C 2963 2649 3117 2585 3117 2272 
C 3117 1907 2835 1158 2714 838 
C 2643 665 2624 620 2624 512 
C 2624 140 2995 -64 3347 -64 
C 4026 -64 4346 806 4346 934 
C 4346 1024 4250 1024 4192 1024 
C 4115 1024 4070 1024 4045 940 
C 3834 230 3488 166 3386 166 
C 3341 166 3277 166 3277 300 
C 3277 448 3341 608 3405 768 
C 3507 1030 3802 1779 3802 2137 
C 3802 2726 3309 2880 2848 2880 
C 2714 2880 2246 2880 1792 2393 
z
" transform="scale(0.015625)"/>
      </defs>
      <use xlink:href="#CMMIB10-66" transform="scale(0.996264)"/>
      <use xlink:href="#CMMIB10-6e" transform="translate(56.593469 -14.943915) scale(0.697382)"/>
      <use xlink:href="#CMBSY10-0" transform="translate(132.272153 0) scale(0.996264)"/>
      <use xlink:href="#CMMIB10-66" transform="translate(246.841906 0) scale(0.996264)"/>
      <use xlink:href="#CMBX12-30" transform="translate(303.435375 -14.943915) scale(0.697382)"/>
     </g>
    </g>
   </g>
   <g id="line2d_29">
    <path d="M 259.777824 338.079843 
L 261.501321 336.433631 
L 272.761698 325.678193 
L 278.972924 319.745491 
L 303.574551 296.247052 
L 328.759933 272.191034 
L 105.624818 485.320309 
L 114.717884 476.634994 
L 365.573235 237.028517 
L 543.315468 67.256615 
L 187.842486 406.789452 
L 283.371887 315.543786 
L 341.2278 260.282253 
L 318.993391 281.519625 
L 250.058239 347.363581 
L 280.155332 318.616105 
L 380.810014 222.474987 
L 233.412434 363.262954 
L 279.958729 318.803891 
" clip-path="url(#p8403d16efb)" style="fill: none; stroke: #ff0000; stroke-width: 1.5; stroke-linecap: square"/>
   </g>
   <g id="patch_3">
    <path d="M 83.740286 522.317271 
L 83.740286 36.315386 
" style="fill: none; stroke: #000000; stroke-width: 0.8; stroke-linejoin: miter; stroke-linecap: square"/>
   </g>
   <g id="patch_4">
    <path d="M 565.2 522.317271 
L 565.2 36.315386 
" style="fill: none; stroke: #000000; stroke-width: 0.8; stroke-linejoin: miter; stroke-linecap: square"/>
   </g>
   <g id="patch_5">
    <path d="M 83.740286 522.317271 
L 565.2 522.317271 
" style="fill: none; stroke: #000000; stroke-width: 0.8; stroke-linejoin: miter; stroke-linecap: square"/>
   </g>
   <g id="patch_6">
    <path d="M 83.740286 36.315386 
L 565.2 36.315386 
" style="fill: none; stroke: #000000; stroke-width: 0.8; stroke-linejoin: miter; stroke-linecap: square"/>
   </g>
   <g id="text_18">
    <!-- \boldmath$|6S_{1/2},F=2,m_F=-1\rangle\rightarrow|5D_{5/2},\tilde{F}=4,m_{\tilde{F}}=-2\rangle$ -->
    <g transform="translate(68.958995 29.452283) scale(0.2 -0.2)">
     <defs>
      <path id="CMBSY10-6a" d="M 1216 4512 
C 1216 4608 1216 4800 1024 4800 
C 826 4800 826 4614 826 4512 
L 826 -1312 
C 826 -1408 826 -1600 1018 -1600 
C 1216 -1600 1216 -1415 1216 -1312 
L 1216 4512 
z
" transform="scale(0.015625)"/>
      <path id="CMBX12-36" d="M 1114 2335 
C 1114 2727 1133 3142 1312 3488 
C 1453 3756 1779 3993 2195 3993 
C 2317 3993 2547 3975 2701 3827 
C 2458 3801 2355 3622 2355 3449 
C 2355 3219 2528 3072 2733 3072 
C 2899 3072 3110 3180 3110 3462 
C 3110 3845 2854 4224 2182 4224 
C 1382 4224 301 3737 301 2046 
C 301 1616 301 -64 1818 -64 
C 2662 -64 3290 435 3290 1334 
C 3290 2232 2669 2707 1907 2707 
C 1779 2707 1370 2707 1114 2162 
L 1114 2335 
z
M 1811 192 
C 1402 192 1242 538 1216 589 
C 1126 801 1126 1315 1126 1372 
C 1126 2162 1466 2496 1843 2496 
C 2477 2496 2477 1982 2477 1340 
C 2477 705 2477 192 1811 192 
z
" transform="scale(0.015625)"/>
      <path id="CMMIB10-53" d="M 4544 4255 
C 4550 4275 4570 4371 4570 4383 
C 4570 4467 4499 4480 4454 4480 
C 4410 4480 4397 4480 4314 4403 
L 3962 4109 
C 3712 4364 3373 4480 2944 4480 
C 1760 4480 1178 3565 1178 2912 
C 1178 2572 1331 2329 1485 2182 
C 1709 1984 1862 1952 2336 1843 
C 2483 1804 2656 1766 2835 1728 
C 2944 1702 3341 1612 3341 1152 
C 3341 844 3078 172 2246 172 
C 2093 172 1670 192 1376 364 
C 1011 588 1011 896 1011 1024 
C 1011 1075 1011 1164 1043 1286 
C 1043 1305 1050 1337 1050 1350 
C 1050 1440 960 1440 902 1440 
C 774 1440 768 1414 736 1292 
L 410 -39 
C 410 -109 467 -128 518 -128 
C 576 -128 576 -122 646 -64 
C 666 -52 909 160 1011 243 
C 1370 -77 1914 -128 2221 -128 
C 3475 -128 4032 915 4032 1568 
C 4032 1913 3891 2169 3744 2316 
C 3514 2547 3360 2579 2822 2700 
L 2323 2816 
C 2042 2880 1869 3078 1869 3328 
C 1869 3635 2150 4204 2925 4204 
C 3456 4204 3942 3981 3942 3257 
C 3942 3142 3923 3027 3923 3008 
C 3923 2912 4013 2912 4077 2912 
C 4198 2912 4205 2924 4237 3052 
L 4544 4255 
z
" transform="scale(0.015625)"/>
      <path id="CMMIB10-3d" d="M 3219 4461 
C 3264 4563 3264 4576 3264 4601 
C 3264 4723 3162 4800 3072 4800 
C 2938 4800 2899 4704 2861 4608 
L 454 -1261 
C 410 -1364 410 -1376 410 -1402 
C 410 -1524 512 -1600 602 -1600 
C 736 -1600 781 -1492 813 -1415 
L 3219 4461 
z
" transform="scale(0.015625)"/>
      <path id="CMBX12-32" d="M 3232 1378 
L 2963 1378 
C 2944 1243 2899 864 2803 800 
C 2752 755 2253 755 2157 755 
L 1165 755 
C 1408 960 1990 1448 2086 1519 
C 2797 2052 3232 2379 3232 2995 
C 3232 3759 2547 4224 1702 4224 
C 979 4224 358 3806 358 3187 
C 358 2848 634 2752 781 2752 
C 979 2752 1210 2886 1210 3180 
C 1210 3449 1011 3584 813 3610 
C 1069 3921 1408 3948 1542 3948 
C 2131 3948 2413 3449 2413 2988 
C 2413 2488 2074 2026 1811 1750 
L 422 294 
C 358 236 358 224 358 108 
L 358 0 
L 3046 0 
L 3232 1378 
z
" transform="scale(0.015625)"/>
      <path id="CMMIB10-3b" d="M 1370 134 
C 1350 -263 1158 -688 806 -976 
C 717 -1051 710 -1057 710 -1095 
C 710 -1140 781 -1216 832 -1216 
C 922 -1216 1600 -669 1600 198 
C 1600 646 1370 998 1011 998 
C 717 998 518 774 518 499 
C 518 243 698 0 1018 0 
C 1171 0 1293 64 1370 134 
z
" transform="scale(0.015625)"/>
      <path id="CMMIB10-46" d="M 2342 2048 
L 2758 2048 
C 3142 2048 3251 1983 3251 1769 
C 3251 1698 3232 1575 3213 1497 
C 3200 1452 3194 1420 3194 1407 
C 3194 1310 3277 1290 3341 1290 
C 3462 1290 3469 1329 3501 1446 
L 3859 2881 
C 3885 2965 3885 2978 3885 2984 
C 3885 3100 3757 3100 3731 3100 
C 3610 3100 3597 3055 3565 2933 
C 3437 2445 3238 2348 2778 2348 
L 2419 2348 
L 2842 4063 
C 2925 4076 2995 4076 3059 4076 
L 3821 4076 
C 4550 4076 4774 3890 4774 3325 
C 4774 3171 4749 2978 4749 2952 
C 4749 2830 4870 2830 4902 2830 
C 5037 2830 5043 2894 5056 3010 
L 5171 4159 
L 5178 4262 
C 5178 4377 5069 4377 4966 4377 
L 1523 4377 
C 1389 4377 1382 4371 1350 4345 
C 1306 4313 1293 4198 1293 4191 
C 1293 4076 1382 4076 1555 4076 
C 1690 4076 1811 4070 1946 4063 
L 1043 430 
C 1018 326 1011 320 896 307 
C 787 300 659 300 557 300 
C 390 300 378 300 352 288 
C 275 243 275 140 275 115 
C 275 108 275 0 416 0 
C 576 0 742 12 902 12 
C 1075 12 1248 19 1421 19 
C 1613 19 1805 12 1997 12 
C 2182 12 2368 0 2547 0 
C 2624 0 2739 0 2739 185 
C 2739 300 2630 300 2528 300 
L 2317 300 
C 2074 300 1978 313 1914 326 
L 2342 2048 
z
" transform="scale(0.015625)"/>
      <path id="CMBX12-3d" d="M 4934 2112 
C 5030 2112 5197 2112 5197 2291 
C 5197 2464 5024 2464 4941 2464 
L 653 2464 
C 570 2464 397 2464 397 2291 
C 397 2112 563 2112 659 2112 
L 4934 2112 
z
M 4941 735 
C 5024 735 5197 735 5197 908 
C 5197 1088 5030 1088 4934 1088 
L 659 1088 
C 563 1088 397 1088 397 908 
C 397 735 570 735 653 735 
L 4941 735 
z
" transform="scale(0.015625)"/>
      <path id="CMMIB10-6d" d="M 2758 691 
C 2720 531 2650 262 2650 217 
C 2650 83 2752 -64 2950 -64 
C 3059 -64 3258 -7 3354 211 
C 3405 345 3693 1555 3757 1817 
C 3776 1913 3789 1945 3923 2124 
C 4090 2342 4390 2649 4838 2649 
C 5005 2649 5158 2585 5158 2272 
C 5158 1907 4877 1158 4755 838 
C 4685 665 4666 620 4666 512 
C 4666 140 5037 -64 5389 -64 
C 6067 -64 6387 806 6387 934 
C 6387 1024 6291 1024 6234 1024 
C 6157 1024 6112 1024 6086 940 
C 5875 230 5530 166 5427 166 
C 5382 166 5318 166 5318 300 
C 5318 448 5382 608 5446 768 
C 5549 1030 5843 1779 5843 2137 
C 5843 2726 5350 2880 4890 2880 
C 4742 2880 4256 2880 3776 2329 
C 3757 2412 3712 2611 3469 2745 
C 3238 2880 2918 2880 2848 2880 
C 2714 2880 2246 2880 1792 2393 
C 1702 2713 1350 2880 1005 2880 
C 768 2880 589 2745 448 2515 
C 288 2259 205 1913 205 1881 
C 205 1792 301 1792 358 1792 
C 429 1792 454 1792 486 1824 
C 499 1836 499 1849 538 2009 
C 666 2508 806 2649 973 2649 
C 1069 2649 1120 2585 1120 2412 
C 1120 2304 1094 2201 1030 1945 
C 986 1766 922 1510 890 1369 
L 659 473 
C 640 384 608 262 608 217 
C 608 83 710 -64 909 -64 
C 1242 -64 1318 230 1363 422 
C 1427 659 1478 864 1542 1139 
C 1568 1222 1728 1881 1741 1900 
C 1747 1939 1926 2227 2138 2400 
C 2317 2540 2528 2649 2797 2649 
C 2963 2649 3117 2585 3117 2272 
C 3117 2124 3072 1939 3046 1843 
L 2758 691 
z
" transform="scale(0.015625)"/>
      <path id="CMBSY10-69" d="M 1645 1596 
L 454 -1261 
C 416 -1364 410 -1364 410 -1402 
C 410 -1524 512 -1600 602 -1600 
C 736 -1600 781 -1492 813 -1415 
L 2003 1455 
C 2042 1558 2048 1558 2048 1596 
C 2048 1628 2048 1641 2010 1724 
L 813 4607 
C 768 4710 736 4800 602 4800 
C 512 4800 410 4723 410 4601 
C 410 4575 410 4562 448 4479 
L 1645 1596 
z
" transform="scale(0.015625)"/>
      <path id="CMBSY10-21" d="M 5850 1408 
C 5574 1183 5427 979 5331 831 
C 5069 428 4998 25 4998 6 
C 4998 -109 5107 -109 5197 -109 
C 5306 -109 5363 -109 5389 -13 
C 5446 211 5523 531 5850 895 
C 6221 1311 6643 1433 6790 1478 
C 6880 1504 6944 1516 6944 1600 
C 6944 1657 6906 1702 6861 1715 
C 6611 1785 6278 1875 5907 2252 
C 5536 2624 5440 3020 5395 3193 
C 5363 3315 5325 3315 5197 3315 
C 5107 3315 4998 3315 4998 3200 
C 4998 3193 5056 2790 5331 2368 
C 5472 2156 5645 1964 5850 1798 
L 698 1798 
C 595 1798 410 1798 410 1606 
C 410 1408 589 1408 698 1408 
L 5850 1408 
z
" transform="scale(0.015625)"/>
      <path id="CMBX12-35" d="M 986 3359 
C 1203 3308 1376 3308 1472 3308 
C 1626 3308 1990 3308 2419 3571 
C 2618 3692 2950 3980 2950 4115 
C 2950 4147 2950 4224 2874 4224 
C 2867 4224 2854 4224 2790 4191 
C 2496 4090 2182 4032 1824 4032 
C 1459 4032 1152 4090 851 4198 
C 806 4211 787 4224 768 4224 
C 691 4224 691 4159 691 4058 
L 691 2179 
C 691 2055 691 1984 819 1984 
C 883 1984 896 1991 947 2055 
C 1024 2146 1254 2432 1798 2432 
C 2387 2432 2387 1822 2387 1312 
C 2387 851 2387 192 1600 192 
C 1363 192 960 280 742 640 
C 1082 640 1165 896 1165 1036 
C 1165 1267 998 1440 762 1440 
C 570 1440 358 1324 358 1024 
C 358 469 864 -64 1626 -64 
C 2611 -64 3232 501 3232 1292 
C 3232 2081 2701 2643 1824 2643 
C 1568 2643 1261 2592 986 2386 
L 986 3359 
z
" transform="scale(0.015625)"/>
      <path id="CMMIB10-44" d="M 1043 429 
C 1018 326 1011 320 896 307 
C 787 300 659 300 557 300 
C 390 300 378 300 352 288 
C 275 243 275 140 275 115 
C 275 0 390 0 493 0 
L 2995 0 
C 4832 0 5856 1518 5856 2826 
C 5856 3941 5043 4416 4090 4416 
L 1536 4416 
C 1408 4416 1299 4416 1299 4230 
C 1299 4115 1382 4115 1568 4115 
C 1702 4115 1824 4108 1958 4102 
L 1043 429 
z
M 2790 3999 
C 2816 4095 2822 4102 2861 4108 
C 2918 4115 2963 4115 3034 4115 
L 3763 4115 
C 3949 4115 4378 4095 4685 3851 
C 5005 3580 5005 3200 5005 3052 
C 5005 2601 4768 1711 4595 1351 
C 4224 597 3558 300 2822 300 
L 2029 300 
C 1933 300 1920 300 1875 307 
L 2790 3999 
z
" transform="scale(0.015625)"/>
      <path id="CMBX12-7e" d="M 2989 4339 
L 2835 4480 
C 2752 4383 2579 4243 2342 4243 
C 2195 4243 2035 4294 1805 4377 
C 1709 4415 1530 4480 1363 4480 
C 1203 4480 1043 4428 934 4307 
L 602 3942 
L 755 3801 
C 838 3897 1011 4038 1248 4038 
C 1395 4038 1555 3987 1786 3903 
C 1882 3865 2061 3801 2227 3801 
C 2387 3801 2547 3852 2656 3974 
L 2989 4339 
z
" transform="scale(0.015625)"/>
      <path id="CMBX12-34" d="M 2771 1004 
L 3392 1004 
L 3392 1280 
L 2771 1280 
L 2771 4038 
C 2771 4198 2765 4224 2605 4224 
C 2490 4224 2477 4224 2400 4127 
L 198 1280 
L 198 1004 
L 2016 1004 
L 2016 275 
L 1318 275 
L 1318 0 
C 1504 12 2138 12 2368 12 
C 2586 12 3219 12 3392 0 
L 3392 275 
L 2771 275 
L 2771 1004 
z
M 2074 3324 
L 2074 1280 
L 493 1280 
L 2074 3324 
z
" transform="scale(0.015625)"/>
     </defs>
     <use xlink:href="#CMBSY10-6a" transform="scale(0.996264)"/>
     <use xlink:href="#CMBX12-36" transform="translate(31.824931 0) scale(0.996264)"/>
     <use xlink:href="#CMMIB10-53" transform="translate(87.864782 0) scale(0.996264)"/>
     <use xlink:href="#CMBX12-31" transform="translate(156.876587 -16.88091) scale(0.697382)"/>
     <use xlink:href="#CMMIB10-3d" transform="translate(196.1043 -16.88091) scale(0.697382)"/>
     <use xlink:href="#CMBX12-32" transform="translate(236.203531 -16.88091) scale(0.697382)"/>
     <use xlink:href="#CMMIB10-3b" transform="translate(275.929376 0) scale(0.996264)"/>
     <use xlink:href="#CMMIB10-46" transform="translate(326.849266 0) scale(0.996264)"/>
     <use xlink:href="#CMBX12-3d" transform="translate(443.217862 0) scale(0.996264)"/>
     <use xlink:href="#CMBX12-32" transform="translate(562.215894 0) scale(0.996264)"/>
     <use xlink:href="#CMMIB10-3b" transform="translate(618.255744 0) scale(0.996264)"/>
     <use xlink:href="#CMMIB10-6d" transform="translate(669.175635 0) scale(0.996264)"/>
     <use xlink:href="#CMMIB10-46" transform="translate(772.030317 -14.943915) scale(0.697382)"/>
     <use xlink:href="#CMBX12-3d" transform="translate(863.533676 0) scale(0.996264)"/>
     <use xlink:href="#CMBSY10-0" transform="translate(982.531708 0) scale(0.996264)"/>
     <use xlink:href="#CMBX12-31" transform="translate(1071.641516 0) scale(0.996264)"/>
     <use xlink:href="#CMBSY10-69" transform="translate(1127.681366 0) scale(0.996264)"/>
     <use xlink:href="#CMBSY10-21" transform="translate(1204.061202 0) scale(0.996264)"/>
     <use xlink:href="#CMBSY10-6a" transform="translate(1350.455886 0) scale(0.996264)"/>
     <use xlink:href="#CMBX12-35" transform="translate(1382.280818 0) scale(0.996264)"/>
     <use xlink:href="#CMMIB10-44" transform="translate(1438.320668 0) scale(0.996264)"/>
     <use xlink:href="#CMBX12-35" transform="translate(1531.78226 -16.88091) scale(0.697382)"/>
     <use xlink:href="#CMMIB10-3d" transform="translate(1571.009973 -16.88091) scale(0.697382)"/>
     <use xlink:href="#CMBX12-32" transform="translate(1611.109204 -16.88091) scale(0.697382)"/>
     <use xlink:href="#CMMIB10-3b" transform="translate(1650.835049 0) scale(0.996264)"/>
     <use xlink:href="#CMBX12-7e" transform="translate(1725.554333 24.076492) scale(0.996264)"/>
     <use xlink:href="#CMMIB10-46" transform="translate(1701.754939 0) scale(0.996264)"/>
     <use xlink:href="#CMBX12-3d" transform="translate(1818.123535 0) scale(0.996264)"/>
     <use xlink:href="#CMBX12-34" transform="translate(1937.121567 0) scale(0.996264)"/>
     <use xlink:href="#CMMIB10-3b" transform="translate(1993.161417 0) scale(0.996264)"/>
     <use xlink:href="#CMMIB10-6d" transform="translate(2044.081308 0) scale(0.996264)"/>
     <use xlink:href="#CMBX12-7e" transform="translate(2163.595486 -13.006508) scale(0.697382)"/>
     <use xlink:href="#CMMIB10-46" transform="translate(2146.93599 -29.859979) scale(0.697382)"/>
     <use xlink:href="#CMBX12-3d" transform="translate(2238.439349 0) scale(0.996264)"/>
     <use xlink:href="#CMBSY10-0" transform="translate(2357.437381 0) scale(0.996264)"/>
     <use xlink:href="#CMBX12-32" transform="translate(2446.547189 0) scale(0.996264)"/>
     <use xlink:href="#CMBSY10-69" transform="translate(2502.587039 0) scale(0.996264)"/>
    </g>
   </g>
  </g>
 </g>
 <defs>
  <clipPath id="p8403d16efb">
   <rect x="83.740286" y="36.315386" width="481.459714" height="486.001885"/>
  </clipPath>
 </defs>
</svg>
